<svg width="25" height="24" viewBox="0 0 25 24" fill="none" xmlns="http://www.w3.org/2000/svg">
<path d="M12.5 8V12M12.5 16H12.51M2.5 8.52274V15.4773C2.5 15.7218 2.5 15.8441 2.52763 15.9592C2.55213 16.0613 2.59253 16.1588 2.64736 16.2483C2.7092 16.3492 2.79568 16.4357 2.96863 16.6086L7.89137 21.5314C8.06432 21.7043 8.1508 21.7908 8.25172 21.8526C8.34119 21.9075 8.43873 21.9479 8.54077 21.9724C8.65586 22 8.77815 22 9.02274 22H15.9773C16.2218 22 16.3441 22 16.4592 21.9724C16.5613 21.9479 16.6588 21.9075 16.7483 21.8526C16.8492 21.7908 16.9357 21.7043 17.1086 21.5314L22.0314 16.6086C22.2043 16.4357 22.2908 16.3492 22.3526 16.2483C22.4075 16.1588 22.4479 16.0613 22.4724 15.9592C22.5 15.8441 22.5 15.7218 22.5 15.4773V8.52274C22.5 8.27815 22.5 8.15586 22.4724 8.04077C22.4479 7.93873 22.4075 7.84119 22.3526 7.75172C22.2908 7.6508 22.2043 7.56432 22.0314 7.39137L17.1086 2.46863C16.9357 2.29568 16.8492 2.2092 16.7483 2.14736C16.6588 2.09253 16.5613 2.05213 16.4592 2.02763C16.3441 2 16.2218 2 15.9773 2H9.02274C8.77815 2 8.65586 2 8.54077 2.02763C8.43873 2.05213 8.34119 2.09253 8.25172 2.14736C8.1508 2.2092 8.06432 2.29568 7.89137 2.46863L2.96863 7.39137C2.79568 7.56432 2.7092 7.6508 2.64736 7.75172C2.59253 7.84119 2.55213 7.93873 2.52763 8.04077C2.5 8.15586 2.5 8.27815 2.5 8.52274Z" stroke="#75247B" stroke-width="2" stroke-linecap="round" stroke-linejoin="round"/>
</svg>
