<svg width="141" height="114" viewBox="0 0 141 114" fill="none" xmlns="http://www.w3.org/2000/svg">
<path d="M70.9011 112.904C98.9011 112.904 121.601 90.2037 121.601 62.1037C121.601 34.0037 98.8011 11.3037 70.9011 11.3037C42.9011 11.3037 20.201 34.0037 20.201 62.1037C20.201 90.2037 42.9011 112.904 70.9011 112.904Z" fill="#F1F3F9" stroke="#75247B" stroke-miterlimit="10"/>
<path d="M118.301 28.8045C120.565 28.8045 122.401 26.9689 122.401 24.7045C122.401 22.4401 120.565 20.6045 118.301 20.6045C116.037 20.6045 114.201 22.4401 114.201 24.7045C114.201 26.9689 116.037 28.8045 118.301 28.8045Z" fill="#F1F3F9"/>
<path d="M124.301 12.8041C125.847 12.8041 127.101 11.5505 127.101 10.0041C127.101 8.4577 125.847 7.2041 124.301 7.2041C122.755 7.2041 121.501 8.4577 121.501 10.0041C121.501 11.5505 122.755 12.8041 124.301 12.8041Z" fill="#F1F3F9"/>
<path d="M22.9011 28.7045C24.4475 28.7045 25.7011 27.4509 25.7011 25.9045C25.7011 24.3581 24.4475 23.1045 22.9011 23.1045C21.3547 23.1045 20.1011 24.3581 20.1011 25.9045C20.1011 27.4509 21.3547 28.7045 22.9011 28.7045Z" fill="#F1F3F9"/>
<path d="M5.80107 82.7037C8.67295 82.7037 11.0011 80.3756 11.0011 77.5037C11.0011 74.6318 8.67295 72.3037 5.80107 72.3037C2.92919 72.3037 0.601074 74.6318 0.601074 77.5037C0.601074 80.3756 2.92919 82.7037 5.80107 82.7037Z" fill="#F1F3F9"/>
<path d="M66.6525 73.2124L32.7132 96.7979C30.75 98.1492 28.0751 97.6824 26.7008 95.7169L4.17281 63.2131C2.82309 61.2477 3.28935 58.5697 5.25258 57.1939L39.1918 33.6084C41.1551 32.2571 43.83 32.7239 45.2042 34.6894L67.7568 67.1932C69.1065 69.1586 68.6157 71.8611 66.6525 73.2124Z" fill="white" stroke="#75247B" stroke-miterlimit="10"/>
<path d="M61.4009 69.6494L31.5599 90.385C30.7255 90.9747 29.5721 90.7536 28.9831 89.9182L10.357 63.0406C9.76805 62.2053 9.98891 61.0506 10.8233 60.4609L40.6643 39.7253C41.4987 39.1357 42.6521 39.3568 43.241 40.1921L61.8671 67.0698C62.4561 67.9051 62.2352 69.0598 61.4009 69.6494Z" fill="#F1F3F9"/>
<path d="M40.0263 69.429L29.1304 76.996L30.2838 67.0459L40.0263 69.429Z" fill="#75247B"/>
<path d="M49.0324 63.164L33.3511 74.0723L35.0199 59.749L49.0324 63.164Z" fill="#75247B"/>
<path d="M25.9647 66.1613C27.3471 66.1613 28.4678 65.0394 28.4678 63.6554C28.4678 62.2714 27.3471 61.1494 25.9647 61.1494C24.5822 61.1494 23.4615 62.2714 23.4615 63.6554C23.4615 65.0394 24.5822 66.1613 25.9647 66.1613Z" fill="#75247B"/>
<path d="M107.757 93.285L76.223 66.5547C74.4071 65.0069 74.1862 62.2798 75.7077 60.4618L101.254 30.2674C102.8 28.4493 105.524 28.2282 107.34 29.7514L138.874 56.4817C140.69 58.0295 140.911 60.7566 139.39 62.5746L113.843 92.769C112.297 94.5871 109.573 94.8082 107.757 93.285Z" fill="white" stroke="#75247B" stroke-miterlimit="10"/>
<path d="M109.843 87.2897L82.1126 63.8025C81.3273 63.1391 81.2291 61.9844 81.8917 61.1982L102.996 36.2369C103.659 35.4507 104.812 35.3524 105.598 36.0158L133.328 59.503C134.114 60.1664 134.212 61.3211 133.549 62.1073L112.444 87.0686C111.782 87.8548 110.628 87.9531 109.843 87.2897Z" fill="#F1F3F9"/>
<path d="M104.518 66.5297L94.4073 57.9554L104.322 56.5059L104.518 66.5297Z" fill="#75247B"/>
<path d="M112.911 73.6296L98.3339 61.2717L112.592 59.208L112.911 73.6296Z" fill="#75247B"/>
<path d="M106.481 53.9758C107.864 53.9758 108.984 52.8538 108.984 51.4698C108.984 50.0858 107.864 48.9639 106.481 48.9639C105.099 48.9639 103.978 50.0858 103.978 51.4698C103.978 52.8538 105.099 53.9758 106.481 53.9758Z" fill="#75247B"/>
<path d="M93.4791 65.8876L52.8862 73.7063C50.5419 74.1513 48.2785 72.6141 47.8155 70.2891L40.299 31.4584C39.8513 29.1142 41.3863 26.8531 43.7114 26.3927L84.3043 18.574C86.6486 18.1291 88.912 19.6662 89.375 21.9913L96.8915 60.822C97.3392 63.1661 95.8042 65.4273 93.4791 65.8876Z" fill="white" stroke="#75247B" stroke-miterlimit="10"/>
<path d="M90.1152 60.5053L54.4333 67.3926C53.4242 67.5887 52.4629 66.9415 52.2656 65.9325L46.0428 33.8427C45.8455 32.8336 46.4918 31.8733 47.5009 31.6772L83.1828 24.7898C84.1919 24.5937 85.1532 25.2409 85.3505 26.25L91.5733 58.3397C91.7706 59.3488 91.1243 60.3091 90.1152 60.5053Z" fill="#F1F3F9"/>
<path d="M70.6009 51.6434L57.5828 54.1478L62.6672 45.5139L70.6009 51.6434Z" fill="#75247B"/>
<path d="M81.3938 49.5533L62.6282 53.1665L69.9564 40.7631L81.3938 49.5533Z" fill="#75247B"/>
<path d="M62.049 42.2455C62.9154 41.1683 62.7436 39.5918 61.6651 38.7244C60.5867 37.8569 59.0101 38.027 58.1436 39.1042C57.2772 40.1814 57.449 41.7579 58.5275 42.6253C59.6059 43.4927 61.1825 43.3227 62.049 42.2455Z" fill="#75247B"/>
<path d="M94.0301 90.2732C93.5531 92.3007 92.8376 94.4473 92.0027 96.2362C89.7368 100.649 86.159 104.107 81.7464 106.373C77.2146 108.639 71.8479 109.593 66.4812 108.401C53.8397 105.777 45.7301 93.374 48.3538 80.7325C50.9775 68.091 63.2612 59.8621 75.9027 62.605C80.4346 63.5591 84.3701 65.825 87.7094 68.9258C93.3146 74.531 95.6998 82.6406 94.0301 90.2732Z" fill="#75247B" stroke="#75247B" stroke-width="2" stroke-miterlimit="10"/>
<path d="M78.6456 82.4752H74.2789V78.1085C74.2789 76.5217 73.0345 75.0811 71.2515 75.0811C69.6648 75.0811 68.2241 76.3255 68.2241 78.1085V82.4752H63.8574C62.2707 82.4752 60.83 83.7196 60.83 85.5026C60.83 86.3384 61.1267 87.1079 61.6894 87.6706C62.2521 88.2333 63.0216 88.53 63.8574 88.53H68.2241V92.8966C68.2241 94.4834 69.4686 95.9241 71.2515 95.9241C72.8383 95.9241 74.2789 94.6796 74.2789 92.8966V88.53H78.6456C80.2324 88.53 81.673 87.2855 81.673 85.5026C81.673 83.7196 80.2324 82.4752 78.6456 82.4752Z" fill="white" stroke="#75247B" stroke-width="2"/>
</svg>
