<svg width="135" height="119" viewBox="0 0 135 119" fill="none" xmlns="http://www.w3.org/2000/svg">
<g clip-path="url(#clip0_64_760)">
<path d="M72.0676 118.5C104.868 118.5 131.468 92.1 131.468 59.5C131.468 26.9 104.868 0.5 72.0676 0.5C39.2676 0.5 12.6676 26.9 12.6676 59.5C12.6676 92.1 39.2676 118.5 72.0676 118.5Z" fill="#EAEEF9"/>
<path d="M129.95 31.3001C132.214 31.3001 134.05 29.4645 134.05 27.2001C134.05 24.9357 132.214 23.1001 129.95 23.1001C127.685 23.1001 125.85 24.9357 125.85 27.2001C125.85 29.4645 127.685 31.3001 129.95 31.3001Z" fill="#EAEEF9"/>
<path d="M125.85 17.9999C127.396 17.9999 128.65 16.7463 128.65 15.1999C128.65 13.6535 127.396 12.3999 125.85 12.3999C124.304 12.3999 123.05 13.6535 123.05 15.1999C123.05 16.7463 124.304 17.9999 125.85 17.9999Z" fill="#EAEEF9"/>
<path d="M12.4499 27.2001C13.9963 27.2001 15.2499 25.9465 15.2499 24.4001C15.2499 22.8537 13.9963 21.6001 12.4499 21.6001C10.9035 21.6001 9.6499 22.8537 9.6499 24.4001C9.6499 25.9465 10.9035 27.2001 12.4499 27.2001Z" fill="#EAEEF9"/>
<path d="M6.14995 88.7999C9.02183 88.7999 11.35 86.4718 11.35 83.5999C11.35 80.728 9.02183 78.3999 6.14995 78.3999C3.27807 78.3999 0.949951 80.728 0.949951 83.5999C0.949951 86.4718 3.27807 88.7999 6.14995 88.7999Z" fill="#EAEEF9"/>
<g filter="url(#filter0_d_64_760)">
<path d="M126.793 44.893V99.0337C126.793 99.2569 126.793 99.3686 126.793 99.5918C126.681 102.717 125.23 105.397 122.997 107.294C121.1 108.969 118.532 110.085 115.742 110.085H28.3351C26.4374 110.085 24.6513 109.639 23.0885 108.745C22.4187 108.411 21.7489 107.964 21.1908 107.406C19.9628 106.401 18.8465 104.95 18.2884 103.387C17.8418 102.271 17.507 101.043 17.507 99.8151V44.893C17.507 44.893 22.0838 40.986 28.67 35.6277C35.4794 29.9346 44.4098 22.567 52.2239 16.0924C56.6892 12.297 56.2426 12.7435 63.1637 6.93875C68.4103 2.47354 76.1128 2.47354 81.3594 6.93875C82.699 8.05505 84.1502 9.39461 85.4897 10.5109C88.3921 12.8552 91.5178 15.5343 94.8667 18.325C101.899 24.1298 109.602 30.6044 115.63 35.6277C121.77 40.6511 126.235 44.4465 126.793 44.893Z" fill="url(#paint0_linear_64_760)"/>
</g>
<path d="M115.63 35.5159V54.9396L96.5411 66.4375L90.8479 69.898L78.7919 77.154L73.0987 80.6145L70.6429 82.0657L68.2986 80.6145L62.9404 77.154L51.4425 69.898L46.0842 66.4375L28.4467 55.3861V35.6276C35.2561 29.9344 44.1865 22.5668 52.0006 16.0923L94.755 18.2133C101.899 24.1297 109.602 30.4926 115.63 35.5159Z" fill="#989FB0"/>
<path d="M111.834 20.1113V54.2702L94.4202 64.6518L89.2852 67.7774L78.2338 74.252L73.0988 77.3776L70.8662 78.6056L68.7452 77.3776L63.8335 74.252L53.3402 67.7774L48.4285 64.6518L32.3538 54.6051V20.1113C32.3538 16.5392 35.2561 13.6368 38.9399 13.6368H105.248C108.82 13.5252 111.834 16.5392 111.834 20.1113Z" fill="white"/>
<path opacity="0.5" d="M17.9535 44.6699L70.4197 48.1305L126.012 44.6699L123.891 54.605C123.891 54.605 71.6476 81.8428 71.9825 81.8428C72.3174 81.8428 18.0651 49.5817 18.0651 49.5817L17.9535 44.6699Z" fill="url(#paint1_linear_64_760)"/>
<path d="M126.793 44.8931V99.5919C126.681 102.718 125.23 105.397 122.997 107.294C121.1 108.969 118.532 110.085 115.742 110.085H28.3351C26.4374 110.085 24.6513 109.639 23.0885 108.746C22.4187 108.411 21.7489 107.964 21.1908 107.406C19.9628 106.401 18.8465 104.95 18.2884 103.387C17.8418 102.271 17.507 101.043 17.507 99.8151V99.7035V44.8931L66.401 75.4797L70.6429 78.1589L72.0941 77.2658L73.4337 76.4844L126.793 44.8931Z" fill="#738DFF"/>
<path d="M123.109 107.294C121.211 108.969 118.644 110.085 115.853 110.085H28.3351C26.4374 110.085 24.6513 109.639 23.0885 108.746C22.4187 108.411 21.7489 107.964 21.1908 107.406C19.9628 106.401 18.8465 104.95 18.2884 103.387C17.8418 102.271 17.507 101.043 17.507 99.8151V99.7035V44.8931L23.2001 48.3536L72.0941 77.2658L73.4337 78.0472L73.5453 78.1589L117.416 104.057L123.109 107.294Z" fill="url(#paint2_linear_64_760)"/>
<path d="M73.4336 76.3726V80.168L23.0884 108.745C22.4186 108.41 21.7489 107.964 21.1907 107.406C19.9628 106.401 18.8465 104.95 18.2883 103.387L67.294 74.3633L71.5359 77.0424L72.0941 77.2657L73.4336 76.3726Z" fill="url(#paint3_linear_64_760)"/>
<path d="M17.507 44.8931L72.0941 77.2658" stroke="white" stroke-miterlimit="10"/>
<path d="M126.793 44.8931V99.5919C126.681 102.718 125.23 105.397 122.997 107.294C121.1 108.969 118.532 110.085 115.741 110.085H28.335C26.4373 110.085 24.6512 109.639 23.0884 108.746C22.4186 108.411 21.7488 107.964 21.1907 107.406L26.7722 104.057L70.6429 78.1589L72.094 77.2658L73.4336 76.4844L120.988 48.242L126.793 44.8931Z" fill="url(#paint4_linear_64_760)"/>
<path d="M126.793 44.8931L73.4336 76.3728L72.094 77.2658L70.6429 78.1589L21.1907 107.294" stroke="white" stroke-miterlimit="10"/>
<path d="M113.621 83.1819H84.5967C83.9269 83.1819 83.3688 82.6238 83.3688 81.954C83.3688 81.2842 83.9269 80.7261 84.5967 80.7261H113.621C114.29 80.7261 114.848 81.2842 114.848 81.954C114.96 82.6238 114.402 83.1819 113.621 83.1819Z" fill="#CED7E2"/>
<path d="M113.621 91.5545H84.5967C83.9269 91.5545 83.3688 90.9963 83.3688 90.3266C83.3688 89.6568 83.9269 89.0986 84.5967 89.0986H113.621C114.29 89.0986 114.848 89.6568 114.848 90.3266C114.96 90.9963 114.402 91.5545 113.621 91.5545Z" fill="#CED7E2"/>
<path d="M119.649 108.969L123.221 107.183C123.109 107.294 123.109 107.294 122.997 107.406C122.997 107.406 122.997 107.406 122.886 107.406L119.649 108.969Z" fill="#526DFF"/>
<path d="M69.3004 56.3154C68.4352 56.3154 67.6209 55.9974 66.9593 55.3085L55.7118 43.5964C54.4395 42.2715 54.4395 40.0457 55.7118 38.7208C56.9842 37.396 59.1217 37.396 60.394 38.7208L69.3004 47.9951L90.2686 26.2139C91.5409 24.889 93.6784 24.889 94.9508 26.2139C96.2231 27.5388 96.2231 29.7646 94.9508 31.0895L71.6415 55.3085C71.0308 55.9974 70.1656 56.3154 69.3004 56.3154Z" fill="url(#paint5_linear_64_760)"/>
</g>
<defs>
<filter id="filter0_d_64_760" x="-4.49304" y="-7.41016" width="153.286" height="150.495" filterUnits="userSpaceOnUse" color-interpolation-filters="sRGB">
<feFlood flood-opacity="0" result="BackgroundImageFix"/>
<feColorMatrix in="SourceAlpha" type="matrix" values="0 0 0 0 0 0 0 0 0 0 0 0 0 0 0 0 0 0 127 0" result="hardAlpha"/>
<feOffset dy="11"/>
<feGaussianBlur stdDeviation="11"/>
<feColorMatrix type="matrix" values="0 0 0 0 0.397708 0 0 0 0 0.47749 0 0 0 0 0.575 0 0 0 0.27 0"/>
<feBlend mode="normal" in2="BackgroundImageFix" result="effect1_dropShadow_64_760"/>
<feBlend mode="normal" in="SourceGraphic" in2="effect1_dropShadow_64_760" result="shape"/>
</filter>
<linearGradient id="paint0_linear_64_760" x1="72.1062" y1="4.8382" x2="72.1062" y2="84.3291" gradientUnits="userSpaceOnUse">
<stop stop-color="#B0BACC"/>
<stop offset="1" stop-color="#969EAE"/>
</linearGradient>
<linearGradient id="paint1_linear_64_760" x1="71.9345" y1="93.6279" x2="71.9345" y2="47.1749" gradientUnits="userSpaceOnUse">
<stop stop-color="#8A90B5"/>
<stop offset="1" stop-color="#A7AED2" stop-opacity="0"/>
</linearGradient>
<linearGradient id="paint2_linear_64_760" x1="70.2736" y1="43.3851" x2="70.2736" y2="110.788" gradientUnits="userSpaceOnUse">
<stop stop-color="#FDFEFF"/>
<stop offset="0.9964" stop-color="#ECF0F5"/>
</linearGradient>
<linearGradient id="paint3_linear_64_760" x1="49.01" y1="94.703" x2="44.7295" y2="88.4379" gradientUnits="userSpaceOnUse">
<stop stop-color="#D5D8E4"/>
<stop offset="1" stop-color="#E1E4F0" stop-opacity="0"/>
</linearGradient>
<linearGradient id="paint4_linear_64_760" x1="73.9573" y1="43.3851" x2="73.9573" y2="110.788" gradientUnits="userSpaceOnUse">
<stop stop-color="#FDFEFF"/>
<stop offset="0.9964" stop-color="#ECF0F5"/>
</linearGradient>
<linearGradient id="paint5_linear_64_760" x1="75.3345" y1="26.3004" x2="75.3345" y2="43.7538" gradientUnits="userSpaceOnUse">
<stop stop-color="#B0BACC"/>
<stop offset="1" stop-color="#969EAE"/>
</linearGradient>
<clipPath id="clip0_64_760">
<rect width="133.1" height="118" fill="white" transform="translate(0.949951 0.5)"/>
</clipPath>
</defs>
</svg>
