<svg width="21" height="20" viewBox="0 0 21 20" fill="none" xmlns="http://www.w3.org/2000/svg">
<path d="M19.5 19V1M1.5 19V1M7.5 6V14C7.5 14.9319 7.5 15.3978 7.65224 15.7654C7.85523 16.2554 8.24458 16.6448 8.73463 16.8478C9.10217 17 9.56812 17 10.5 17C11.4319 17 11.8978 17 12.2654 16.8478C12.7554 16.6448 13.1448 16.2554 13.3478 15.7654C13.5 15.3978 13.5 14.9319 13.5 14V6C13.5 5.06812 13.5 4.60218 13.3478 4.23463C13.1448 3.74458 12.7554 3.35523 12.2654 3.15224C11.8978 3 11.4319 3 10.5 3C9.56812 3 9.10218 3 8.73463 3.15224C8.24458 3.35523 7.85523 3.74458 7.65224 4.23463C7.5 4.60218 7.5 5.06812 7.5 6Z" stroke="#75247B" stroke-width="2" stroke-linecap="round" stroke-linejoin="round"/>
</svg>
