<svg width="177" height="127" viewBox="0 0 177 127" fill="none" xmlns="http://www.w3.org/2000/svg">
<path d="M111.72 31.7196C111.174 34.0877 110.354 36.3648 109.352 38.4597C106.711 43.3782 102.794 47.3858 97.8757 49.8451C92.775 52.4865 86.7636 53.3973 80.661 52.2132C66.4521 49.2075 57.2527 35.3629 60.2584 21.0629C63.2642 6.76283 77.0177 -2.43654 91.3177 0.569197C96.4184 1.66219 100.881 4.12143 104.616 7.67367C110.809 14.0495 113.451 23.0667 111.72 31.7196Z" fill="url(#paint0_linear_72_1298)"/>
<g filter="url(#filter0_d_72_1298)">
<path d="M79.8704 65.6331C79.7494 65.6331 79.7494 65.754 79.6285 65.754L68.3791 70.9553C67.4114 71.4392 66.3228 70.9553 65.8389 69.9876C65.3551 69.02 65.8389 67.9313 66.8066 67.4475L74.5481 63.9396L72.1289 63.0929L75.9996 52.0855L67.5324 47.4889L70.3145 36.4815L58.7023 33.8204L62.573 24.7483L60.2747 22.3291L27.6153 37.3282C23.3817 39.2636 21.4463 44.344 23.5027 48.5776L41.8887 88.9785C43.8241 93.2121 48.9044 95.1475 53.1381 93.0912L85.4346 78.3339L87.37 68.0523L79.8704 65.6331Z" fill="url(#paint1_linear_72_1298)"/>
</g>
<path d="M65.8389 69.9874C66.3228 70.955 67.4114 71.4389 68.3791 70.955L79.6285 65.7537C79.7494 65.7537 79.7494 65.6328 79.8704 65.6328L74.5481 63.8184L66.8066 67.3262C65.8389 67.931 65.3551 69.0197 65.8389 69.9874Z" fill="#D5DDEA"/>
<path d="M61.4844 74.1L50.235 79.3013C49.2673 79.7852 48.1787 79.3013 47.6948 78.3336C47.211 77.366 47.6948 76.2773 48.6625 75.7935L59.9119 70.5922C60.8795 70.1083 61.9682 70.5922 62.452 71.5598C62.9359 72.5275 62.452 73.6162 61.4844 74.1Z" fill="#D5DDEA"/>
<g filter="url(#filter1_d_72_1298)">
<path d="M146.045 82.6797L153.999 38.8048C154.855 34.1406 151.766 29.7462 147.157 28.9972L106.213 21.7075L106.746 25.1086L98.4314 30.3607L106.503 39.1238L97.7843 46.4914L102.066 55.0353L92.5286 61.873L94.1251 63.9072L97.8669 64.5598C98.8968 64.7081 99.5598 65.727 99.4115 66.7569C99.2076 67.6794 98.3516 68.3943 97.4847 68.2979L102.278 74.6708L94.856 81.9126L136.182 89.4136C140.846 90.2701 145.296 87.2884 146.045 82.6797Z" fill="url(#paint2_linear_72_1298)"/>
</g>
<path d="M116.957 71.983L104.809 69.8213C103.779 69.673 103.116 68.6541 103.264 67.6242C103.413 66.5942 104.432 65.9312 105.462 66.0796L117.609 68.2413C118.639 68.3896 119.302 69.4085 119.154 70.4385C119.006 71.4684 117.987 72.1314 116.957 71.983Z" fill="#D5DDEA"/>
<path d="M136.588 75.4498L124.44 73.2881C123.41 73.1398 122.747 72.1209 122.896 71.0909C123.044 70.061 124.063 69.398 125.093 69.5464L137.241 71.7081C138.27 71.8564 138.933 72.8753 138.785 73.9052C138.637 74.9352 137.673 75.7056 136.588 75.4498Z" fill="#D5DDEA"/>
<path d="M144.655 45.9313C145.364 41.9859 142.739 38.2136 138.794 37.5055C134.849 36.7974 131.076 39.4217 130.368 43.3671C129.66 47.3124 132.284 51.0848 136.23 51.7928C140.175 52.5009 143.947 49.8766 144.655 45.9313Z" fill="#989FB0"/>
<path d="M135.239 44.2291C135.947 40.2838 133.322 36.5114 129.377 35.8033C125.432 35.0953 121.659 37.7196 120.951 41.6649C120.243 45.6103 122.868 49.3826 126.813 50.0907C130.758 50.7988 134.531 48.1745 135.239 44.2291Z" fill="#D5DDEA"/>
<path d="M99.467 66.8644C99.6154 65.8345 98.9524 64.8156 97.9224 64.6672L94.1807 64.0146L97.5959 68.5128C98.5147 68.4462 99.4261 67.8388 99.467 66.8644Z" fill="#D5DDEA"/>
<path d="M86.4675 11.3857C84.0083 11.3857 82.0955 13.4806 82.2777 15.9399L83.6439 30.6953C83.735 32.1526 85.0102 33.3367 86.4675 33.3367C87.9248 33.3367 89.2 32.1526 89.2911 30.6953L90.6573 15.9399C90.8395 13.3896 88.9267 11.3857 86.4675 11.3857Z" fill="white"/>
<path d="M86.4675 36.0693C84.6458 36.0693 83.1885 37.5267 83.1885 39.3483C83.1885 41.17 84.6458 42.6273 86.4675 42.6273C88.2891 42.6273 89.7465 41.17 89.7465 39.3483C89.7465 37.5267 88.2891 36.0693 86.4675 36.0693Z" fill="white"/>
<path d="M157.689 34.3979L166.943 31.2625" stroke="#989FB0" stroke-width="2" stroke-miterlimit="10"/>
<path d="M155.548 27.565L165.102 16.1602" stroke="#989FB0" stroke-width="2" stroke-miterlimit="10"/>
<path d="M150.12 24.4375L151.35 16" stroke="#989FB0" stroke-width="2" stroke-miterlimit="10"/>
<path d="M23.0188 34.3036L19.1481 25.3525" stroke="#989FB0" stroke-width="2" stroke-miterlimit="10"/>
<path d="M18.7851 38.5374L6.68906 29.9492" stroke="#989FB0" stroke-width="2" stroke-miterlimit="10"/>
<path d="M16.245 44.2231L7.6568 43.7393" stroke="#989FB0" stroke-width="2" stroke-miterlimit="10"/>
<defs>
<filter id="filter0_d_72_1298" x="0.676567" y="11.3291" width="108.693" height="115.588" filterUnits="userSpaceOnUse" color-interpolation-filters="sRGB">
<feFlood flood-opacity="0" result="BackgroundImageFix"/>
<feColorMatrix in="SourceAlpha" type="matrix" values="0 0 0 0 0 0 0 0 0 0 0 0 0 0 0 0 0 0 127 0" result="hardAlpha"/>
<feOffset dy="11"/>
<feGaussianBlur stdDeviation="11"/>
<feColorMatrix type="matrix" values="0 0 0 0 0.397708 0 0 0 0 0.47749 0 0 0 0 0.575 0 0 0 0.27 0"/>
<feBlend mode="normal" in2="BackgroundImageFix" result="effect1_dropShadow_72_1298"/>
<feBlend mode="normal" in="SourceGraphic" in2="effect1_dropShadow_72_1298" result="shape"/>
</filter>
<filter id="filter1_d_72_1298" x="70.5286" y="10.707" width="105.613" height="111.854" filterUnits="userSpaceOnUse" color-interpolation-filters="sRGB">
<feFlood flood-opacity="0" result="BackgroundImageFix"/>
<feColorMatrix in="SourceAlpha" type="matrix" values="0 0 0 0 0 0 0 0 0 0 0 0 0 0 0 0 0 0 127 0" result="hardAlpha"/>
<feOffset dy="11"/>
<feGaussianBlur stdDeviation="11"/>
<feColorMatrix type="matrix" values="0 0 0 0 0.397708 0 0 0 0 0.47749 0 0 0 0 0.575 0 0 0 0.27 0"/>
<feBlend mode="normal" in2="BackgroundImageFix" result="effect1_dropShadow_72_1298"/>
<feBlend mode="normal" in="SourceGraphic" in2="effect1_dropShadow_72_1298" result="shape"/>
</filter>
<linearGradient id="paint0_linear_72_1298" x1="59.6593" y1="26.3547" x2="112.223" y2="26.3547" gradientUnits="userSpaceOnUse">
<stop stop-color="#B0BACC"/>
<stop offset="1" stop-color="#969EAE"/>
</linearGradient>
<linearGradient id="paint1_linear_72_1298" x1="55.0022" y1="20.6732" x2="55.0022" y2="94.689" gradientUnits="userSpaceOnUse">
<stop stop-color="#FDFEFF"/>
<stop offset="0.9964" stop-color="#ECF0F5"/>
</linearGradient>
<linearGradient id="paint2_linear_72_1298" x1="104.782" y1="20.4753" x2="140.746" y2="90.0314" gradientUnits="userSpaceOnUse">
<stop stop-color="#FDFEFF"/>
<stop offset="0.9964" stop-color="#ECF0F5"/>
</linearGradient>
</defs>
</svg>
