<svg width="134" height="117" viewBox="0 0 134 117" fill="none" xmlns="http://www.w3.org/2000/svg">
<path d="M67.214 101.439C94.0852 101.439 115.87 79.654 115.87 52.6868C115.87 25.7195 93.9893 3.93457 67.214 3.93457C40.3427 3.93457 18.5577 25.7195 18.5577 52.6868C18.5577 79.654 40.3427 101.439 67.214 101.439Z" fill="#EAEEF9"/>
<path d="M112.703 20.7288C114.876 20.7288 116.638 18.9672 116.638 16.7941C116.638 14.621 114.876 12.8594 112.703 12.8594C110.53 12.8594 108.768 14.621 108.768 16.7941C108.768 18.9672 110.53 20.7288 112.703 20.7288Z" fill="#EAEEF9"/>
<path d="M118.461 5.37426C119.945 5.37426 121.148 4.17119 121.148 2.68713C121.148 1.20307 119.945 0 118.461 0C116.977 0 115.774 1.20307 115.774 2.68713C115.774 4.17119 116.977 5.37426 118.461 5.37426Z" fill="#EAEEF9"/>
<path d="M21.1489 20.633C22.633 20.633 23.836 19.43 23.836 17.9459C23.836 16.4619 22.633 15.2588 21.1489 15.2588C19.6649 15.2588 18.4618 16.4619 18.4618 17.9459C18.4618 19.43 19.6649 20.633 21.1489 20.633Z" fill="#EAEEF9"/>
<path d="M9.84182 78.721C12.5979 78.721 14.8322 76.4867 14.8322 73.7306C14.8322 70.9745 12.5979 68.7402 9.84182 68.7402C7.08571 68.7402 4.85144 70.9745 4.85144 73.7306C4.85144 76.4867 7.08571 78.721 9.84182 78.721Z" fill="#EAEEF9"/>
<g filter="url(#filter0_d_414_2896)">
<path d="M106.045 84.4968H28.3822C24.8115 84.4968 21.9103 81.5956 21.9103 78.0249V28.2581C21.9103 24.6873 24.8115 21.7861 28.3822 21.7861H106.045C109.616 21.7861 112.517 24.6873 112.517 28.2581V78.2481C112.294 81.5956 109.393 84.4968 106.045 84.4968Z" fill="url(#paint0_linear_414_2896)"/>
</g>
<rect x="36.0474" y="24.0801" width="13.4493" height="4.94516" rx="0.959689" fill="#D8DDEB"/>
<rect x="84.2567" y="24.0801" width="13.4493" height="4.94516" rx="0.959689" fill="#D8DDEB"/>
<g filter="url(#filter1_d_414_2896)">
<path d="M46.6151 12.8594H38.9382C38.4082 12.8594 37.9785 13.289 37.9785 13.8191V25.3979C37.9785 25.928 38.4082 26.3576 38.9382 26.3576H46.6151C47.1451 26.3576 47.5748 25.928 47.5748 25.3979V13.8191C47.5748 13.289 47.1451 12.8594 46.6151 12.8594Z" fill="url(#paint1_linear_414_2896)"/>
</g>
<g filter="url(#filter2_d_414_2896)">
<path d="M94.8244 12.8594H87.1474C86.6174 12.8594 86.1877 13.289 86.1877 13.8191V25.3979C86.1877 25.928 86.6174 26.3576 87.1474 26.3576H94.8244C95.3544 26.3576 95.784 25.928 95.784 25.3979V13.8191C95.784 13.289 95.3544 12.8594 94.8244 12.8594Z" fill="url(#paint2_linear_414_2896)"/>
</g>
<path d="M50.0296 55.9313C54.097 55.9313 57.3942 52.6341 57.3942 48.5667C57.3942 44.4994 54.097 41.2021 50.0296 41.2021C45.9623 41.2021 42.665 44.4994 42.665 48.5667C42.665 52.6341 45.9623 55.9313 50.0296 55.9313Z" stroke="#939DAE" stroke-width="3.83875" stroke-miterlimit="10" stroke-linecap="round" stroke-linejoin="round"/>
<path d="M38.2017 67.9852C38.2017 61.5133 43.5577 56.1572 50.0297 56.1572C56.5016 56.1572 61.8576 61.5133 61.8576 67.9852" stroke="#939DAE" stroke-width="3.83875" stroke-miterlimit="10" stroke-linecap="round" stroke-linejoin="round"/>
<path d="M74.132 47.2275H98.0111" stroke="#939DAE" stroke-width="3.83875" stroke-miterlimit="10" stroke-linecap="round" stroke-linejoin="round"/>
<path d="M74.132 59.2783H83.5051" stroke="#939DAE" stroke-width="3.83875" stroke-miterlimit="10" stroke-linecap="round" stroke-linejoin="round"/>
<path d="M82.022 93.9036C81.7125 95.219 81.2483 96.6118 80.7066 97.7725C79.2364 100.635 76.9151 102.879 74.0521 104.35C71.1117 105.82 67.6297 106.439 64.1477 105.665C55.9456 103.963 50.6839 95.9154 52.3863 87.7133C54.0886 79.5113 62.0585 74.1722 70.2606 75.9519C73.2009 76.5709 75.7544 78.0411 77.921 80.0529C81.5578 83.6897 83.1053 88.9514 82.022 93.9036Z" fill="url(#paint3_linear_414_2896)"/>
<path d="M72.0402 89.4928H68.5582V86.0107C68.5582 85.3143 68.0165 84.6953 67.2427 84.6953C66.5463 84.6953 65.9273 85.237 65.9273 86.0107V89.4928H62.4453C61.7489 89.4928 61.1299 90.0344 61.1299 90.8082C61.1299 91.582 61.6715 92.1236 62.4453 92.1236H65.9273V95.6056C65.9273 96.302 66.469 96.921 67.2427 96.921C67.9391 96.921 68.5582 96.3794 68.5582 95.6056V92.1236H72.0402C72.7366 92.1236 73.3556 91.582 73.3556 90.8082C73.3556 90.0344 72.7366 89.4928 72.0402 89.4928Z" fill="white"/>
<defs>
<filter id="filter0_d_414_2896" x="0.797131" y="11.2296" width="132.833" height="104.937" filterUnits="userSpaceOnUse" color-interpolation-filters="sRGB">
<feFlood flood-opacity="0" result="BackgroundImageFix"/>
<feColorMatrix in="SourceAlpha" type="matrix" values="0 0 0 0 0 0 0 0 0 0 0 0 0 0 0 0 0 0 127 0" result="hardAlpha"/>
<feOffset dy="10.5566"/>
<feGaussianBlur stdDeviation="10.5566"/>
<feColorMatrix type="matrix" values="0 0 0 0 0.397708 0 0 0 0 0.47749 0 0 0 0 0.575 0 0 0 0.27 0"/>
<feBlend mode="normal" in2="BackgroundImageFix" result="effect1_dropShadow_414_2896"/>
<feBlend mode="normal" in="SourceGraphic" in2="effect1_dropShadow_414_2896" result="shape"/>
</filter>
<filter id="filter1_d_414_2896" x="16.8654" y="2.3028" width="51.8226" height="55.7243" filterUnits="userSpaceOnUse" color-interpolation-filters="sRGB">
<feFlood flood-opacity="0" result="BackgroundImageFix"/>
<feColorMatrix in="SourceAlpha" type="matrix" values="0 0 0 0 0 0 0 0 0 0 0 0 0 0 0 0 0 0 127 0" result="hardAlpha"/>
<feOffset dy="10.5566"/>
<feGaussianBlur stdDeviation="10.5566"/>
<feColorMatrix type="matrix" values="0 0 0 0 0.397708 0 0 0 0 0.47749 0 0 0 0 0.575 0 0 0 0.27 0"/>
<feBlend mode="normal" in2="BackgroundImageFix" result="effect1_dropShadow_414_2896"/>
<feBlend mode="normal" in="SourceGraphic" in2="effect1_dropShadow_414_2896" result="shape"/>
</filter>
<filter id="filter2_d_414_2896" x="65.0746" y="2.3028" width="51.8226" height="55.7243" filterUnits="userSpaceOnUse" color-interpolation-filters="sRGB">
<feFlood flood-opacity="0" result="BackgroundImageFix"/>
<feColorMatrix in="SourceAlpha" type="matrix" values="0 0 0 0 0 0 0 0 0 0 0 0 0 0 0 0 0 0 127 0" result="hardAlpha"/>
<feOffset dy="10.5566"/>
<feGaussianBlur stdDeviation="10.5566"/>
<feColorMatrix type="matrix" values="0 0 0 0 0.397708 0 0 0 0 0.47749 0 0 0 0 0.575 0 0 0 0.27 0"/>
<feBlend mode="normal" in2="BackgroundImageFix" result="effect1_dropShadow_414_2896"/>
<feBlend mode="normal" in="SourceGraphic" in2="effect1_dropShadow_414_2896" result="shape"/>
</filter>
<linearGradient id="paint0_linear_414_2896" x1="67.1842" y1="20.3356" x2="67.1842" y2="85.1729" gradientUnits="userSpaceOnUse">
<stop stop-color="#FDFEFF"/>
<stop offset="0.9964" stop-color="#ECF0F5"/>
</linearGradient>
<linearGradient id="paint1_linear_414_2896" x1="42.7735" y1="12.5471" x2="42.7735" y2="26.5032" gradientUnits="userSpaceOnUse">
<stop stop-color="#FDFEFF"/>
<stop offset="0.9964" stop-color="#ECF0F5"/>
</linearGradient>
<linearGradient id="paint2_linear_414_2896" x1="90.9828" y1="12.5471" x2="90.9828" y2="26.5032" gradientUnits="userSpaceOnUse">
<stop stop-color="#FDFEFF"/>
<stop offset="0.9964" stop-color="#ECF0F5"/>
</linearGradient>
<linearGradient id="paint3_linear_414_2896" x1="52.0525" y1="90.808" x2="82.367" y2="90.808" gradientUnits="userSpaceOnUse">
<stop stop-color="#B0BACC"/>
<stop offset="1" stop-color="#969EAE"/>
</linearGradient>
</defs>
</svg>
