<svg width="25" height="24" viewBox="0 0 25 24" fill="none" xmlns="http://www.w3.org/2000/svg">
<path d="M21.9286 0H3.07143C2.38944 0 1.73539 0.270918 1.25315 0.753154C0.770918 1.23539 0.5 1.88944 0.5 2.57143L0.5 21.4286C0.5 22.1106 0.770918 22.7646 1.25315 23.2468C1.73539 23.7291 2.38944 24 3.07143 24H10.4241V15.8405H7.04911V12H10.4241V9.07286C10.4241 5.74339 12.4063 3.90429 15.4421 3.90429C16.8961 3.90429 18.4164 4.16357 18.4164 4.16357V7.43143H16.7413C15.0907 7.43143 14.5759 8.45571 14.5759 9.50625V12H18.2605L17.6713 15.8405H14.5759V24H21.9286C22.6106 24 23.2646 23.7291 23.7468 23.2468C24.2291 22.7646 24.5 22.1106 24.5 21.4286V2.57143C24.5 1.88944 24.2291 1.23539 23.7468 0.753154C23.2646 0.270918 22.6106 0 21.9286 0Z" fill="#1976D2"/>
</svg>
