<svg width="63" height="30" viewBox="0 0 63 30" fill="none" xmlns="http://www.w3.org/2000/svg">
<path d="M57.1708 5.85461L58.0684 4.93701" stroke="#4F55A8" stroke-width="2"/>
<path d="M60.7425 4.94482C60.4034 5.20289 60.1088 5.51286 59.8586 5.87474" stroke="#4F55A8" stroke-width="2"/>
<path d="M20.9492 16.2773L20.7461 19.7445" stroke="#8E2E8A" stroke-width="2"/>
<path d="M10.556 23.3998C10.541 23.3669 10.5901 23.3396 10.7031 23.3179C10.7496 23.3091 10.7625 23.283 10.7419 23.2396L10.7238 23.2C10.7208 23.1933 10.7203 23.1857 10.7223 23.1787C10.7244 23.1717 10.7289 23.1658 10.735 23.1622L10.7625 23.1455C10.7849 23.132 10.7832 23.1226 10.7573 23.1174C10.7074 23.1074 10.6644 23.0842 10.6282 23.0479" stroke="#3553A7" stroke-width="2"/>
<path d="M19.2555 8.35775C19.2957 8.27974 19.305 8.20086 19.2834 8.12109" stroke="#3553A7" stroke-width="2"/>
<path d="M30.3837 7.56129C30.3757 7.5085 30.3547 7.48328 30.3209 7.48563C30.3164 7.48597 30.3118 7.48484 30.308 7.48239C30.3041 7.47995 30.3011 7.47632 30.2994 7.47202C30.2977 7.46773 30.2973 7.46298 30.2984 7.45847C30.2995 7.45397 30.3019 7.44992 30.3054 7.44692C30.3788 7.38064 30.3877 7.33226 30.3321 7.30176" stroke="#C51A80" stroke-width="2"/>
<path d="M56.5692 20.6284L56.0554 20.6504C56.0295 20.6516 56.0281 20.6577 56.0511 20.6689L56.2378 20.7613C56.242 20.7633 56.2456 20.7666 56.2482 20.7706C56.2508 20.7746 56.2522 20.7793 56.2524 20.784C56.2526 20.7888 56.2515 20.7936 56.2492 20.7978C56.2469 20.802 56.2436 20.8055 56.2395 20.8079C56.1753 20.8454 56.1334 20.9017 56.1139 20.9768" stroke="#822178" stroke-width="2"/>
<path d="M47.5969 20.9603L47.4669 20.9348C47.4353 20.9289 47.4242 20.9101 47.4333 20.8785C47.4735 20.7453 47.4571 20.6597 47.3843 20.6216" stroke="#A01C79" stroke-width="2"/>
<path d="M47.5358 7.4838C47.549 7.3929 47.5802 7.31284 47.6296 7.24363C47.6456 7.22134 47.6672 7.21078 47.6941 7.21196C47.7963 7.21724 47.8984 7.21694 48.0005 7.21108C48.0694 7.20697 48.0694 7.20081 48.0005 7.1926L47.7836 7.16797" stroke="#A01C79" stroke-width="2"/>
<path d="M37.9231 1.63104C38.8224 1.56506 39.3931 2.30758 39.3939 3.17327C39.3974 9.09585 39.3979 15.0173 39.3956 20.9375C39.3956 20.9494 39.391 20.9608 39.3828 20.9692C39.3746 20.9776 39.3634 20.9824 39.3517 20.9824H37.9437C37.9239 20.9824 37.9048 20.9742 37.8908 20.9597C37.8767 20.9452 37.8688 20.9255 37.8688 20.9049V1.68998C37.8688 1.67494 37.8744 1.66046 37.8845 1.6495C37.8946 1.63854 37.9084 1.63194 37.9231 1.63104Z" fill="#B11B7C"/>
<path d="M9.6953 4.68986C10.3029 3.77402 11.3934 4.79279 10.9493 5.72006C10.7026 6.2356 10.2676 6.61273 9.64452 6.85144C9.62032 6.861 9.59339 6.86036 9.56964 6.84968C8.92243 6.55584 8.08329 5.87842 8.23132 5.03736C8.36387 4.28956 9.11264 4.15496 9.60149 4.69777C9.60755 4.70458 9.61506 4.70987 9.62346 4.71323C9.63185 4.71659 9.64091 4.71794 9.64995 4.71717C9.65899 4.71641 9.66777 4.71356 9.67562 4.70882C9.68348 4.70409 9.69021 4.6976 9.6953 4.68986Z" fill="#754894"/>
<path d="M30.7013 4.74548C30.9222 4.5965 31.1583 4.65076 31.4097 4.90823C31.4138 4.91254 31.4188 4.91596 31.4242 4.9183C31.4297 4.92063 31.4356 4.92184 31.4415 4.92184C31.4474 4.92184 31.4533 4.92063 31.4588 4.9183C31.4642 4.91596 31.4692 4.91254 31.4733 4.90823C31.8572 4.51586 32.3796 4.63287 32.4984 5.1792C32.6292 5.78184 31.957 6.35633 31.4673 6.5402C31.4419 6.54982 31.4139 6.5492 31.389 6.53844C30.8365 6.29123 29.82 5.34196 30.7013 4.74548Z" fill="#754894"/>
<path d="M57.1708 5.85464L58.0684 4.93705C58.5151 4.38016 59.2157 4.78309 59.1262 5.42356C59.0539 5.9435 58.5625 6.35347 58.1003 6.54262C58.0699 6.55552 58.04 6.55494 58.0108 6.54086C57.6568 6.37312 57.3768 6.14438 57.1708 5.85464Z" fill="#754894"/>
<path d="M60.7425 4.94504C60.4034 5.2031 60.1088 5.51307 59.8586 5.87495C59.3922 5.12099 60.0919 4.17348 60.7425 4.94504Z" fill="#2861BC"/>
<path d="M59.8586 5.87501C60.1087 5.51313 60.4034 5.20316 60.7425 4.94509C61.0299 4.58703 61.4551 4.55536 61.7099 4.96005C62.1144 5.60492 61.3286 6.32193 60.7795 6.54363C60.7531 6.55418 60.7273 6.5536 60.702 6.54187C60.3601 6.38879 60.0789 6.1665 59.8586 5.87501Z" fill="#754894"/>
<path d="M58.0684 4.93737L57.1708 5.85496C56.7249 5.13708 57.3515 4.21596 58.0684 4.93737Z" fill="#2861BC"/>
<path d="M13.9478 5.02187C14.342 5.5946 13.6276 6.21132 13.1577 6.43566C13.1267 6.45032 13.0952 6.45032 13.063 6.43566C12.6671 6.25531 12.1981 5.87613 12.1636 5.40721C12.1266 4.88903 12.7162 4.51953 13.0759 5.00252C13.0801 5.008 13.0855 5.01244 13.0916 5.01549C13.0977 5.01854 13.1044 5.02013 13.1112 5.02013C13.118 5.02013 13.1248 5.01854 13.1309 5.01549C13.137 5.01244 13.1423 5.008 13.1465 5.00252C13.3858 4.68316 13.7275 4.70252 13.9478 5.02187Z" fill="#754894"/>
<path d="M20.9492 16.2775L20.7461 19.7446C19.9844 22.625 18.0023 23.4212 15.2913 23.4001C13.7171 23.3877 12.1387 23.4053 10.556 23.4001C10.541 23.3672 10.5901 23.3399 10.7031 23.3182C10.7496 23.3094 10.7625 23.2833 10.7419 23.2399L10.7238 23.2004C10.7208 23.1936 10.7203 23.186 10.7223 23.179C10.7244 23.172 10.7289 23.1662 10.735 23.1625L10.7625 23.1458C10.7849 23.1323 10.7832 23.1229 10.7573 23.1177C10.7074 23.1077 10.6644 23.0845 10.6282 23.0482C12.3432 23.0499 14.0577 23.0508 15.7715 23.0508C16.0395 23.0508 16.343 23.0053 16.6821 22.9144C19.1573 22.2529 19.2916 19.53 19.2959 17.4027C19.3022 14.4197 19.3028 11.4364 19.2976 8.45285C19.2976 8.43291 19.2922 8.41443 19.2813 8.39743L19.2555 8.35784C19.2951 8.27983 19.3042 8.20094 19.283 8.12118L19.2951 7.23262C19.2952 7.21833 19.2981 7.20422 19.3036 7.19111C19.3092 7.178 19.3173 7.16617 19.3274 7.15632C19.3375 7.14647 19.3494 7.1388 19.3625 7.13377C19.3756 7.12874 19.3895 7.12645 19.4035 7.12704C20.5826 7.17807 20.9372 8.16781 20.938 9.21033C20.9398 11.3968 20.9455 13.5833 20.9553 15.7699C20.9558 15.9593 20.9538 16.1285 20.9492 16.2775Z" fill="#424491"/>
<path d="M19.283 8.12131C19.3042 8.20108 19.295 8.27996 19.2554 8.35797C18.4998 7.68055 17.5892 7.33949 16.5237 7.3348C14.3377 7.326 13.1396 9.10753 12.779 11.0905C12.4063 13.1404 12.6594 16.9093 14.8119 18.0037C15.923 18.5685 17.3129 18.3539 18.1314 17.3668C18.5463 16.8659 18.8283 16.282 18.9775 15.6152C18.9861 15.5759 19.0102 15.5577 19.0497 15.5606L19.1238 15.5659C19.1542 15.5682 19.1665 15.5847 19.1608 15.6152C18.7416 17.7521 17.2054 18.726 15.1458 18.4445C12.5647 18.0917 11.5474 15.7102 11.4002 13.311C11.1911 9.8826 13.2266 6.92923 16.8482 7.15797C17.7943 7.21838 18.6059 7.53949 19.283 8.12131Z" fill="#2861BC"/>
<path d="M20.7461 19.7447L20.9492 16.2776C21.0014 16.884 21.1058 17.4837 21.2625 18.0767C21.6033 19.3682 22.342 20.1723 23.4787 20.489C23.8051 20.5799 24.3402 20.6271 25.0838 20.6306C27.3077 20.6412 29.2379 20.6388 30.8743 20.6236C33.7437 20.5972 34.4228 17.9236 34.4245 15.5913C34.4268 13.24 34.4271 10.8896 34.4254 8.54002C34.4254 8.50288 34.4108 8.46712 34.3849 8.44061C33.3573 7.39193 31.7375 7.12976 30.3837 7.56172C30.3757 7.50893 30.3547 7.48371 30.3209 7.48606C30.3164 7.4864 30.3118 7.48527 30.308 7.48282C30.3041 7.48038 30.3011 7.47675 30.2994 7.47245C30.2977 7.46816 30.2973 7.46342 30.2984 7.45891C30.2995 7.4544 30.3019 7.45035 30.3054 7.44735C30.3788 7.38108 30.3877 7.33269 30.3321 7.30219C31.7573 6.96172 33.2084 7.16759 34.4124 8.1538C34.4136 8.15478 34.4149 8.15537 34.4164 8.15551C34.4178 8.15565 34.4193 8.15534 34.4206 8.15461C34.422 8.15388 34.4231 8.15275 34.424 8.15137C34.4248 8.14998 34.4253 8.14839 34.4254 8.14676L34.4262 7.23533C34.4262 7.17257 34.4569 7.14325 34.5183 7.14735C35.6363 7.22301 36.0141 8.15556 36.0158 9.16905C36.0204 11.2224 36.0213 13.2761 36.0184 15.33C36.0176 16.4386 35.8876 17.6966 35.3945 18.6424C34.5002 20.357 32.76 20.9412 30.9345 20.9561C28.0772 20.9796 25.9419 20.9878 24.5287 20.9808C23.137 20.9746 21.8383 20.6649 20.7461 19.7447Z" fill="#D91883"/>
<path d="M56.5692 20.6289L56.0553 20.6508C56.0295 20.652 56.0281 20.6582 56.051 20.6693L56.2378 20.7617C56.242 20.7638 56.2456 20.767 56.2482 20.771C56.2508 20.775 56.2522 20.7797 56.2524 20.7845C56.2526 20.7893 56.2515 20.794 56.2492 20.7982C56.2469 20.8024 56.2436 20.8059 56.2395 20.8083C56.1753 20.8459 56.1334 20.9022 56.1139 20.9772L54.6094 20.9781C54.5785 20.9781 54.5612 20.994 54.5578 21.0256C54.2566 23.7643 52.5017 25.3655 49.7829 25.4025C48.4971 25.4206 47.2107 25.4289 45.9237 25.4271C45.8899 25.4271 45.8729 25.4098 45.8729 25.3752V25.1491C45.8729 25.1098 45.8921 25.0904 45.9306 25.091C47.0747 25.101 48.2168 25.1013 49.3569 25.0919C51.7633 25.0717 52.7754 23.2022 52.9329 21.0309C52.9352 20.9992 52.9208 20.9834 52.8899 20.9834C52.3253 20.9825 47.7268 21.0731 47.5968 20.9605L47.4669 20.935C47.4353 20.9291 47.4241 20.9104 47.4333 20.8787C47.4735 20.7456 47.4571 20.6599 47.3842 20.6218L52.9424 20.6271C52.956 20.6271 52.9692 20.6215 52.9789 20.6116C52.9885 20.6017 52.994 20.5883 52.994 20.5743C52.9969 18.5602 52.996 16.5356 52.9914 14.5004C52.9897 13.725 52.9665 13.1391 52.9217 12.7426C52.5628 9.57548 50.9267 7.28194 47.5357 7.48428C47.5489 7.39337 47.5802 7.31331 47.6295 7.2441C47.6456 7.22182 47.6671 7.21126 47.6941 7.21243C47.7962 7.21771 47.8983 7.21742 48.0005 7.21155C48.0693 7.20745 48.0693 7.20129 48.0005 7.19308L47.7836 7.16845C51.2916 7.0444 53.9657 8.89542 54.4786 12.5684C54.5297 12.9379 54.5592 13.5236 54.5673 14.3253C54.5874 16.4086 54.5939 18.4925 54.5871 20.577C54.5871 20.6092 54.6031 20.6256 54.6353 20.6262L56.5692 20.6289Z" fill="#8E1D75"/>
<path d="M56.1139 20.9771C56.1334 20.902 56.1753 20.8457 56.2395 20.8082C56.2436 20.8058 56.2469 20.8023 56.2492 20.7981C56.2515 20.7939 56.2526 20.7892 56.2524 20.7844C56.2522 20.7796 56.2508 20.7749 56.2482 20.7709C56.2456 20.7669 56.242 20.7637 56.2378 20.7616L56.0511 20.6692C56.0281 20.6581 56.0295 20.6519 56.0554 20.6507L56.5692 20.6287C60.0213 20.8399 60.647 18.1082 60.6513 15.2956C60.6558 12.5977 60.6567 9.90733 60.6538 7.22463C60.6537 7.21585 60.6553 7.20713 60.6585 7.19898C60.6617 7.19082 60.6664 7.18338 60.6724 7.17709C60.6784 7.1708 60.6855 7.16578 60.6934 7.16231C60.7013 7.15885 60.7098 7.157 60.7184 7.15689C61.7099 7.14369 62.2168 8.00146 62.2202 8.91378C62.2294 11.0886 62.2334 13.2639 62.2323 15.4399C62.2317 16.5707 62.0421 17.5953 61.6634 18.5138C60.7468 20.7369 58.1992 21.0633 56.1139 20.9771Z" fill="#75247B"/>
<path d="M47.7836 7.1682L48.0005 7.19283C48.0693 7.20104 48.0693 7.2072 48.0005 7.21131C47.8984 7.21717 47.7962 7.21747 47.6941 7.21219C47.6671 7.21101 47.6456 7.22157 47.6295 7.24386C47.5802 7.31307 47.5489 7.39312 47.5357 7.48403C42.8761 7.71101 42.5138 12.8022 42.9923 16.3142C43.3452 18.9034 44.7945 20.4843 47.3843 20.6216C47.4571 20.6597 47.4735 20.7453 47.4333 20.8785C47.4241 20.9101 47.4353 20.9289 47.4669 20.9348L47.5968 20.9603C44.3444 20.9427 42.0155 19.3758 41.4277 16.031C40.6049 11.3506 42.6042 7.13213 47.7836 7.1682Z" fill="#B11B7C"/>
<path d="M30.3321 7.30225C30.3878 7.33274 30.3789 7.38113 30.3054 7.44741C30.302 7.45041 30.2995 7.45445 30.2984 7.45896C30.2974 7.46347 30.2977 7.46821 30.2994 7.47251C30.3012 7.47681 30.3042 7.48044 30.308 7.48288C30.3119 7.48532 30.3164 7.48646 30.3209 7.48612C30.3548 7.48377 30.3757 7.50899 30.3838 7.56178C27.7157 8.64829 27.4644 12.2685 27.9059 14.7371C28.2304 16.5521 29.2365 18.3415 31.2608 18.3424C32.7635 18.3433 33.7851 17.0712 34.0897 15.6697C34.0983 15.6292 34.1534 15.5694 34.1853 15.5826C34.2064 15.5915 34.2239 15.6075 34.2349 15.628C34.2458 15.6485 34.2496 15.6722 34.2455 15.6952C34.0877 16.5368 33.6979 17.2451 33.0759 17.8198C31.8477 18.9556 29.6212 18.6591 28.4103 17.7099C26.3464 16.0902 26.0082 12.243 27.0849 10.0066C27.7252 8.67908 28.8836 7.65415 30.3321 7.30225Z" fill="#B11B7C"/>
<path d="M10.6282 23.0482C10.6644 23.0846 10.7074 23.1077 10.7573 23.1177C10.7832 23.123 10.7849 23.1324 10.7625 23.1459L10.735 23.1626C10.7289 23.1662 10.7244 23.1721 10.7223 23.1791C10.7202 23.1861 10.7208 23.1937 10.7238 23.2004L10.7418 23.24C10.7625 23.2834 10.7496 23.3095 10.7031 23.3183C10.5901 23.34 10.541 23.3673 10.5559 23.4001C9.56877 23.4036 8.5618 23.4459 7.57377 23.3227C4.66734 22.962 2.4675 20.7239 1.9184 17.8154C1.64213 16.3523 1.70496 14.7819 2.26869 13.4042C2.89783 11.8682 4.23529 10.2749 5.83266 9.75761C7.38615 9.25438 9.19008 9.66083 10.1196 11.145C10.2754 11.394 10.2977 12.001 10.0895 12.2755C9.40955 13.1702 8.17967 11.5849 9.38889 11.1054C9.41471 11.0954 9.44139 11.0899 9.46893 11.0887L9.58082 11.0825C9.63303 11.0796 9.64279 11.0573 9.61008 11.0157C8.56611 9.68019 6.57197 9.6186 5.23107 10.4095C4.8082 10.6588 4.36668 11.03 3.90652 11.5233C2.85193 12.6535 2.26926 14.0265 2.15852 15.6424C1.97693 18.2799 3.17926 21.1321 5.56672 22.3497C7.15205 23.1573 8.83721 23.0755 10.6282 23.0482Z" fill="#2861BC"/>
<path d="M3.29545 24.951C3.28972 25.9006 3.28685 26.8507 3.28685 27.8015C3.28685 28.1457 3.46127 28.2941 3.81013 28.2466C3.83939 28.2425 3.85717 28.2554 3.86349 28.2853L3.89275 28.4235C3.90078 28.4622 3.88558 28.4815 3.84713 28.4815L1.98209 28.4842C1.94996 28.4842 1.93476 28.4677 1.93648 28.4349L1.9425 28.2977C1.9448 28.2543 1.96689 28.2364 2.00877 28.244C2.42361 28.3214 2.49676 28.0777 2.49676 27.7179C2.49619 26.7935 2.4959 25.8704 2.4959 24.9484C2.4959 24.9196 2.48185 24.9044 2.45373 24.9026C1.78844 24.8534 1.5182 24.9282 1.3564 25.624C1.35008 25.6528 1.3323 25.6672 1.30304 25.6672H1.17135C1.13693 25.6672 1.12115 25.6496 1.12402 25.6144C1.15271 25.2584 1.17365 24.9018 1.18685 24.5446C1.1876 24.5284 1.19298 24.5127 1.20229 24.4996C1.21161 24.4864 1.22446 24.4764 1.23923 24.4706C1.25401 24.4649 1.27007 24.4638 1.28539 24.4674C1.30072 24.471 1.31464 24.4792 1.32541 24.4909C1.40631 24.578 1.4898 24.6326 1.61545 24.6326C2.46865 24.6331 3.32156 24.6293 4.17418 24.6211C4.27 24.6199 4.36353 24.5801 4.45476 24.5015C4.46732 24.4906 4.48258 24.4835 4.49883 24.481C4.51509 24.4784 4.53169 24.4805 4.54679 24.487C4.56189 24.4935 4.57488 24.5041 4.58431 24.5177C4.59375 24.5313 4.59925 24.5473 4.60021 24.5639L4.66045 25.5616C4.66335 25.5916 4.65483 25.6215 4.63666 25.6452C4.61849 25.669 4.59207 25.6846 4.56291 25.6889C4.53375 25.6932 4.50408 25.6859 4.48009 25.6684C4.45609 25.6509 4.43962 25.6246 4.4341 25.595C4.38935 25.3962 4.31017 25.2114 4.19656 25.0408C4.18107 25.0179 4.16041 25.0015 4.13459 24.9915C3.87754 24.8941 3.60988 24.8663 3.3316 24.9079C3.3075 24.9114 3.29545 24.9258 3.29545 24.951Z" fill="#75247B"/>
<path d="M43.6714 28.4985L44.9331 29.307C44.9521 29.3193 44.9668 29.3375 44.9749 29.359C44.983 29.3804 44.9841 29.404 44.9781 29.4262C44.9722 29.4483 44.9594 29.4679 44.9417 29.4821C44.924 29.4963 44.9023 29.5043 44.8798 29.5049C44.0251 29.5269 43.4984 29.2375 42.8452 28.7105C42.7499 28.6337 42.6452 28.5832 42.531 28.5592C39.7133 27.953 40.66 24.0416 43.3667 24.595C45.366 25.0032 45.5218 27.6583 43.6774 28.4272C43.6708 28.4301 43.6651 28.4347 43.6608 28.4407C43.6566 28.4467 43.6541 28.4537 43.6534 28.461C43.6528 28.4683 43.6542 28.4757 43.6573 28.4823C43.6605 28.4889 43.6654 28.4945 43.6714 28.4985ZM43.3065 28.187C43.3811 28.2633 43.4562 28.2694 43.532 28.2055C44.3023 27.5527 44.2446 25.597 43.4339 24.9953C42.7316 24.4744 42.0129 24.9961 41.815 25.7404C41.5817 26.6184 41.7289 27.9178 42.6903 28.2979C42.7164 28.3081 42.7453 28.3088 42.772 28.2997C42.9224 28.2498 43.0741 28.2049 43.2273 28.165C43.2412 28.1613 43.2558 28.1613 43.2697 28.1652C43.2836 28.1691 43.2963 28.1766 43.3065 28.187Z" fill="#424491"/>
<path d="M9.30628 27.2084L8.24337 27.2058C8.20837 27.2058 8.18455 27.2225 8.17193 27.2559C8.08414 27.4899 7.66673 28.316 8.25714 28.2527C8.26474 28.2518 8.27244 28.2525 8.27977 28.2547C8.28709 28.2569 8.29389 28.2606 8.29976 28.2656C8.30563 28.2705 8.31044 28.2766 8.31391 28.2834C8.31739 28.2903 8.31944 28.2978 8.31996 28.3055L8.32857 28.4278C8.33144 28.4659 8.31423 28.4846 8.27693 28.4841C7.89423 28.4788 7.51296 28.4808 7.13312 28.4902C6.998 28.4929 6.94291 28.4357 7.01607 28.3037C7.0224 28.2921 7.03145 28.2822 7.04241 28.275C7.05337 28.2678 7.06591 28.2634 7.0789 28.2624C7.36205 28.2395 7.49115 28.0961 7.60132 27.8242C8.02648 26.7732 8.45136 25.7225 8.87595 24.672C8.88857 24.6404 8.91095 24.6207 8.94308 24.6131L9.15652 24.5621C9.18923 24.5539 9.21132 24.5659 9.22279 24.5981C9.84533 26.3454 10.2628 27.4709 10.475 27.9747C10.5485 28.1495 10.7066 28.2445 10.9493 28.2597C10.9797 28.2615 10.9949 28.2779 10.9949 28.309V28.4313C10.9949 28.4682 10.9768 28.4864 10.9407 28.4858C10.4088 28.477 9.87689 28.4794 9.34501 28.4929C9.3146 28.4934 9.29939 28.4782 9.29939 28.4471V28.3169C9.29939 28.2817 9.3166 28.2635 9.35103 28.2624C9.46578 28.2583 9.55701 28.2151 9.62472 28.133C9.64193 28.1113 9.64652 28.0876 9.63849 28.0618C9.5507 27.7814 9.45201 27.5052 9.34242 27.233C9.33554 27.2166 9.32349 27.2084 9.30628 27.2084ZM8.30705 26.838C8.30467 26.8443 8.30382 26.8511 8.30459 26.8578C8.30535 26.8645 8.3077 26.8709 8.31143 26.8764C8.31517 26.882 8.32017 26.8865 8.326 26.8896C8.33184 26.8927 8.33833 26.8944 8.34492 26.8943L9.16943 26.9031C9.17599 26.9032 9.18247 26.9017 9.18833 26.8987C9.19418 26.8957 9.19923 26.8913 9.20304 26.8858C9.20686 26.8804 9.20931 26.874 9.2102 26.8674C9.21109 26.8608 9.21039 26.854 9.20816 26.8477L8.8071 25.6978C8.80429 25.6899 8.79919 25.6831 8.79248 25.6782C8.78576 25.6733 8.77776 25.6707 8.76952 25.6706C8.76129 25.6705 8.75323 25.673 8.74641 25.6777C8.73959 25.6824 8.73434 25.6891 8.73136 25.697L8.30705 26.838Z" fill="#8E1D75"/>
<path d="M23.3022 27.2078H22.229C22.2126 27.2079 22.1967 27.2133 22.1835 27.2232C22.1703 27.2332 22.1606 27.2472 22.1558 27.2633L21.9183 28.0515C21.9091 28.0826 21.916 28.1096 21.939 28.1325C22.025 28.2181 22.1329 28.2606 22.2626 28.26C22.2884 28.26 22.3033 28.2732 22.3073 28.2996L22.3271 28.4457C22.3323 28.4832 22.3162 28.5008 22.2789 28.4984C21.8647 28.4744 21.4504 28.4735 21.0361 28.4958C21.0313 28.4962 21.0265 28.4955 21.022 28.4938C21.0174 28.4921 21.0133 28.4894 21.0098 28.4859C21.0063 28.4825 21.0036 28.4782 21.0017 28.4736C20.9999 28.4689 20.999 28.4639 20.9991 28.4589L21.0017 28.3199C21.0023 28.2858 21.0195 28.2679 21.0533 28.2662C21.3001 28.2545 21.4733 28.1263 21.5732 27.8817C22.0058 26.8248 22.4336 25.7659 22.8564 24.7049C22.9035 24.5882 23.0111 24.5468 23.1792 24.5809C23.2021 24.5855 23.2176 24.5993 23.2256 24.6222C23.5693 25.5853 23.9248 26.5445 24.292 27.4999C24.4615 27.9416 24.5072 28.1923 24.9366 28.2723C24.9596 28.2765 24.9731 28.2905 24.9771 28.3146L24.9943 28.4369C25.0006 28.4797 24.9825 28.5005 24.9401 28.4993C24.4111 28.4794 23.882 28.485 23.353 28.516C23.3474 28.5164 23.3418 28.5156 23.3365 28.5137C23.3312 28.5118 23.3263 28.5088 23.3221 28.505C23.318 28.5011 23.3146 28.4965 23.3122 28.4913C23.3098 28.4861 23.3085 28.4804 23.3083 28.4747L23.3014 28.3392C23.2997 28.3099 23.3123 28.2899 23.3392 28.2794L23.594 28.18C23.6121 28.173 23.6268 28.1591 23.635 28.1414C23.6432 28.1236 23.6442 28.1034 23.6379 28.085L23.3513 27.243C23.3477 27.2328 23.3411 27.2239 23.3323 27.2176C23.3236 27.2113 23.3131 27.2079 23.3022 27.2078ZM22.303 26.8392C22.3008 26.8454 22.3001 26.852 22.3009 26.8585C22.3017 26.865 22.304 26.8712 22.3076 26.8766C22.3113 26.882 22.3161 26.8865 22.3217 26.8896C22.3273 26.8927 22.3336 26.8945 22.34 26.8946L23.1654 26.9034C23.1719 26.9035 23.1782 26.902 23.184 26.899C23.1898 26.896 23.1947 26.8917 23.1985 26.8864C23.2023 26.881 23.2048 26.8748 23.2058 26.8683C23.2068 26.8618 23.2062 26.8551 23.2041 26.8489L22.8031 25.6999C22.8003 25.692 22.7952 25.6852 22.7884 25.6803C22.7817 25.6754 22.7737 25.6728 22.7655 25.6727C22.7573 25.6726 22.7492 25.675 22.7424 25.6797C22.7356 25.6845 22.7303 25.6912 22.7273 25.699L22.303 26.8392Z" fill="#B11B7C"/>
<path d="M17.4532 27.299C17.6736 26.6122 17.8629 25.9122 18.0213 25.199C18.0858 24.9078 17.8319 24.8946 17.6408 24.855C17.6145 24.8493 17.5912 24.8339 17.5755 24.8117C17.5597 24.7895 17.5525 24.7621 17.5552 24.7347C17.558 24.7073 17.5705 24.6819 17.5905 24.6632C17.6104 24.6445 17.6363 24.6338 17.6632 24.6333H18.912C18.9407 24.6333 18.9591 24.6471 18.9671 24.6747C19.0038 24.7925 18.972 24.86 18.8716 24.877C18.4542 24.9474 18.3629 25.3019 18.2261 25.7154C17.922 26.638 17.6299 27.5647 17.3499 28.4955C17.3402 28.5277 17.319 28.545 17.2863 28.5474L17.072 28.5623C17.0375 28.5647 17.0143 28.5494 17.0022 28.5166L16.0667 25.9793C16.0637 25.9713 16.0583 25.9644 16.0514 25.9595C16.0444 25.9547 16.0361 25.9521 16.0277 25.9522C16.0192 25.9523 16.011 25.9551 16.0042 25.9601C15.9973 25.9651 15.9921 25.9721 15.9893 25.9802L15.1252 28.5139C15.1177 28.5356 15.1025 28.5468 15.0795 28.5474L14.8317 28.5491C14.7995 28.5491 14.7789 28.5333 14.7697 28.5016C14.3084 26.8805 13.963 25.76 13.7335 25.14C13.6784 24.9911 13.5484 24.9046 13.3436 24.8805C13.3186 24.8776 13.2954 24.8655 13.2782 24.8462C13.2323 24.7958 13.2202 24.7415 13.242 24.6834C13.2476 24.6687 13.2573 24.6559 13.2699 24.647C13.2825 24.638 13.2974 24.6333 13.3126 24.6333H14.9444C14.9806 24.6333 14.9983 24.6521 14.9978 24.6896L14.9952 24.789C14.9948 24.8034 14.9898 24.8173 14.9811 24.8286C14.9725 24.8398 14.9605 24.8479 14.947 24.8515L14.6922 24.9201C14.6713 24.9257 14.6517 24.9355 14.6345 24.949C14.6174 24.9626 14.6031 24.9795 14.5926 24.9988C14.5821 25.0182 14.5755 25.0395 14.5732 25.0615C14.571 25.0835 14.5731 25.1057 14.5795 25.1268L15.2129 27.2691C15.2149 27.2769 15.2194 27.2839 15.2256 27.2888C15.2319 27.2938 15.2395 27.2966 15.2475 27.2967C15.2554 27.2968 15.2631 27.2942 15.2695 27.2894C15.2758 27.2846 15.2805 27.2777 15.2827 27.27L16.1183 24.7116C16.1258 24.6899 16.1407 24.679 16.1631 24.679L16.3438 24.6764C16.3863 24.6758 16.4153 24.6961 16.4308 24.7371L17.3999 27.3008C17.402 27.3063 17.4058 27.311 17.4107 27.3143C17.4156 27.3175 17.4213 27.3192 17.4271 27.319C17.433 27.3188 17.4386 27.3168 17.4433 27.3132C17.4479 27.3096 17.4514 27.3047 17.4532 27.299Z" fill="#8E1D75"/>
<path d="M28.3121 24.9456C28.2152 24.8917 28.1107 24.8688 27.9989 24.877C27.9673 24.8788 27.9492 24.8638 27.9446 24.8321L27.924 24.6949C27.9182 24.6538 27.9357 24.6333 27.9765 24.6333H30.7056C30.7183 24.6332 30.7306 24.638 30.7402 24.6468C30.7497 24.6556 30.7558 24.6677 30.7573 24.6808C30.771 24.8198 30.9414 25.7005 30.623 25.5667C30.5983 25.5568 30.5834 25.5386 30.5782 25.5122C30.444 24.8233 29.894 24.8955 29.3535 24.8972C29.3189 24.8975 29.2858 24.9116 29.2613 24.9367C29.2368 24.9617 29.2229 24.9956 29.2227 25.031L29.2175 26.348C29.2175 26.3867 29.2362 26.4072 29.2735 26.4095C29.6048 26.4307 30.314 26.5283 30.3476 26.0312C30.3493 25.9996 30.3657 25.9814 30.3966 25.9767L30.512 25.96C30.5539 25.9541 30.5748 25.9726 30.5748 26.0154V27.1098C30.5748 27.1486 30.5559 27.1667 30.518 27.1644L30.3923 27.1565C30.3556 27.1541 30.337 27.1342 30.3364 27.0966C30.333 26.5864 29.5945 26.7095 29.2709 26.7298C29.2302 26.7327 29.2104 26.755 29.2115 26.7966L29.2382 28.0046C29.2385 28.0244 29.2426 28.0439 29.2502 28.062C29.2579 28.0801 29.269 28.0965 29.2829 28.1101C29.4057 28.2315 29.5595 28.2785 29.7443 28.2509C29.7798 28.2456 29.7979 28.2615 29.7985 28.2984L29.8011 28.4497C29.8011 28.4591 29.7974 28.468 29.791 28.4746C29.7845 28.4812 29.7758 28.4849 29.7666 28.4849L27.9825 28.4867C27.9469 28.4867 27.93 28.4685 27.9317 28.4321L27.9377 28.309C27.94 28.2679 27.9613 28.2494 28.0014 28.2535C28.2791 28.2799 28.4186 28.1512 28.4197 27.8673C28.4232 26.9793 28.4243 26.092 28.4232 25.2051C28.4226 25.1659 28.4042 25.1007 28.3681 25.0098C28.3575 24.9826 28.3377 24.9598 28.3121 24.9456Z" fill="#D91883"/>
<path d="M33.8246 24.8694C33.8162 24.87 33.8078 24.8688 33.7999 24.866C33.792 24.8632 33.7847 24.8587 33.7786 24.853C33.7724 24.8472 33.7676 24.8402 33.7642 24.8324C33.7609 24.8246 33.7592 24.8163 33.7592 24.8078V24.689C33.7592 24.6521 33.7773 24.6336 33.8134 24.6336H35.5175C35.5571 24.6336 35.5743 24.6535 35.5692 24.6934L35.5545 24.8227C35.553 24.8368 35.5461 24.8498 35.5353 24.8587C35.5245 24.8676 35.5107 24.8717 35.4969 24.8703C35.2473 24.8439 35.0932 24.9547 35.076 25.223C35.0373 25.8573 34.8058 27.8817 35.7843 28.128C37.3998 28.5354 37.1218 25.9814 37.0047 25.1333C37.0008 25.1075 36.9897 25.0836 36.9729 25.0647C36.8507 24.9304 36.6986 24.8638 36.5168 24.865C36.502 24.8652 36.4874 24.8612 36.4746 24.8535C36.4619 24.8457 36.4514 24.8345 36.4445 24.821C36.3894 24.7119 36.4324 24.6336 36.5529 24.6336C36.9993 24.633 37.4454 24.6333 37.8912 24.6345C37.9257 24.6345 37.9409 24.6518 37.9368 24.6864L37.9213 24.8245C37.9196 24.8393 37.9126 24.8529 37.9016 24.8626C37.8906 24.8724 37.8765 24.8776 37.862 24.8773C36.6803 24.8491 38.3637 28.3735 35.9539 28.5661C33.9193 28.7289 34.2928 26.6782 34.2618 25.3612C34.2541 25.0242 34.1904 24.8456 33.8246 24.8694Z" fill="#B11B7C"/>
</svg>
