<svg width="25" height="24" viewBox="0 0 25 24" fill="none" xmlns="http://www.w3.org/2000/svg">
<path d="M17.5 2V13M22.5 9.8V5.2C22.5 4.07989 22.5 3.51984 22.282 3.09202C22.0903 2.71569 21.7843 2.40973 21.408 2.21799C20.9801 2 20.4201 2 19.3 2H8.618C7.15652 2 6.42578 2 5.83557 2.26743C5.31539 2.50314 4.87329 2.88242 4.56123 3.36072C4.20716 3.90339 4.09605 4.62564 3.87382 6.07012L3.35074 9.47012C3.05764 11.3753 2.91108 12.3279 3.1938 13.0691C3.44193 13.7197 3.90864 14.2637 4.51391 14.6079C5.20352 15 6.16732 15 8.09493 15H8.89999C9.46004 15 9.74007 15 9.95398 15.109C10.1421 15.2049 10.2951 15.3578 10.391 15.546C10.5 15.7599 10.5 16.0399 10.5 16.6V19.5342C10.5 20.896 11.604 22 12.9658 22C13.2907 22 13.585 21.8087 13.7169 21.5119L17.0777 13.9502C17.2305 13.6062 17.307 13.4343 17.4278 13.3082C17.5346 13.1967 17.6657 13.1115 17.8109 13.0592C17.9752 13 18.1634 13 18.5398 13H19.3C20.4201 13 20.9801 13 21.408 12.782C21.7843 12.5903 22.0903 12.2843 22.282 11.908C22.5 11.4802 22.5 10.9201 22.5 9.8Z" stroke="#75247B" stroke-width="2" stroke-linecap="round" stroke-linejoin="round"/>
</svg>
