<svg width="121" height="120" viewBox="0 0 121 120" fill="none" xmlns="http://www.w3.org/2000/svg">
<path d="M60.5677 119C93.3677 119 119.968 92.6 119.968 60C119.968 27.4 93.3677 1 60.5677 1C27.7677 1 1.16766 27.4 1.16766 60C1.16766 92.6 27.7677 119 60.5677 119Z" fill="#F1F3F9" stroke="#D6DCE8" stroke-width="2" stroke-miterlimit="10"/>
<path d="M106.068 52.2999V88.4C106.068 95.9 99.9676 102 92.3676 102H28.9676C21.4676 102 15.3676 96 15.2676 88.5C15.2676 88.4 15.2676 88.4 15.2676 88.3V52.2999C15.2676 52.2 15.2676 52.1999 15.2676 52.0999C15.2676 51.8999 15.2676 51.7 15.3676 51.5C15.4676 51.2 15.5676 51 15.6676 50.7L32.6676 18.2C33.2676 16.9 34.5676 16.2 35.9676 16.2H85.2676C86.6676 16.2 87.8676 16.9 88.5676 18.2L105.568 50.7C105.668 50.9 105.768 51.2 105.868 51.5C106.068 51.7 106.068 52 106.068 52.2999Z" fill="#F1F3F9" stroke="#D6DCE8" stroke-width="2" stroke-miterlimit="10"/>
<path d="M73.6677 52.6H47.9677C46.8677 52.6 45.9677 51.8 45.9677 50.6V15.5C45.9677 14.4 46.7677 13.5 47.9677 13.5H73.5677C74.6677 13.5 75.5677 14.3 75.5677 15.5V50.6C75.5677 51.7 74.7677 52.6 73.6677 52.6Z" fill="white" stroke="#D6DCE8" stroke-width="2" stroke-miterlimit="10"/>
<path d="M82.1677 60.9001H39.4677C38.0677 60.9001 36.9677 59.7001 36.9677 58.4001V24.3C36.9677 22.9 38.1677 21.8 39.4677 21.8H82.1677C83.5677 21.8 84.6677 23 84.6677 24.3V58.4001C84.5677 59.8001 83.5677 60.9001 82.1677 60.9001Z" fill="white" stroke="#D6DCE8" stroke-width="2" stroke-miterlimit="10"/>
<path d="M87.0677 70.6H34.6677C33.1677 70.6 31.8677 69.3 31.8677 67.9V34.3C31.8677 32.8 33.1677 31.6 34.6677 31.6H87.0677C88.5677 31.6 89.8677 32.9 89.8677 34.3V67.8C89.7677 69.4 88.5677 70.6 87.0677 70.6Z" fill="white" stroke="#D6DCE8" stroke-width="2" stroke-miterlimit="10"/>
<path d="M92.3677 80H29.3677C27.6677 80 26.3677 78.6 26.3677 77.1V44C26.3677 42.3 27.7677 41.1 29.3677 41.1H92.3677C94.0677 41.1 95.3677 42.5 95.3677 44V77C95.2677 78.7 94.0677 80 92.3677 80Z" fill="white" stroke="#D6DCE8" stroke-width="2" stroke-miterlimit="10"/>
<path d="M73.4677 54.2001H49.7677C49.1677 54.2001 48.5677 53.7 48.5677 53C48.5677 52.4 49.0677 51.8 49.7677 51.8H73.4677C74.0677 51.8 74.6677 52.3 74.6677 53C74.6677 53.7 74.1677 54.2001 73.4677 54.2001Z" fill="#E6ECF5"/>
<path d="M66.5677 61.2001H36.5677C36.1677 61.2001 35.8677 60.9 35.8677 60.5C35.8677 60.1 36.1677 59.8 36.5677 59.8H66.4677C66.8677 59.8 67.1677 60.1 67.1677 60.5C67.3677 60.7 67.0677 61.2001 66.5677 61.2001Z" fill="#E6ECF5"/>
<path d="M86.2676 61.2001H71.1676C70.7676 61.2001 70.4677 60.9 70.4677 60.5C70.4677 60.1 70.7676 59.8 71.1676 59.8H86.1676C86.5676 59.8 86.8676 60.1 86.8676 60.5C87.0676 60.7 86.7676 61.2001 86.2676 61.2001Z" fill="#E6ECF5"/>
<g filter="url(#filter0_d_3_1024)">
<path d="M100.85 54.1099V88.3359C100.85 93.2038 96.9557 97.0981 91.9993 97.0981H29.336C24.4681 97.0981 20.4852 93.2038 20.4852 88.3359V53.9329C20.4852 53.7559 20.4852 53.5789 20.5737 53.4019H37.7534C40.7627 53.4019 43.2409 55.7916 43.2409 58.8893C43.2409 60.3939 43.8605 61.8101 44.834 62.7836C45.8961 63.8457 47.1352 64.3768 48.7284 64.3768H73.6954C76.7046 64.3768 79.1829 61.9871 79.1829 58.8893C79.1829 57.3847 79.8024 55.9686 80.776 54.995C81.8381 53.9329 83.0772 53.4019 84.5818 53.4019H100.673C100.85 53.5789 100.85 53.8444 100.85 54.1099Z" fill="white"/>
</g>
<path d="M106.068 52.3V92.1C106.068 97.6 101.668 102 96.0676 102H25.2676C19.7676 102 15.2676 97.6 15.2676 92.1V52.1C15.2676 51.9 15.2676 51.7 15.3676 51.5H38.1676C41.5676 51.5 44.3676 54.2 44.3676 57.7C44.3676 59.4 45.0676 61 46.1676 62.1C47.3676 63.3 48.7676 63.9 50.5676 63.9H70.8676C74.2676 63.9 77.0676 61.2 77.0676 57.7C77.0676 56 77.7676 54.4 78.8676 53.3C80.0676 52.1 81.4676 51.5 83.1676 51.5H105.868C106.068 51.7 106.068 52 106.068 52.3Z" fill="white" stroke="#D6DCE8" stroke-width="2" stroke-miterlimit="10"/>
<path d="M96.0677 87.6H75.4677C74.7677 87.6 74.1677 87.1 74.1677 86.3C74.1677 85.6 74.6677 85 75.4677 85H95.8677C96.5677 85 97.1677 85.5 97.1677 86.3C97.2677 86.9 96.6677 87.6 96.0677 87.6Z" fill="#E6ECF5"/>
<path d="M86.8677 93.9H75.4677C74.7677 93.9 74.1677 93.4 74.1677 92.6C74.1677 91.9 74.6677 91.3 75.4677 91.3H86.7677C87.4677 91.3 88.0677 91.8 88.0677 92.6C88.1677 93.2 87.5677 93.9 86.8677 93.9Z" fill="#E6ECF5"/>
<path d="M79.7749 98.1C79.3749 99.8 78.7749 101.6 78.0749 103.1C76.1749 106.8 73.1749 109.7 69.4749 111.6C65.6749 113.5 61.1749 114.3 56.6749 113.3C45.9749 111 39.1749 100.7 41.3749 90.1C43.5749 79.5 53.8749 72.6 64.4749 74.9C68.2749 75.7 71.5749 77.6 74.3749 80.2C79.1749 84.9 81.0749 91.6 79.7749 98.1Z" fill="#D6DCE8" stroke="#AAB2C5" stroke-width="2" stroke-miterlimit="10"/>
<path d="M66.7677 91.3001H63.2677V87.8001C63.2677 86.3867 62.158 85.1001 60.5677 85.1001C59.1542 85.1001 57.8677 86.2097 57.8677 87.8001V91.3001H54.3677C52.9542 91.3001 51.6677 92.4097 51.6677 94.0001C51.6677 94.7396 51.9306 95.4273 52.4356 95.9322C52.9405 96.4372 53.6281 96.7001 54.3677 96.7001H57.8677V100.2C57.8677 101.614 58.9773 102.9 60.5677 102.9C61.9811 102.9 63.2677 101.79 63.2677 100.2V96.7001H66.7677C68.1811 96.7001 69.4677 95.5905 69.4677 94.0001C69.4677 92.4097 68.1811 91.3001 66.7677 91.3001Z" fill="white" stroke="#AAB2C5" stroke-width="2"/>
<defs>
<filter id="filter0_d_3_1024" x="7.48523" y="37.4019" width="106.365" height="69.6963" filterUnits="userSpaceOnUse" color-interpolation-filters="sRGB">
<feFlood flood-opacity="0" result="BackgroundImageFix"/>
<feColorMatrix in="SourceAlpha" type="matrix" values="0 0 0 0 0 0 0 0 0 0 0 0 0 0 0 0 0 0 127 0" result="hardAlpha"/>
<feOffset dy="-3"/>
<feGaussianBlur stdDeviation="6.5"/>
<feColorMatrix type="matrix" values="0 0 0 0 0.397708 0 0 0 0 0.47749 0 0 0 0 0.575 0 0 0 0.27 0"/>
<feBlend mode="normal" in2="BackgroundImageFix" result="effect1_dropShadow_3_1024"/>
<feBlend mode="normal" in="SourceGraphic" in2="effect1_dropShadow_3_1024" result="shape"/>
</filter>
</defs>
</svg>
