<svg width="25" height="24" viewBox="0 0 25 24" fill="none" xmlns="http://www.w3.org/2000/svg">
<path d="M12.5 0C9.23784 0 8.83129 0.015752 7.55463 0.0697587C6.27272 0.132767 5.40561 0.331541 4.64052 0.628579C3.83976 0.930882 3.11457 1.40419 2.5155 2.0155C1.90248 2.61317 1.42891 3.33877 1.12858 4.14052C0.831541 4.90561 0.632767 5.77272 0.569759 7.05463C0.512002 8.33204 0.5 8.73784 0.5 12C0.5 15.2622 0.515752 15.6687 0.569759 16.9454C0.632767 18.2235 0.831541 19.0944 1.12858 19.8595C1.43088 20.6602 1.90419 21.3854 2.5155 21.9845C3.11317 22.5975 3.83877 23.0711 4.64052 23.3714C5.40561 23.6647 6.27647 23.8672 7.55463 23.9302C8.83204 23.988 9.23784 24 12.5 24C15.7622 24 16.1687 23.9842 17.4454 23.9302C18.7235 23.8672 19.5944 23.664 20.3595 23.3714C21.1602 23.0691 21.8854 22.5958 22.4845 21.9845C23.0983 21.3875 23.572 20.6617 23.8714 19.8595C24.1647 19.0944 24.3672 18.2235 24.4302 16.9454C24.488 15.668 24.5 15.2622 24.5 12C24.5 8.73784 24.4842 8.33129 24.4302 7.05463C24.3672 5.77647 24.164 4.90111 23.8714 4.14052C23.5691 3.33976 23.0958 2.61457 22.4845 2.0155C21.8875 1.40169 21.1617 0.928001 20.3595 0.628579C19.5944 0.331541 18.7235 0.132767 17.4454 0.0697587C16.168 0.0120015 15.7622 0 12.5 0ZM12.5 2.16027C15.7037 2.16027 16.0862 2.17602 17.3524 2.23003C18.5203 2.28479 19.1563 2.47981 19.5786 2.64483C20.1007 2.83755 20.5732 3.14428 20.9618 3.54269C21.3595 3.92961 21.6651 4.40106 21.8559 4.92212C22.0209 5.34442 22.216 5.9805 22.2707 7.14839C22.3247 8.41455 22.3405 8.79785 22.3405 12.0007C22.3405 15.2037 22.3247 15.5869 22.2662 16.8531C22.2032 18.021 22.0082 18.6571 21.8439 19.0794C21.6166 19.6427 21.3631 20.0365 20.9446 20.4626C20.5547 20.8585 20.0825 21.1637 19.5614 21.3567C19.1443 21.5217 18.4993 21.7167 17.3269 21.7715C16.0539 21.8255 15.6789 21.8412 12.467 21.8412C9.2551 21.8412 8.8808 21.8255 7.60639 21.767C6.43849 21.704 5.79416 21.5089 5.37186 21.3447C4.80179 21.1174 4.41099 20.8639 3.99244 20.4453C3.57013 20.023 3.3016 19.621 3.09457 19.0621C2.92655 18.6451 2.73453 18 2.67227 16.8276C2.62952 15.5697 2.60926 15.1796 2.60926 11.9827C2.60926 8.78735 2.62952 8.39655 2.67227 7.12289C2.73453 5.95049 2.92655 5.30691 3.09457 4.88836C3.3016 4.31754 3.57088 3.92749 3.99244 3.50519C4.41024 3.08739 4.80179 2.81735 5.37186 2.60583C5.79416 2.44156 6.42274 2.24653 7.59514 2.18802C8.86805 2.14227 9.24309 2.12577 12.4505 2.12577L12.5 2.16027ZM12.5 5.84098C11.6909 5.84068 10.8897 5.99983 10.1421 6.30932C9.39456 6.61881 8.71531 7.07258 8.1432 7.6447C7.57108 8.21681 7.11731 8.89606 6.80782 9.64362C6.49833 10.3912 6.33918 11.1924 6.33948 12.0015C6.33918 12.8106 6.49833 13.6118 6.80782 14.3594C7.11731 15.1069 7.57108 15.7862 8.1432 16.3583C8.71531 16.9304 9.39456 17.3842 10.1421 17.6937C10.8897 18.0032 11.6909 18.1623 12.5 18.162C13.3091 18.1623 14.1103 18.0032 14.8579 17.6937C15.6054 17.3842 16.2847 16.9304 16.8568 16.3583C17.4289 15.7862 17.8827 15.1069 18.1922 14.3594C18.5017 13.6118 18.6608 12.8106 18.6605 12.0015C18.6608 11.1924 18.5017 10.3912 18.1922 9.64362C17.8827 8.89606 17.4289 8.21681 16.8568 7.6447C16.2847 7.07258 15.6054 6.61881 14.8579 6.30932C14.1103 5.99983 13.3091 5.84068 12.5 5.84098ZM12.5 16.0018C10.2887 16.0018 8.49975 14.2128 8.49975 12.0015C8.49975 9.79022 10.2887 8.00125 12.5 8.00125C14.7113 8.00125 16.5002 9.79022 16.5002 12.0015C16.5002 14.2128 14.7113 16.0018 12.5 16.0018ZM20.349 5.59495C20.3486 5.97725 20.1964 6.34375 19.926 6.61393C19.6555 6.88412 19.2888 7.03588 18.9066 7.03588C18.7175 7.03588 18.5303 6.99865 18.3557 6.92631C18.1811 6.85397 18.0224 6.74794 17.8887 6.61428C17.7551 6.48062 17.649 6.32194 17.5767 6.1473C17.5044 5.97266 17.4671 5.78548 17.4671 5.59645C17.4671 5.40742 17.5044 5.22024 17.5767 5.0456C17.649 4.87096 17.7551 4.71228 17.8887 4.57862C18.0224 4.44496 18.1811 4.33893 18.3557 4.26659C18.5303 4.19425 18.7175 4.15702 18.9066 4.15702C19.6994 4.15702 20.349 4.8021 20.349 5.59495Z" fill="url(#paint0_linear_273_1603)"/>
<defs>
<linearGradient id="paint0_linear_273_1603" x1="22" y1="1" x2="3" y2="22.5" gradientUnits="userSpaceOnUse">
<stop stop-color="#C837AB"/>
<stop offset="0.479167" stop-color="#EE513F"/>
<stop offset="1" stop-color="#F6D655"/>
</linearGradient>
</defs>
</svg>
