<svg width="25" height="24" viewBox="0 0 25 24" fill="none" xmlns="http://www.w3.org/2000/svg">
<path fill-rule="evenodd" clip-rule="evenodd" d="M0.5 2.00509C0.5 1.47331 0.71125 0.963308 1.08728 0.58728C1.46331 0.211253 1.97331 2.67307e-06 2.50509 2.67307e-06H22.4927C22.7563 -0.000427747 23.0173 0.0511258 23.2609 0.151712C23.5045 0.252298 23.7258 0.399941 23.9123 0.586188C24.0987 0.772435 24.2466 0.993628 24.3475 1.2371C24.4483 1.48058 24.5001 1.74156 24.5 2.00509V21.9927C24.5003 22.2563 24.4486 22.5174 24.3479 22.761C24.2472 23.0046 24.0994 23.2259 23.9131 23.4123C23.7268 23.5988 23.5055 23.7466 23.262 23.8475C23.0184 23.9483 22.7574 24.0001 22.4938 24H2.50509C2.24169 24 1.98086 23.9481 1.73752 23.8473C1.49418 23.7464 1.2731 23.5986 1.08689 23.4123C0.900688 23.226 0.753017 23.0049 0.652316 22.7615C0.551614 22.5181 0.499857 22.2572 0.5 21.9938V2.00509ZM9.99964 9.15055H13.2495V10.7825C13.7185 9.84437 14.9185 9 16.7218 9C20.1789 9 20.9982 10.8687 20.9982 14.2975V20.6487H17.4996V15.0785C17.4996 13.1258 17.0305 12.024 15.8393 12.024C14.1865 12.024 13.4993 13.212 13.4993 15.0785V20.6487H9.99964V9.15055ZM3.99964 20.4993H7.49927V9H3.99964V20.4982V20.4993ZM8 5.24946C8.0066 5.5491 7.95328 5.84704 7.84317 6.1258C7.73306 6.40456 7.56838 6.65851 7.3588 6.87276C7.14921 7.08702 6.89894 7.25725 6.62268 7.37346C6.34641 7.48968 6.04972 7.54955 5.75 7.54955C5.45028 7.54955 5.15359 7.48968 4.87732 7.37346C4.60106 7.25725 4.35079 7.08702 4.1412 6.87276C3.93162 6.65851 3.76694 6.40456 3.65683 6.1258C3.54672 5.84704 3.4934 5.5491 3.5 5.24946C3.51295 4.6613 3.75569 4.10159 4.17624 3.69021C4.59678 3.27882 5.1617 3.04846 5.75 3.04846C6.3383 3.04846 6.90322 3.27882 7.32376 3.69021C7.74431 4.10159 7.98705 4.6613 8 5.24946Z" fill="#0077B5"/>
</svg>
