<svg width="25" height="24" viewBox="0 0 25 24" fill="none" xmlns="http://www.w3.org/2000/svg">
<path d="M7.89137 2.46863C8.06432 2.29568 8.1508 2.2092 8.25172 2.14736C8.34119 2.09253 8.43873 2.05213 8.54077 2.02763C8.65586 2 8.77815 2 9.02274 2H15.9773C16.2218 2 16.3441 2 16.4592 2.02763C16.5613 2.05213 16.6588 2.09253 16.7483 2.14736C16.8492 2.2092 16.9357 2.29568 17.1086 2.46863L22.0314 7.39137C22.2043 7.56432 22.2908 7.6508 22.3526 7.75172C22.4075 7.84119 22.4479 7.93873 22.4724 8.04077C22.5 8.15586 22.5 8.27815 22.5 8.52274V15.4773C22.5 15.7218 22.5 15.8441 22.4724 15.9592C22.4479 16.0613 22.4075 16.1588 22.3526 16.2483C22.2908 16.3492 22.2043 16.4357 22.0314 16.6086L17.1086 21.5314C16.9357 21.7043 16.8492 21.7908 16.7483 21.8526C16.6588 21.9075 16.5613 21.9479 16.4592 21.9724C16.3441 22 16.2218 22 15.9773 22H9.02274C8.77815 22 8.65586 22 8.54077 21.9724C8.43873 21.9479 8.34119 21.9075 8.25172 21.8526C8.1508 21.7908 8.06432 21.7043 7.89137 21.5314L2.96863 16.6086C2.79568 16.4357 2.7092 16.3492 2.64736 16.2483C2.59253 16.1588 2.55213 16.0613 2.52763 15.9592C2.5 15.8441 2.5 15.7218 2.5 15.4773V8.52274C2.5 8.27815 2.5 8.15586 2.52763 8.04077C2.55213 7.93873 2.59253 7.84119 2.64736 7.75172C2.7092 7.6508 2.79568 7.56432 2.96863 7.39137L7.89137 2.46863Z" stroke="#75247B" stroke-width="2" stroke-linecap="round" stroke-linejoin="round"/>
<path fill-rule="evenodd" clip-rule="evenodd" d="M12.4966 9.06791C11.4969 7.8992 9.82987 7.58482 8.57735 8.65501C7.32482 9.72519 7.14848 11.5145 8.1321 12.7802C8.76211 13.5909 10.3756 15.0942 11.4542 16.0704C11.8127 16.3947 11.9919 16.5569 12.2066 16.622C12.3911 16.6779 12.602 16.6779 12.7866 16.622C13.0012 16.5569 13.1805 16.3947 13.5389 16.0704C14.6176 15.0942 16.231 13.5909 16.8611 12.7802C17.8447 11.5145 17.6899 9.71393 16.4158 8.65501C15.1417 7.59608 13.4963 7.8992 12.4966 9.06791Z" stroke="#75247B" stroke-width="2" stroke-linecap="round" stroke-linejoin="round"/>
</svg>
