<svg width="159" height="158" viewBox="0 0 159 158" fill="none" xmlns="http://www.w3.org/2000/svg">
<g clip-path="url(#clip0_3_1062)">
<path d="M15.6942 133.101L14.3027 127.629C11.8354 126.587 9.3112 125.684 6.74196 124.925L6.56632 127.468L5.854 124.666C2.66769 123.758 0.5 123.359 0.5 123.359C0.5 123.359 3.4273 134.46 9.56914 142.946L16.7249 144.2L11.1658 144.999C11.9384 145.926 12.7686 146.803 13.6517 147.626C22.5853 155.894 32.5358 159.687 35.8765 156.098C39.2173 152.51 34.6833 142.899 25.7497 134.632C22.9802 132.069 19.5012 130.012 16.0186 128.393L15.6942 133.101Z" fill="#F2F2F2"/>
<path d="M28.9278 127.158L30.5734 121.757C29.002 119.593 27.3094 117.519 25.5037 115.545L24.0349 117.631L24.8775 114.866C22.6203 112.447 20.9719 110.988 20.9719 110.988C20.9719 110.988 17.7232 122 18.5802 132.43L24.0561 137.191L18.882 135.01C19.0631 136.202 19.3191 137.381 19.6486 138.54C23.0099 150.222 29.5614 158.597 34.2816 157.247C39.0017 155.897 40.1035 145.333 36.7422 133.651C35.7003 130.03 33.7882 126.476 31.6464 123.296L28.9278 127.158Z" fill="#F2F2F2"/>
<path d="M110.752 37.4303H109.884V13.7222C109.884 11.9201 109.528 10.1358 108.836 8.47092C108.144 6.80607 107.13 5.29335 105.852 4.01913C104.574 2.74491 103.057 1.73414 101.387 1.04454C99.7175 0.354933 97.9277 0 96.1203 0H45.7394C42.0892 0 38.5885 1.44572 36.0074 4.01913C33.4263 6.59253 31.9762 10.0828 31.9762 13.7222V143.789C31.9762 145.591 32.3322 147.375 33.0239 149.04C33.7155 150.705 34.7293 152.218 36.0074 153.492C37.2854 154.766 38.8026 155.777 40.4725 156.467C42.1423 157.156 43.932 157.511 45.7394 157.511H96.1203C99.7705 157.511 103.271 156.065 105.852 153.492C108.433 150.919 109.883 147.428 109.883 143.789V54.3062H110.751L110.752 37.4303Z" fill="#E6E6E6"/>
<path d="M96.6757 3.56873H90.0998C90.4023 4.30801 90.5177 5.11011 90.436 5.90436C90.3542 6.69861 90.0778 7.46062 89.6311 8.12327C89.1844 8.78591 88.5811 9.32885 87.8743 9.70425C87.1675 10.0796 86.379 10.276 85.5782 10.2759H56.7156C55.9148 10.2759 55.1263 10.0795 54.4196 9.7041C53.7129 9.32867 53.1096 8.78573 52.663 8.12309C52.2163 7.46045 51.9399 6.69847 51.8582 5.90425C51.7765 5.11004 51.8919 4.30798 52.1944 3.56873H46.0521C43.3261 3.56873 40.7118 4.64838 38.7843 6.57017C36.8567 8.49197 35.7739 11.0985 35.7739 13.8163V143.694C35.7739 146.412 36.8567 149.019 38.7843 150.94C40.7118 152.862 43.3261 153.942 46.0521 153.942H96.6757C99.4016 153.942 102.016 152.862 103.943 150.94C105.871 149.019 106.954 146.412 106.954 143.694V13.8161C106.954 11.0983 105.871 8.49185 103.943 6.5701C102.016 4.64835 99.4016 3.56873 96.6757 3.56873Z" fill="white"/>
<path d="M64.9131 55.3055C64.9129 54.3977 65.1526 53.5058 65.6081 52.7197C66.0635 51.9336 66.7186 51.2809 67.5074 50.8274C66.7189 50.3734 65.8245 50.1344 64.9141 50.1343C64.0036 50.1342 63.1091 50.373 62.3206 50.8269C61.5321 51.2807 60.8773 51.9335 60.422 52.7196C59.9667 53.5057 59.7271 54.3975 59.7271 55.3052C59.7271 56.213 59.9667 57.1048 60.422 57.8909C60.8773 58.677 61.5321 59.3298 62.3206 59.7836C63.1091 60.2374 64.0036 60.4763 64.9141 60.4762C65.8245 60.4761 66.7189 60.237 67.5074 59.783C66.7186 59.3296 66.0635 58.6771 65.6081 57.8911C65.1527 57.1051 64.913 56.2133 64.9131 55.3055Z" fill="#CCCCCC"/>
<path d="M71.4332 55.3055C71.433 54.3977 71.6726 53.5058 72.1281 52.7197C72.5835 51.9336 73.2386 51.2809 74.0274 50.8274C73.239 50.3734 72.3446 50.1344 71.4341 50.1343C70.5236 50.1342 69.6292 50.373 68.8407 50.8269C68.0521 51.2807 67.3973 51.9335 66.9421 52.7196C66.4868 53.5057 66.2471 54.3975 66.2471 55.3052C66.2471 56.213 66.4868 57.1048 66.9421 57.8909C67.3973 58.677 68.0521 59.3298 68.8407 59.7836C69.6292 60.2374 70.5236 60.4763 71.4341 60.4762C72.3446 60.4761 73.239 60.237 74.0274 59.783C73.2387 59.3296 72.5836 58.6771 72.1282 57.8911C71.6727 57.1051 71.433 56.2133 71.4332 55.3055Z" fill="#CCCCCC"/>
<path d="M77.8051 60.4763C80.6695 60.4763 82.9916 58.1612 82.9916 55.3054C82.9916 52.4495 80.6695 50.1344 77.8051 50.1344C74.9408 50.1344 72.6187 52.4495 72.6187 55.3054C72.6187 58.1612 74.9408 60.4763 77.8051 60.4763Z" fill="#75247B"/>
<path d="M86.4729 71.4563H56.2453C55.9575 71.4559 55.6816 71.3418 55.4781 71.1389C55.2747 70.9361 55.1602 70.661 55.1599 70.3741V40.2366C55.1602 39.9497 55.2747 39.6746 55.4781 39.4718C55.6816 39.2689 55.9575 39.1548 56.2453 39.1544H86.4729C86.7607 39.1548 87.0366 39.2689 87.2401 39.4718C87.4436 39.6746 87.558 39.9497 87.5584 40.2366V70.3741C87.558 70.661 87.4436 70.9361 87.2401 71.1389C87.0366 71.3418 86.7607 71.4559 86.4729 71.4563ZM56.2453 39.5876C56.0726 39.5877 55.9071 39.6562 55.785 39.7779C55.6629 39.8996 55.5942 40.0647 55.5941 40.2368V70.3743C55.5942 70.5464 55.6629 70.7115 55.785 70.8332C55.9071 70.9549 56.0726 71.0234 56.2453 71.0236H86.4729C86.6456 71.0234 86.8111 70.9549 86.9332 70.8332C87.0553 70.7115 87.124 70.5464 87.1242 70.3743V40.2368C87.124 40.0647 87.0553 39.8996 86.9332 39.7779C86.8111 39.6562 86.6456 39.5877 86.4729 39.5876H56.2453Z" fill="#CCCCCC"/>
<path d="M93.2223 94.558H46.8622V94.9909H93.2223V94.558Z" fill="#CCCCCC"/>
<path d="M48.3263 91.8552C49.1349 91.8552 49.7904 91.2017 49.7904 90.3955C49.7904 89.5893 49.1349 88.9358 48.3263 88.9358C47.5177 88.9358 46.8622 89.5893 46.8622 90.3955C46.8622 91.2017 47.5177 91.8552 48.3263 91.8552Z" fill="#75247B"/>
<path d="M93.2223 109.154H46.8622V109.587H93.2223V109.154Z" fill="#CCCCCC"/>
<path d="M48.3263 106.452C49.1349 106.452 49.7904 105.798 49.7904 104.992C49.7904 104.186 49.1349 103.532 48.3263 103.532C47.5177 103.532 46.8622 104.186 46.8622 104.992C46.8622 105.798 47.5177 106.452 48.3263 106.452Z" fill="#75247B"/>
<path d="M92.3739 125.776H77.7229C77.4698 125.776 77.2271 125.675 77.0482 125.497C76.8692 125.318 76.7686 125.076 76.7683 124.824V119.704C76.7686 119.452 76.8692 119.21 77.0482 119.032C77.2271 118.853 77.4698 118.753 77.7229 118.753H92.3739C92.627 118.753 92.8696 118.853 93.0486 119.032C93.2275 119.21 93.3282 119.452 93.3285 119.704V124.824C93.3282 125.076 93.2275 125.318 93.0486 125.497C92.8696 125.675 92.627 125.776 92.3739 125.776Z" fill="#75247B"/>
<path d="M53.102 91.8552C53.9106 91.8552 54.5661 91.2017 54.5661 90.3955C54.5661 89.5893 53.9106 88.9358 53.102 88.9358C52.2935 88.9358 51.638 89.5893 51.638 90.3955C51.638 91.2017 52.2935 91.8552 53.102 91.8552Z" fill="#75247B"/>
<path d="M57.8778 91.8552C58.6864 91.8552 59.3419 91.2017 59.3419 90.3955C59.3419 89.5893 58.6864 88.9358 57.8778 88.9358C57.0692 88.9358 56.4137 89.5893 56.4137 90.3955C56.4137 91.2017 57.0692 91.8552 57.8778 91.8552Z" fill="#75247B"/>
<path d="M53.102 106.452C53.9106 106.452 54.5661 105.798 54.5661 104.992C54.5661 104.186 53.9106 103.532 53.102 103.532C52.2935 103.532 51.638 104.186 51.638 104.992C51.638 105.798 52.2935 106.452 53.102 106.452Z" fill="#75247B"/>
<path d="M57.8778 106.452C58.6864 106.452 59.3419 105.798 59.3419 104.992C59.3419 104.186 58.6864 103.532 57.8778 103.532C57.0692 103.532 56.4137 104.186 56.4137 104.992C56.4137 105.798 57.0692 106.452 57.8778 106.452Z" fill="#75247B"/>
<path d="M157.91 158H5.60794C5.28191 158 5.01781 157.885 5.01781 157.742C5.01781 157.6 5.28191 157.485 5.60794 157.485H157.91C158.236 157.485 158.5 157.6 158.5 157.742C158.5 157.885 158.236 158 157.91 158Z" fill="#3F3D56"/>
<path d="M120.281 103.517C120.385 103.564 120.486 103.62 120.581 103.683L130.095 99.6345L130.434 97.1357L134.236 97.1125L134.011 102.844L121.454 106.155C121.427 106.242 121.396 106.327 121.359 106.41C121.177 106.796 120.885 107.121 120.52 107.342C120.154 107.563 119.731 107.672 119.303 107.654C118.876 107.637 118.463 107.493 118.117 107.243C117.771 106.992 117.507 106.645 117.358 106.245C117.209 105.845 117.182 105.41 117.28 104.995C117.378 104.58 117.597 104.203 117.909 103.911C118.222 103.62 118.614 103.427 119.036 103.357C119.458 103.286 119.891 103.342 120.281 103.517Z" fill="#FFB8B8"/>
<path d="M135.619 155.45H133.018L131.781 145.449L135.619 145.449L135.619 155.45Z" fill="#FFB8B8"/>
<path d="M131.16 154.709H136.176V157.858H128.003C128.003 157.023 128.335 156.222 128.927 155.632C129.52 155.041 130.323 154.709 131.16 154.709Z" fill="#2F2E41"/>
<path d="M145.733 154.718L143.145 154.972L140.93 145.14L144.749 144.765L145.733 154.718Z" fill="#FFB8B8"/>
<path d="M141.223 154.416L146.214 153.926L146.524 157.059L138.39 157.858C138.349 157.447 138.39 157.031 138.511 156.635C138.631 156.24 138.829 155.872 139.092 155.552C139.355 155.232 139.678 154.968 140.044 154.773C140.41 154.578 140.81 154.457 141.223 154.416Z" fill="#2F2E41"/>
<path d="M136.343 86.5283C139.22 86.5283 141.552 84.2026 141.552 81.3338C141.552 78.465 139.22 76.1394 136.343 76.1394C133.465 76.1394 131.133 78.465 131.133 81.3338C131.133 84.2026 133.465 86.5283 136.343 86.5283Z" fill="#FFB8B8"/>
<path d="M132.437 153.428C132.213 153.428 131.997 153.35 131.826 153.207C131.654 153.064 131.539 152.865 131.5 152.646C130.154 145.196 125.754 120.836 125.649 120.162C125.647 120.146 125.646 120.13 125.646 120.115V118.299C125.646 118.232 125.666 118.168 125.705 118.114L126.286 117.302C126.314 117.263 126.35 117.231 126.392 117.208C126.434 117.185 126.481 117.172 126.529 117.17C129.843 117.015 140.695 116.561 141.22 117.214C141.746 117.871 141.56 119.86 141.518 120.252L141.52 120.292L146.395 151.381C146.434 151.628 146.372 151.881 146.225 152.085C146.077 152.288 145.856 152.425 145.607 152.466L142.562 152.967C142.335 153.003 142.103 152.957 141.907 152.837C141.712 152.717 141.566 152.531 141.496 152.313C140.554 149.312 137.396 139.218 136.301 135.312C136.294 135.287 136.279 135.265 136.257 135.251C136.236 135.237 136.21 135.231 136.184 135.235C136.159 135.239 136.136 135.251 136.119 135.271C136.102 135.29 136.093 135.315 136.093 135.341C136.148 139.064 136.28 148.564 136.326 151.845L136.331 152.198C136.333 152.438 136.245 152.669 136.084 152.847C135.923 153.024 135.701 153.135 135.463 153.158L132.526 153.424C132.496 153.426 132.466 153.428 132.437 153.428Z" fill="#2F2E41"/>
<path d="M133.036 88.5708C132.127 89.1096 131.583 90.0999 131.271 91.1076C130.693 92.9732 130.345 94.9021 130.234 96.8516L129.904 102.689L125.82 118.164C129.36 121.15 131.402 120.471 136.168 118.028C140.933 115.586 141.477 118.843 141.477 118.843L142.43 105.676L143.792 91.2876C143.486 90.9207 143.14 90.5891 142.761 90.2991C141.502 89.3234 140.038 88.6453 138.479 88.3157C136.919 87.9862 135.305 88.0139 133.758 88.3966L133.036 88.5708Z" fill="#75247B"/>
<path d="M131.709 106.642C131.819 106.683 131.926 106.733 132.028 106.791L141.435 102.096L141.591 99.553L145.472 99.2863L145.68 105.084L133.108 109.229C133.005 109.668 132.771 110.065 132.436 110.368C132.102 110.671 131.682 110.865 131.234 110.925C130.786 110.985 130.33 110.907 129.928 110.702C129.525 110.497 129.194 110.175 128.98 109.778C128.765 109.381 128.677 108.929 128.727 108.481C128.776 108.033 128.962 107.61 129.258 107.27C129.554 106.93 129.948 106.687 130.385 106.575C130.823 106.463 131.285 106.486 131.709 106.642Z" fill="#FFB8B8"/>
<path d="M143.724 91.3535C146.038 92.1679 146.446 100.992 146.446 100.992C143.723 99.4987 140.455 101.942 140.455 101.942C140.455 101.942 139.775 99.6345 138.958 96.6481C138.711 95.8081 138.682 94.9195 138.872 94.065C139.062 93.2106 139.467 92.4181 140.047 91.7613C140.047 91.7613 141.409 90.5385 143.724 91.3535Z" fill="#75247B"/>
<path d="M141.014 82.7076C140.365 82.1898 139.479 83.1309 139.479 83.1309L138.96 78.471C138.96 78.471 135.714 78.8587 133.637 78.3417C131.56 77.8247 131.235 80.2187 131.235 80.2187C131.128 79.2517 131.106 78.2771 131.17 77.3063C131.3 76.1413 132.988 74.9763 135.974 74.1996C138.96 73.4229 140.518 76.7885 140.518 76.7885C142.595 77.8239 141.663 83.2254 141.014 82.7076Z" fill="#2F2E41"/>
</g>
<defs>
<clipPath id="clip0_3_1062">
<rect width="158" height="158" fill="white" transform="translate(0.5)"/>
</clipPath>
</defs>
</svg>
