<svg width="214" height="100" viewBox="0 0 214 100" fill="none" xmlns="http://www.w3.org/2000/svg">
<path d="M194.199 19.5161L197.248 16.4575" stroke="#4F55A8" stroke-width="2"/>
<path d="M206.332 16.4839C205.18 17.3441 204.179 18.3773 203.329 19.5836" stroke="#4F55A8" stroke-width="2"/>
<path d="M71.1609 54.2581L70.4709 65.8153" stroke="#8E2E8A" stroke-width="2"/>
<path d="M35.8567 78C35.806 77.8905 35.9727 77.7996 36.3566 77.7273C36.5145 77.698 36.5583 77.611 36.4882 77.4663L36.4268 77.3343C36.4166 77.3118 36.4148 77.2865 36.4218 77.2632C36.4288 77.2399 36.4442 77.2203 36.4648 77.2082L36.5583 77.1525C36.6344 77.1075 36.6285 77.0763 36.5408 77.0587C36.3712 77.0254 36.2251 76.9482 36.1023 76.827" stroke="#3553A7" stroke-width="2"/>
<path d="M65.4074 27.8593C65.5419 27.5992 65.5731 27.3363 65.501 27.0704" stroke="#3553A7" stroke-width="2"/>
<path d="M103.208 25.2053C103.181 25.0293 103.11 24.9453 102.995 24.9531C102.979 24.9542 102.964 24.9504 102.951 24.9423C102.938 24.9341 102.928 24.922 102.922 24.9077C102.916 24.8934 102.915 24.8776 102.918 24.8626C102.922 24.8475 102.93 24.8341 102.942 24.8241C103.192 24.6031 103.222 24.4418 103.033 24.3402" stroke="#C51A80" stroke-width="2"/>
<path d="M192.156 68.7625L190.41 68.8358C190.323 68.8397 190.318 68.8602 190.396 68.8974L191.03 69.2053C191.044 69.2122 191.057 69.223 191.065 69.2364C191.074 69.2497 191.079 69.2653 191.08 69.2812C191.08 69.2972 191.077 69.3131 191.069 69.3271C191.061 69.3411 191.05 69.3527 191.036 69.3607C190.818 69.4858 190.675 69.6735 190.609 69.9238" stroke="#822178" stroke-width="2"/>
<path d="M161.678 69.868L161.237 69.783C161.13 69.7635 161.092 69.7009 161.123 69.5953C161.259 69.1515 161.204 68.8661 160.956 68.739" stroke="#A01C79" stroke-width="2"/>
<path d="M161.471 24.9472C161.515 24.6442 161.622 24.3773 161.789 24.1466C161.844 24.0723 161.917 24.0372 162.008 24.0411C162.355 24.0587 162.702 24.0577 163.049 24.0381C163.283 24.0244 163.283 24.0039 163.049 23.9766L162.313 23.8944" stroke="#A01C79" stroke-width="2"/>
<path d="M128.818 5.43696C131.873 5.21702 133.811 7.69209 133.814 10.5777C133.826 30.3197 133.828 50.0577 133.82 69.7918C133.82 69.8315 133.804 69.8695 133.777 69.8976C133.749 69.9256 133.711 69.9414 133.671 69.9414H128.888C128.821 69.9414 128.756 69.9142 128.708 69.8658C128.661 69.8174 128.634 69.7517 128.634 69.6833V5.63344C128.634 5.5833 128.653 5.53503 128.687 5.4985C128.721 5.46197 128.768 5.43995 128.818 5.43696Z" fill="#B11B7C"/>
<path d="M32.9332 15.6334C34.9972 12.5807 38.7012 15.9766 37.1927 19.0675C36.3546 20.7859 34.8773 22.043 32.7607 22.8387C32.6785 22.8706 32.587 22.8685 32.5064 22.8329C30.3079 21.8534 27.4575 19.5953 27.9603 16.7918C28.4105 14.2991 30.954 13.8505 32.6145 15.6598C32.6351 15.6825 32.6606 15.7001 32.6891 15.7113C32.7177 15.7225 32.7484 15.727 32.7791 15.7245C32.8098 15.722 32.8397 15.7124 32.8663 15.6967C32.893 15.6809 32.9159 15.6593 32.9332 15.6334Z" fill="#754894"/>
<path d="M104.287 15.8182C105.037 15.3216 105.839 15.5024 106.693 16.3607C106.707 16.3751 106.724 16.3865 106.743 16.3943C106.761 16.402 106.781 16.406 106.801 16.406C106.821 16.406 106.841 16.402 106.86 16.3943C106.878 16.3865 106.895 16.3751 106.909 16.3607C108.213 15.0528 109.988 15.4428 110.391 17.2639C110.836 19.2727 108.552 21.1877 106.889 21.8006C106.802 21.8327 106.707 21.8306 106.623 21.7947C104.746 20.9707 101.293 17.8064 104.287 15.8182Z" fill="#754894"/>
<path d="M194.199 19.5161L197.248 16.4575C198.766 14.6012 201.145 15.9443 200.841 18.0792C200.596 19.8123 198.926 21.1789 197.357 21.8094C197.253 21.8524 197.152 21.8505 197.052 21.8035C195.85 21.2444 194.899 20.4819 194.199 19.5161Z" fill="#754894"/>
<path d="M206.332 16.4839C205.18 17.3441 204.179 18.3773 203.329 19.5836C201.745 17.0704 204.122 13.912 206.332 16.4839Z" fill="#2861BC"/>
<path d="M203.329 19.5836C204.179 18.3773 205.18 17.3441 206.332 16.4839C207.308 15.2903 208.752 15.1848 209.618 16.5337C210.992 18.6833 208.323 21.0733 206.457 21.8123C206.368 21.8475 206.28 21.8456 206.194 21.8065C205.033 21.2962 204.078 20.5552 203.329 19.5836Z" fill="#754894"/>
<path d="M197.248 16.4575L194.199 19.5161C192.685 17.1232 194.813 14.0528 197.248 16.4575Z" fill="#2861BC"/>
<path d="M47.3782 16.739C48.7172 18.6481 46.2906 20.7038 44.6944 21.4516C44.5892 21.5005 44.482 21.5005 44.3728 21.4516C43.028 20.8504 41.4347 19.5865 41.3178 18.0235C41.1921 16.2962 43.1947 15.0645 44.4167 16.6745C44.4309 16.6928 44.4491 16.7076 44.4699 16.7177C44.4906 16.7279 44.5134 16.7332 44.5365 16.7332C44.5597 16.7332 44.5825 16.7279 44.6032 16.7177C44.624 16.7076 44.6422 16.6928 44.6564 16.6745C45.4691 15.61 46.6298 15.6745 47.3782 16.739Z" fill="#754894"/>
<path d="M71.1609 54.2581L70.4709 65.8152C67.8836 75.4164 61.1508 78.0704 51.9418 78C46.5947 77.9589 41.233 78.0176 35.8567 78C35.806 77.8905 35.9727 77.7996 36.3566 77.7273C36.5145 77.6979 36.5583 77.6109 36.4882 77.4663L36.4268 77.3343C36.4166 77.3118 36.4148 77.2865 36.4218 77.2632C36.4288 77.2399 36.4442 77.2203 36.4648 77.2082L36.5583 77.1525C36.6344 77.1075 36.6285 77.0762 36.5408 77.0586C36.3712 77.0254 36.2251 76.9482 36.1023 76.827C41.9278 76.8328 47.7514 76.8358 53.5731 76.8358C54.4833 76.8358 55.5143 76.6842 56.6662 76.3812C65.0741 74.1759 65.5302 65.0997 65.5448 58.0088C65.5663 48.0655 65.5682 38.1212 65.5507 28.1759C65.5507 28.1095 65.5322 28.0479 65.4951 27.9912L65.4074 27.8592C65.5419 27.5992 65.5731 27.3363 65.501 27.0704L65.5419 24.1085C65.5422 24.0609 65.5521 24.0138 65.571 23.9701C65.5899 23.9264 65.6173 23.887 65.6517 23.8542C65.686 23.8213 65.7266 23.7958 65.7711 23.779C65.8155 23.7622 65.8628 23.7546 65.9103 23.7566C69.9154 23.9267 71.1199 27.2258 71.1229 30.7009C71.1287 37.9892 71.1482 45.2776 71.1813 52.566C71.1833 53.1974 71.1764 53.7615 71.1609 54.2581Z" fill="#424491"/>
<path d="M65.501 27.0704C65.5731 27.3363 65.5419 27.5992 65.4074 27.8592C62.8406 25.6012 59.7475 24.4643 56.1282 24.4487C48.7025 24.4193 44.633 30.3578 43.4081 36.9677C42.1422 43.8006 43.0017 56.3636 50.3134 60.0117C54.0876 61.8944 58.8091 61.1789 61.5893 57.8885C62.9984 56.2189 63.9564 54.2727 64.4631 52.0498C64.4923 51.9189 64.5742 51.8582 64.7087 51.868L64.9601 51.8856C65.0634 51.8934 65.1053 51.9482 65.0858 52.0498C63.6621 59.173 58.4436 62.4193 51.4477 61.4809C42.6801 60.305 39.2246 52.3666 38.7246 44.3695C38.0142 32.9413 44.9283 23.0968 57.2304 23.8592C60.4443 24.0606 63.2011 25.131 65.501 27.0704Z" fill="#2861BC"/>
<path d="M70.4709 65.8152L71.1608 54.2581C71.3382 56.2796 71.6929 58.2786 72.225 60.2551C73.3827 64.5601 75.892 67.2405 79.753 68.2962C80.862 68.5992 82.6794 68.7566 85.2053 68.7683C92.7596 68.8035 99.3161 68.7957 104.875 68.7449C114.622 68.6569 116.928 59.7449 116.934 51.9707C116.942 44.1329 116.943 36.2981 116.937 28.4663C116.937 28.3425 116.888 28.2233 116.8 28.1349C113.309 24.6393 107.807 23.7654 103.208 25.2053C103.181 25.0293 103.11 24.9453 102.995 24.9531C102.979 24.9542 102.964 24.9504 102.951 24.9423C102.938 24.9341 102.928 24.922 102.922 24.9077C102.916 24.8934 102.915 24.8776 102.918 24.8626C102.922 24.8475 102.93 24.8341 102.942 24.824C103.192 24.6031 103.222 24.4418 103.033 24.3402C107.874 23.2053 112.803 23.8915 116.893 27.1789C116.897 27.1821 116.901 27.1841 116.906 27.1846C116.911 27.1851 116.916 27.184 116.921 27.1816C116.925 27.1791 116.929 27.1754 116.932 27.1708C116.935 27.1662 116.937 27.1608 116.937 27.1554L116.94 24.1173C116.94 23.9081 117.044 23.8104 117.253 23.824C121.05 24.0762 122.334 27.1847 122.34 30.563C122.355 37.4076 122.358 44.2532 122.348 51.0997C122.345 54.7947 121.904 58.9883 120.229 62.1408C117.191 67.8563 111.28 69.8035 105.079 69.8534C95.3732 69.9316 88.12 69.9589 83.3197 69.9355C78.5924 69.915 74.1808 68.8827 70.4709 65.8152Z" fill="#D91883"/>
<path d="M192.156 68.7625L190.41 68.8358C190.323 68.8397 190.318 68.8602 190.396 68.8974L191.03 69.2053C191.044 69.2122 191.057 69.223 191.065 69.2363C191.074 69.2497 191.079 69.2652 191.08 69.2812C191.08 69.2972 191.076 69.3131 191.069 69.3271C191.061 69.3411 191.05 69.3527 191.036 69.3607C190.818 69.4858 190.675 69.6735 190.609 69.9238L185.499 69.9267C185.394 69.9267 185.335 69.9795 185.323 70.0851C184.3 79.2141 178.339 84.5513 169.104 84.6745C164.736 84.7351 160.366 84.7625 155.995 84.7566C155.88 84.7566 155.822 84.6989 155.822 84.5836V83.8299C155.822 83.6989 155.888 83.6344 156.018 83.6364C159.905 83.6696 163.784 83.6706 167.657 83.6393C175.831 83.5719 179.269 77.3402 179.804 70.1026C179.812 69.9971 179.763 69.9443 179.658 69.9443C177.74 69.9414 162.12 70.2434 161.678 69.868L161.237 69.783C161.13 69.7635 161.092 69.7009 161.123 69.5953C161.259 69.1515 161.204 68.8661 160.956 68.739L179.836 68.7566C179.883 68.7566 179.927 68.7381 179.96 68.7051C179.993 68.6721 180.011 68.6273 180.011 68.5807C180.021 61.8671 180.018 55.1183 180.003 48.3343C179.997 45.7498 179.918 43.7967 179.766 42.4751C178.547 31.9179 172.989 24.2727 161.471 24.9472C161.515 24.6442 161.622 24.3773 161.789 24.1466C161.844 24.0723 161.917 24.0371 162.008 24.0411C162.355 24.0587 162.702 24.0577 163.049 24.0381C163.283 24.0244 163.283 24.0039 163.049 23.9765L162.313 23.8944C174.229 23.4809 183.312 29.651 185.054 41.8944C185.228 43.1261 185.328 45.0782 185.356 47.7507C185.424 54.695 185.446 61.6413 185.423 68.5895C185.423 68.697 185.477 68.7517 185.587 68.7537L192.156 68.7625Z" fill="#8E1D75"/>
<path d="M190.609 69.9238C190.675 69.6735 190.818 69.4858 191.036 69.3607C191.05 69.3527 191.061 69.3411 191.069 69.3271C191.077 69.3131 191.08 69.2972 191.08 69.2812C191.079 69.2652 191.074 69.2497 191.065 69.2363C191.057 69.223 191.044 69.2122 191.03 69.2053L190.396 68.8974C190.318 68.8602 190.323 68.8397 190.41 68.8358L192.156 68.7625C203.882 69.4663 206.007 60.3607 206.022 50.9853C206.037 41.9922 206.04 33.0244 206.031 24.0821C206.03 24.0528 206.036 24.0238 206.046 23.9966C206.057 23.9694 206.073 23.9446 206.094 23.9237C206.114 23.9027 206.138 23.8859 206.165 23.8744C206.192 23.8628 206.221 23.8567 206.25 23.8563C209.618 23.8123 211.34 26.6716 211.351 29.7126C211.383 36.9619 211.396 44.2131 211.392 51.4663C211.39 55.2356 210.746 58.651 209.46 61.7126C206.346 69.1232 197.693 70.2111 190.609 69.9238Z" fill="#75247B"/>
<path d="M162.313 23.8944L163.049 23.9766C163.283 24.0039 163.283 24.0245 163.049 24.0381C162.702 24.0577 162.355 24.0587 162.009 24.0411C161.917 24.0372 161.844 24.0723 161.789 24.1466C161.622 24.3773 161.515 24.6442 161.471 24.9472C145.643 25.7038 144.412 42.6745 146.037 54.3812C147.236 63.0117 152.159 68.2815 160.956 68.739C161.204 68.8661 161.259 69.1515 161.123 69.5953C161.092 69.7009 161.13 69.7635 161.237 69.783L161.678 69.868C150.63 69.8094 142.719 64.5865 140.723 53.437C137.928 37.8358 144.719 23.7742 162.313 23.8944Z" fill="#B11B7C"/>
<path d="M103.033 24.3402C103.222 24.4418 103.192 24.6031 102.942 24.8241C102.93 24.8341 102.922 24.8475 102.918 24.8626C102.915 24.8776 102.916 24.8934 102.922 24.9077C102.928 24.922 102.938 24.9341 102.951 24.9423C102.964 24.9504 102.979 24.9542 102.995 24.9531C103.11 24.9453 103.181 25.0293 103.208 25.2053C94.1454 28.827 93.2917 40.8944 94.7915 49.1232C95.8936 55.173 99.3112 61.1378 106.187 61.1408C111.292 61.1437 114.762 56.9032 115.797 52.2317C115.826 52.0968 116.013 51.8974 116.121 51.9414C116.193 51.971 116.253 52.0244 116.29 52.0927C116.327 52.161 116.34 52.2401 116.326 52.3167C115.79 55.1222 114.466 57.4829 112.353 59.3988C108.181 63.1848 100.618 62.1965 96.5047 59.0323C89.4941 53.6334 88.3452 40.8094 92.0025 33.3548C94.1776 28.9296 98.1126 25.5132 103.033 24.3402Z" fill="#B11B7C"/>
<path d="M36.1023 76.827C36.2251 76.9482 36.3712 77.0254 36.5408 77.0586C36.6285 77.0762 36.6343 77.1075 36.5583 77.1525L36.4648 77.2082C36.4441 77.2203 36.4288 77.2399 36.4218 77.2632C36.4148 77.2865 36.4166 77.3118 36.4268 77.3343L36.4882 77.4663C36.5583 77.6109 36.5145 77.6979 36.3566 77.7273C35.9727 77.7996 35.806 77.8905 35.8567 78C32.5034 78.0117 29.083 78.1525 25.7268 77.7419C15.8541 76.5396 8.38167 69.0792 6.51648 59.3842C5.57803 54.5073 5.79145 49.2727 7.70634 44.6803C9.84342 39.5601 14.3865 34.2493 19.8125 32.5249C25.0895 30.8475 31.2171 32.2023 34.3745 37.1496C34.9036 37.9795 34.9796 40.0029 34.2722 40.9179C31.9626 43.9003 27.7849 38.6158 31.8924 37.0176C31.9801 36.9844 32.0708 36.9658 32.1643 36.9619L32.5444 36.9413C32.7217 36.9316 32.7549 36.8573 32.6438 36.7185C29.0976 32.2669 22.3238 32.0616 17.769 34.6979C16.3326 35.5288 14.8328 36.7664 13.2698 38.4106C9.68749 42.1779 7.70829 46.7546 7.33213 52.1408C6.71527 60.9325 10.7994 70.4399 18.9092 74.4985C24.2943 77.1906 30.0185 76.9179 36.1023 76.827Z" fill="#2861BC"/>
<path d="M11.1941 83.1701C11.1746 86.3353 11.1648 89.5024 11.1648 92.6715C11.1648 93.8191 11.7573 94.3138 12.9423 94.1554C13.0417 94.1417 13.1021 94.1847 13.1236 94.2844L13.223 94.7448C13.2503 94.8739 13.1986 94.9384 13.068 94.9384L6.73281 94.9472C6.62366 94.9472 6.57201 94.8925 6.57786 94.783L6.59833 94.3255C6.60612 94.1808 6.68116 94.1212 6.82344 94.1466C8.23256 94.4047 8.48106 93.5924 8.48106 92.3929C8.47911 89.3118 8.47813 86.2346 8.47813 83.1613C8.47813 83.0655 8.43038 83.0146 8.33488 83.0088C6.07502 82.8446 5.15704 83.0938 4.60742 85.4135C4.58599 85.5093 4.52557 85.5572 4.42617 85.5572H3.97887C3.86193 85.5572 3.80834 85.4985 3.81808 85.3812C3.91553 84.1945 3.98667 83.0058 4.0315 81.8152C4.03407 81.7612 4.05231 81.7091 4.08396 81.6652C4.11561 81.6214 4.15925 81.5879 4.20945 81.5688C4.25965 81.5497 4.31418 81.546 4.36623 81.558C4.41829 81.57 4.46557 81.5972 4.50218 81.6363C4.77699 81.9267 5.06057 82.1085 5.4874 82.1085C8.38556 82.1104 11.2827 82.0977 14.179 82.0704C14.5044 82.0664 14.8221 81.9335 15.132 81.6715C15.1747 81.6354 15.2265 81.6118 15.2817 81.6032C15.337 81.5947 15.3934 81.6016 15.4446 81.6232C15.4959 81.6448 15.5401 81.6803 15.5721 81.7256C15.6041 81.7709 15.6228 81.8243 15.6261 81.8797L15.8307 85.2053C15.8406 85.3052 15.8116 85.4051 15.7499 85.4841C15.6882 85.5632 15.5985 85.6153 15.4994 85.6296C15.4003 85.644 15.2996 85.6195 15.2181 85.5612C15.1366 85.5029 15.0806 85.4153 15.0618 85.3167C14.9098 84.6539 14.6409 84.0381 14.255 83.4692C14.2023 83.3929 14.1322 83.3382 14.0445 83.305C13.1713 82.9804 12.2621 82.8876 11.3169 83.0264C11.235 83.0381 11.1941 83.086 11.1941 83.1701Z" fill="#75247B"/>
<path d="M148.344 94.9941L152.63 97.6891C152.695 97.7302 152.744 97.7909 152.772 97.8624C152.799 97.934 152.803 98.0125 152.783 98.0864C152.763 98.1603 152.719 98.2257 152.659 98.273C152.599 98.3202 152.525 98.3469 152.449 98.349C149.546 98.4223 147.756 97.4575 145.538 95.7009C145.214 95.4448 144.858 95.2766 144.47 95.1965C134.899 93.1759 138.115 80.1378 147.309 81.9824C154.1 83.3431 154.63 92.1935 148.365 94.7566C148.342 94.7661 148.323 94.7817 148.308 94.8015C148.294 94.8214 148.285 94.8447 148.283 94.8692C148.281 94.8936 148.286 94.9181 148.296 94.9402C148.307 94.9622 148.324 94.9808 148.344 94.9941ZM147.105 93.956C147.358 94.2102 147.613 94.2307 147.871 94.0176C150.487 91.8416 150.291 85.3226 147.537 83.3167C145.152 81.5806 142.711 83.3196 142.038 85.8006C141.246 88.7273 141.746 93.0586 145.011 94.3255C145.1 94.3596 145.198 94.3617 145.289 94.3314C145.8 94.1652 146.315 94.0156 146.836 93.8827C146.883 93.8701 146.932 93.8703 146.979 93.8832C147.027 93.896 147.07 93.9211 147.105 93.956Z" fill="#424491"/>
<path d="M31.6118 90.695L28.0013 90.6862C27.8824 90.6862 27.8015 90.7419 27.7586 90.8534C27.4604 91.6334 26.0425 94.3871 28.048 94.176C28.0739 94.1731 28.1 94.1754 28.1249 94.1828C28.1498 94.1902 28.1729 94.2024 28.1928 94.2189C28.2128 94.2353 28.2291 94.2556 28.2409 94.2784C28.2527 94.3013 28.2597 94.3263 28.2615 94.3519L28.2907 94.7595C28.3004 94.8866 28.242 94.9492 28.1153 94.9472C26.8153 94.9296 25.5202 94.9365 24.23 94.9677C23.771 94.9765 23.5839 94.7859 23.8324 94.346C23.8539 94.3072 23.8846 94.2743 23.9218 94.2503C23.9591 94.2262 24.0016 94.2118 24.0458 94.2082C25.0076 94.132 25.4461 93.654 25.8203 92.7478C27.2645 89.2444 28.7078 85.7419 30.15 82.2405C30.1929 82.1349 30.2689 82.0694 30.3781 82.044L31.1031 81.8739C31.2142 81.8465 31.2892 81.8866 31.3282 81.9941C33.4429 87.8182 34.8608 91.5699 35.5819 93.2493C35.8314 93.8319 36.3683 94.1486 37.1927 94.1994C37.296 94.2053 37.3477 94.26 37.3477 94.3636V94.7713C37.3477 94.8944 37.2863 94.955 37.1635 94.9531C35.3568 94.9238 33.5501 94.9316 31.7433 94.9765C31.64 94.9785 31.5884 94.9277 31.5884 94.824V94.39C31.5884 94.2727 31.6469 94.2121 31.7638 94.2082C32.1536 94.1945 32.4635 94.0508 32.6935 93.7771C32.7519 93.7048 32.7675 93.6256 32.7403 93.5396C32.4421 92.6051 32.1068 91.6843 31.7346 90.7771C31.7112 90.7224 31.6703 90.695 31.6118 90.695ZM28.2176 89.4604C28.2095 89.4813 28.2066 89.5039 28.2092 89.5262C28.2118 89.5485 28.2198 89.5699 28.2325 89.5883C28.2452 89.6068 28.2621 89.622 28.282 89.6324C28.3018 89.6428 28.3239 89.6482 28.3462 89.6481L31.1469 89.6774C31.1692 89.6778 31.1912 89.6728 31.2111 89.6627C31.231 89.6527 31.2482 89.6379 31.2611 89.6197C31.2741 89.6015 31.2824 89.5805 31.2854 89.5583C31.2885 89.5362 31.2861 89.5137 31.2785 89.4927L29.9162 85.6598C29.9066 85.6335 29.8893 85.6106 29.8665 85.5944C29.8437 85.5782 29.8165 85.5693 29.7885 85.569C29.7606 85.5686 29.7332 85.5769 29.71 85.5926C29.6868 85.6083 29.669 85.6307 29.6589 85.6569L28.2176 89.4604Z" fill="#8E1D75"/>
<path d="M79.1537 90.6921H75.5081C75.4524 90.6922 75.3982 90.7101 75.3535 90.7434C75.3088 90.7767 75.2759 90.8234 75.2596 90.8768L74.4527 93.5044C74.4215 93.608 74.4449 93.6979 74.5229 93.7742C74.8152 94.0596 75.1816 94.2014 75.6221 94.1994C75.7098 94.1994 75.7605 94.2434 75.7741 94.3314L75.8414 94.8182C75.8589 94.9433 75.8043 95.002 75.6777 94.9941C74.2705 94.914 72.8633 94.911 71.4561 94.9853C71.4398 94.9866 71.4234 94.9843 71.408 94.9786C71.3926 94.973 71.3785 94.964 71.3667 94.9524C71.3549 94.9408 71.3455 94.9268 71.3393 94.9112C71.333 94.8957 71.33 94.879 71.3304 94.8622L71.3392 94.3988C71.3411 94.2854 71.3996 94.2258 71.5146 94.2199C72.3527 94.1808 72.9413 93.7537 73.2804 92.9384C74.7499 89.4154 76.2029 85.8856 77.6393 82.349C77.7991 81.9599 78.1646 81.8221 78.7356 81.9355C78.8136 81.9511 78.8662 81.9971 78.8935 82.0733C80.061 85.2835 81.2684 88.4809 82.5157 91.6657C83.0917 93.1378 83.2466 93.9736 84.7054 94.2405C84.7834 94.2541 84.8292 94.3011 84.8428 94.3812L84.9013 94.7889C84.9227 94.9316 84.8613 95.001 84.7171 94.9971C82.9201 94.9306 81.1232 94.9492 79.3262 95.0528C79.3071 95.054 79.288 95.0513 79.27 95.045C79.252 95.0387 79.2354 95.0288 79.2213 95.016C79.2071 95.0031 79.1956 94.9876 79.1875 94.9702C79.1795 94.9529 79.1749 94.9341 79.1742 94.915L79.1508 94.4633C79.1449 94.3656 79.1878 94.2991 79.2794 94.2639L80.1448 93.9325C80.2061 93.9092 80.2561 93.863 80.2839 93.8039C80.3118 93.7447 80.3154 93.6772 80.2939 93.6158L79.3203 90.8094C79.3083 90.7752 79.2858 90.7456 79.256 90.7246C79.2261 90.7036 79.1904 90.6922 79.1537 90.6921ZM75.7595 89.4633C75.7521 89.4839 75.7496 89.5059 75.7524 89.5276C75.7551 89.5492 75.7629 89.57 75.7752 89.588C75.7875 89.6061 75.8039 89.6209 75.823 89.6314C75.8421 89.6418 75.8635 89.6475 75.8852 89.6481L78.6889 89.6774C78.7108 89.6776 78.7324 89.6726 78.752 89.6627C78.7716 89.6528 78.7885 89.6384 78.8014 89.6206C78.8143 89.6028 78.8227 89.5821 78.826 89.5604C78.8293 89.5387 78.8274 89.5164 78.8204 89.4956L77.4581 85.6657C77.4485 85.6393 77.4312 85.6165 77.4084 85.6002C77.3856 85.584 77.3584 85.5751 77.3304 85.5748C77.3025 85.5745 77.2751 85.5828 77.2519 85.5985C77.2288 85.6142 77.2109 85.6366 77.2008 85.6628L75.7595 89.4633Z" fill="#B11B7C"/>
<path d="M59.2856 90.9971C60.034 88.7077 60.6772 86.3744 61.2151 83.9971C61.4344 83.0264 60.5719 82.9824 59.9229 82.8505C59.8335 82.8314 59.7544 82.78 59.7008 82.7061C59.6472 82.6322 59.6227 82.5408 59.6321 82.4495C59.6415 82.3582 59.6841 82.2733 59.7517 82.211C59.8194 82.1486 59.9074 82.1132 59.9989 82.1115H64.2409C64.3384 82.1115 64.4008 82.1574 64.428 82.2493C64.5528 82.6422 64.4446 82.8671 64.1035 82.9238C62.6856 83.1584 62.3757 84.3402 61.9109 85.7185C60.8779 88.7938 59.8859 91.8827 58.9348 94.9854C58.9017 95.0929 58.8295 95.1505 58.7185 95.1584L57.9905 95.2082C57.8736 95.216 57.7946 95.1652 57.7537 95.0557L54.5759 86.5983C54.5656 86.5714 54.5474 86.5484 54.5237 86.5322C54.5 86.5161 54.4719 86.5076 54.4433 86.5079C54.4146 86.5082 54.3868 86.5173 54.3634 86.534C54.3401 86.5507 54.3224 86.5741 54.3127 86.6012L51.3775 95.0469C51.3522 95.1193 51.3006 95.1564 51.2226 95.1584L50.3806 95.1642C50.2715 95.1642 50.2013 95.1115 50.1701 95.0059C48.6031 89.6022 47.4299 85.8671 46.6503 83.8006C46.4632 83.304 46.0217 83.0157 45.3259 82.9355C45.2412 82.9259 45.1622 82.8853 45.1037 82.8211C44.9478 82.653 44.9069 82.4722 44.9809 82.2786C44.9999 82.2293 45.0329 82.1869 45.0757 82.157C45.1185 82.1272 45.1691 82.1113 45.2207 82.1115H50.7636C50.8864 82.1115 50.9468 82.174 50.9449 82.2991L50.9361 82.6305C50.9346 82.6786 50.9179 82.7248 50.8884 82.7624C50.8589 82.7999 50.8182 82.8267 50.7724 82.8387L49.907 83.0675C49.8359 83.086 49.7692 83.1188 49.711 83.1639C49.6528 83.209 49.6044 83.2654 49.5686 83.3299C49.5328 83.3943 49.5104 83.4653 49.5027 83.5387C49.4951 83.612 49.5023 83.6862 49.524 83.7566L51.6757 90.8974C51.6825 90.9235 51.6977 90.9466 51.7189 90.9633C51.7401 90.9799 51.7661 90.9891 51.793 90.9894C51.8199 90.9897 51.8462 90.9812 51.8678 90.9651C51.8894 90.949 51.9051 90.9262 51.9125 90.9003L54.7513 82.3725C54.7766 82.3001 54.8273 82.2639 54.9033 82.2639L55.5172 82.2551C55.6614 82.2532 55.7599 82.3206 55.8125 82.4575L59.1044 91.0029C59.1117 91.0214 59.1246 91.0371 59.1411 91.048C59.1577 91.0589 59.1772 91.0643 59.197 91.0637C59.2168 91.0631 59.2359 91.0563 59.2518 91.0444C59.2676 91.0325 59.2794 91.016 59.2856 90.9971Z" fill="#8E1D75"/>
<path d="M96.1713 83.1525C95.842 82.9726 95.4873 82.8964 95.1072 82.9238C95 82.9296 94.9386 82.8798 94.923 82.7742L94.8529 82.3167C94.8334 82.1799 94.8928 82.1115 95.0312 82.1115H104.302C104.345 82.1112 104.387 82.1273 104.419 82.1565C104.451 82.1857 104.472 82.2261 104.477 82.2698C104.524 82.7332 105.103 85.6686 104.021 85.2229C103.937 85.1896 103.886 85.129 103.869 85.0411C103.413 82.7449 101.545 82.9854 99.7088 82.9912C99.5912 82.992 99.4786 83.0392 99.3954 83.1226C99.3122 83.2061 99.2652 83.319 99.2644 83.437L99.2469 87.827C99.2469 87.956 99.3102 88.0245 99.4369 88.0323C100.562 88.1027 102.971 88.4282 103.085 86.7713C103.091 86.6657 103.147 86.6051 103.252 86.5895L103.644 86.5337C103.786 86.5142 103.857 86.5758 103.857 86.7185V90.3666C103.857 90.4956 103.793 90.5562 103.664 90.5484L103.237 90.522C103.113 90.5142 103.049 90.4477 103.047 90.3226C103.036 88.6217 100.527 89.0323 99.4281 89.0997C99.2897 89.1095 99.2225 89.1838 99.2264 89.3226L99.317 93.349C99.3179 93.415 99.3318 93.48 99.3579 93.5404C99.384 93.6009 99.4218 93.6554 99.469 93.7009C99.8861 94.1056 100.408 94.262 101.036 94.1701C101.157 94.1525 101.218 94.2053 101.22 94.3285L101.229 94.8329C101.229 94.864 101.217 94.8938 101.195 94.9158C101.173 94.9378 101.143 94.9502 101.112 94.9502L95.0516 94.956C94.9308 94.956 94.8733 94.8954 94.8792 94.7742L94.8996 94.3637C94.9074 94.2268 94.9795 94.1652 95.116 94.1789C96.0593 94.2669 96.5329 93.8378 96.5368 92.8915C96.5485 89.9316 96.5524 86.9736 96.5485 84.0176C96.5465 83.8866 96.4842 83.6696 96.3614 83.3666C96.3254 83.2756 96.2582 83.1999 96.1713 83.1525Z" fill="#D91883"/>
<path d="M114.896 82.8974C114.868 82.8994 114.839 82.8956 114.812 82.8862C114.785 82.8768 114.761 82.8619 114.74 82.8427C114.719 82.8234 114.703 82.8001 114.691 82.7742C114.68 82.7483 114.674 82.7203 114.674 82.6921V82.2962C114.674 82.173 114.736 82.1115 114.858 82.1115H120.647C120.781 82.1115 120.84 82.1779 120.822 82.3109L120.773 82.7419C120.767 82.789 120.744 82.832 120.707 82.8617C120.671 82.8914 120.624 82.9052 120.577 82.9003C119.729 82.8123 119.206 83.1818 119.147 84.0763C119.016 86.1906 118.229 92.9384 121.553 93.7595C127.041 95.1173 126.096 86.6041 125.699 83.7771C125.685 83.691 125.648 83.6115 125.591 83.5484C125.175 83.1007 124.659 82.8788 124.041 82.8827C123.991 82.8835 123.941 82.8703 123.898 82.8444C123.855 82.8185 123.819 82.781 123.796 82.7361C123.608 82.3724 123.755 82.1115 124.164 82.1115C125.68 82.1095 127.196 82.1105 128.71 82.1144C128.827 82.1144 128.878 82.1721 128.865 82.2874L128.812 82.7478C128.806 82.7971 128.783 82.8424 128.745 82.8749C128.708 82.9074 128.66 82.9248 128.611 82.9238C124.597 82.8299 130.315 94.5777 122.129 95.22C115.218 95.7625 116.487 88.9267 116.382 84.5367C116.355 83.4135 116.139 82.8182 114.896 82.8974Z" fill="#B11B7C"/>
</svg>
