<svg width="157" height="128" viewBox="0 0 157 128" fill="none" xmlns="http://www.w3.org/2000/svg">
<path d="M122.806 24.4043H19.1357C16.855 24.4043 14.8507 26.4086 14.8507 28.6893V100.015C14.8507 102.295 16.855 101.466 19.1357 101.466H122.53C124.81 101.466 126.815 102.295 126.815 100.015V28.6893C127.091 26.4086 125.087 24.4043 122.806 24.4043Z" fill="#D5DDEA"/>
<path d="M140.154 97.457V99.7378C140.154 102.295 137.873 104.576 135.316 104.576H6.6952C4.13799 104.576 1.85724 102.295 1.85724 99.7378V97.457H140.154Z" fill="#D5DDEA"/>
<path d="M84.2407 97.457V98.2864C84.2407 99.7378 83.1349 101.12 81.4071 101.12H60.3274C58.876 101.12 57.4937 100.014 57.4937 98.2864V97.457H84.2407Z" fill="#E9EFF8"/>
<g filter="url(#filter0_d_202_1805)">
<path d="M114.72 33.7343V90.2692C114.582 92.6191 112.716 94.5543 110.297 94.5543H26.5309C24.0428 94.5543 22.1076 92.6191 22.1076 90.2692V33.7343C22.1076 31.3844 24.0428 29.4492 26.5309 29.4492H110.366C112.854 29.4492 114.72 31.3844 114.72 33.7343Z" fill="url(#paint0_linear_202_1805)"/>
</g>
<path d="M27.1529 35.9453C27.9823 35.9453 28.6734 35.2542 28.6734 34.4248C28.6734 33.5954 27.9823 32.9043 27.1529 32.9043C26.3236 32.9043 25.6324 33.5954 25.6324 34.4248C25.6324 35.2542 26.3236 35.9453 27.1529 35.9453Z" fill="#D6DCE8"/>
<path d="M31.6453 35.9453C32.4746 35.9453 33.1658 35.2542 33.1658 34.4248C33.1658 33.5954 32.4746 32.9043 31.6453 32.9043C30.8159 32.9043 30.1248 33.5954 30.1248 34.4248C30.1248 35.2542 30.8159 35.9453 31.6453 35.9453Z" fill="#D6DCE8"/>
<path d="M36.2759 35.9453C37.1053 35.9453 37.7964 35.2542 37.7964 34.4248C37.7964 33.5954 37.1053 32.9043 36.2759 32.9043C35.4466 32.9043 34.7554 33.5954 34.7554 34.4248C34.7554 35.2542 35.4466 35.9453 36.2759 35.9453Z" fill="#F1F3F9"/>
<g filter="url(#filter1_d_202_1805)">
<path d="M124.258 24.2655V80.8005C124.258 80.8696 124.258 81.0078 124.258 81.0769C124.05 83.3577 122.184 85.0855 119.903 85.0855H36.0685C33.5804 85.0855 31.6453 83.1503 31.6453 80.8005V24.2655C31.6453 21.9157 33.5804 19.9805 36.0685 19.9805H119.903C122.391 19.9805 124.258 21.8465 124.258 24.2655Z" fill="url(#paint1_linear_202_1805)"/>
</g>
<path d="M36.6906 26.4765C37.52 26.4765 38.2111 25.7854 38.2111 24.956C38.2111 24.1267 37.52 23.4355 36.6906 23.4355C35.8612 23.4355 35.1701 24.1267 35.1701 24.956C35.1701 25.7854 35.8612 26.4765 36.6906 26.4765Z" fill="#D6DCE8"/>
<path d="M41.183 26.4765C42.0124 26.4765 42.7035 25.7854 42.7035 24.956C42.7035 24.1267 42.0124 23.4355 41.183 23.4355C40.3537 23.4355 39.6625 24.1267 39.6625 24.956C39.6625 25.7854 40.3537 26.4765 41.183 26.4765Z" fill="#D6DCE8"/>
<path d="M45.8137 26.4765C46.643 26.4765 47.3342 25.7854 47.3342 24.956C47.3342 24.1267 46.643 23.4355 45.8137 23.4355C44.9843 23.4355 44.2932 24.1267 44.2932 24.956C44.2932 25.7854 44.9843 26.4765 45.8137 26.4765Z" fill="#F1F3F9"/>
<g filter="url(#filter2_d_202_1805)">
<path d="M134.072 72.6452C133.933 74.9951 132.067 76.9303 129.648 76.9303H45.8826C43.3945 76.9303 41.4593 74.9951 41.4593 72.6452V16.1102C41.4593 13.7604 43.3945 11.8252 45.8826 11.8252H129.717C132.206 11.8252 134.141 13.7604 134.141 16.1102V72.6452H134.072Z" fill="url(#paint2_linear_202_1805)"/>
</g>
<path d="M46.5047 18.3914C47.3341 18.3914 48.0252 17.7002 48.0252 16.8709C48.0252 16.0415 47.3341 15.2812 46.5047 15.2812C45.6753 15.2812 44.9842 15.9724 44.9842 16.8018C44.9842 17.6311 45.6753 18.3914 46.5047 18.3914Z" fill="#AAB2C5"/>
<path d="M50.997 18.3914C51.8264 18.3914 52.5175 17.7002 52.5175 16.8709C52.5175 16.0415 51.8264 15.2812 50.997 15.2812C50.1676 15.2812 49.4765 15.9724 49.4765 16.8018C49.4765 17.6311 50.1676 18.3914 50.997 18.3914Z" fill="#AAB2C5"/>
<path d="M55.6275 18.3914C56.4569 18.3914 57.148 17.7002 57.148 16.8709C57.148 16.0415 56.4569 15.2812 55.6275 15.2812C54.7981 15.2812 54.107 15.9724 54.107 16.8018C54.107 17.6311 54.729 18.3914 55.6275 18.3914Z" fill="#AAB2C5"/>
<path d="M81.6673 37.3285C81.6673 38.9991 80.3131 40.3533 78.6425 40.3533C76.972 40.3533 75.6177 38.9991 75.6177 37.3285C75.6177 35.658 76.972 34.3037 78.6425 34.3037C80.3131 34.3037 81.6673 35.658 81.6673 37.3285Z" fill="#AAB2C5" stroke="white"/>
<path d="M98.5311 37.3285C98.5311 38.9991 97.1769 40.3533 95.5063 40.3533C93.8358 40.3533 92.4815 38.9991 92.4815 37.3285C92.4815 35.658 93.8358 34.3037 95.5063 34.3037C97.1769 34.3037 98.5311 35.658 98.5311 37.3285Z" fill="#AAB2C5" stroke="white"/>
<path d="M94.4695 55.4359H79.6792C77.3293 55.4359 76.0162 52.8096 77.3985 50.8744C78.4352 49.423 79.7483 48.2481 81.2688 47.3496C82.9967 46.382 85.001 45.8291 87.0744 45.8291C89.5625 45.8291 91.8432 46.5894 93.7784 47.9025C94.9533 48.7319 95.99 49.6995 96.8194 50.8744C98.1325 52.8096 96.8194 55.4359 94.4695 55.4359Z" fill="#D6DCE8" stroke="#D6DCE8" stroke-width="1.7035" stroke-miterlimit="10"/>
<path d="M92.2578 55.4361H81.9599C81.8907 55.2979 81.8907 55.1596 81.9599 55.0214C82.7201 52.8789 84.7244 51.3584 87.1434 51.3584C89.5624 51.3584 91.5666 52.8789 92.3269 55.0214C92.3269 55.1596 92.3269 55.2979 92.2578 55.4361Z" fill="#AAB2C5"/>
<path d="M93.7784 48.5939V49.1468C93.7784 49.5615 93.4328 49.838 93.0873 49.838H82.0291C81.6144 49.838 81.338 49.4924 81.338 49.1468V48.041C83.0658 47.0734 85.0701 46.5205 87.1435 46.5205C89.5625 46.5205 91.8432 47.2808 93.7784 48.5939Z" fill="white"/>
<path d="M61.295 36.2877C61.295 37.6723 60.2199 38.78 58.876 38.78C57.5321 38.78 56.457 37.6723 56.457 36.2877C56.457 35.2354 57.9084 32.0786 58.5535 30.694C58.661 30.4171 59.0373 30.4171 59.1985 30.694C59.8436 32.0232 61.295 35.1801 61.295 36.2877Z" fill="#D6DCE8"/>
<path d="M147.065 23.3676C148.171 24.4043 148.309 26.1321 147.272 27.3071C146.236 28.4129 144.508 28.5511 143.333 27.5144C142.434 26.7542 140.914 23.1603 140.292 21.5706C140.154 21.2942 140.43 20.9486 140.776 21.0177C142.434 21.4324 146.167 22.5382 147.065 23.3676Z" fill="#D6DCE8"/>
<path d="M146.65 35.6007C147.48 36.9139 147.134 38.5726 145.821 39.402C144.508 40.2313 142.849 39.8858 142.02 38.5726C141.398 37.605 140.845 33.7346 140.637 32.0068C140.568 31.6612 140.983 31.4539 141.259 31.5921C142.711 32.4906 146.028 34.564 146.65 35.6007Z" fill="#D6DCE8"/>
<path d="M55.7659 42.5074C55.7659 43.892 54.6908 44.9997 53.3469 44.9997C52.003 44.9997 50.9279 43.892 50.9279 42.5074C50.9279 41.4552 52.3793 38.2983 53.0244 36.9137C53.1319 36.6368 53.5082 36.6368 53.6694 36.9137C54.3145 38.2983 55.7659 41.4552 55.7659 42.5074Z" fill="#D6DCE8"/>
<path d="M122.806 55.4355H137.458C138.357 55.4355 139.186 55.7811 139.808 56.4031L150.175 66.7702C150.797 67.3922 151.143 68.2216 151.143 69.1201V83.703C151.143 84.6015 150.797 85.4309 150.175 86.0529L139.946 96.2817C139.324 96.9037 138.495 97.2493 137.597 97.2493H122.806C121.908 97.2493 121.078 96.9037 120.456 96.2817L109.951 85.7764C109.329 85.1544 108.983 84.3251 108.983 83.4266V69.1201C108.983 68.2216 109.329 67.3922 109.951 66.7702L120.387 56.4031C121.078 55.7811 121.908 55.4355 122.806 55.4355Z" fill="url(#paint3_linear_202_1805)"/>
<path d="M132.551 63.7591V70.6949C132.551 71.1573 132.551 71.6197 132.482 72.1482L131.722 77.1023C131.653 77.4987 131.307 77.8289 130.823 77.8289H129.303C128.888 77.8289 128.473 77.4987 128.404 77.1023L127.644 72.1482C127.575 71.6858 127.575 71.2234 127.575 70.6949V63.7591C127.575 63.2967 127.99 62.9004 128.473 62.9004H131.722C132.137 62.9664 132.551 63.2967 132.551 63.7591Z" fill="white"/>
<path d="M131.722 88.2647H128.335C127.782 88.2647 127.299 87.7809 127.299 87.228V83.8414C127.299 83.2885 127.782 82.8047 128.335 82.8047H131.722C132.275 82.8047 132.758 83.2885 132.758 83.8414V87.228C132.758 87.7809 132.275 88.2647 131.722 88.2647Z" fill="white"/>
<defs>
<filter id="filter0_d_202_1805" x="0.107605" y="18.4492" width="136.612" height="109.105" filterUnits="userSpaceOnUse" color-interpolation-filters="sRGB">
<feFlood flood-opacity="0" result="BackgroundImageFix"/>
<feColorMatrix in="SourceAlpha" type="matrix" values="0 0 0 0 0 0 0 0 0 0 0 0 0 0 0 0 0 0 127 0" result="hardAlpha"/>
<feOffset dy="11"/>
<feGaussianBlur stdDeviation="11"/>
<feColorMatrix type="matrix" values="0 0 0 0 0.397708 0 0 0 0 0.47749 0 0 0 0 0.575 0 0 0 0.27 0"/>
<feBlend mode="normal" in2="BackgroundImageFix" result="effect1_dropShadow_202_1805"/>
<feBlend mode="normal" in="SourceGraphic" in2="effect1_dropShadow_202_1805" result="shape"/>
</filter>
<filter id="filter1_d_202_1805" x="9.64526" y="8.98047" width="136.612" height="109.105" filterUnits="userSpaceOnUse" color-interpolation-filters="sRGB">
<feFlood flood-opacity="0" result="BackgroundImageFix"/>
<feColorMatrix in="SourceAlpha" type="matrix" values="0 0 0 0 0 0 0 0 0 0 0 0 0 0 0 0 0 0 127 0" result="hardAlpha"/>
<feOffset dy="11"/>
<feGaussianBlur stdDeviation="11"/>
<feColorMatrix type="matrix" values="0 0 0 0 0.397708 0 0 0 0 0.47749 0 0 0 0 0.575 0 0 0 0.27 0"/>
<feBlend mode="normal" in2="BackgroundImageFix" result="effect1_dropShadow_202_1805"/>
<feBlend mode="normal" in="SourceGraphic" in2="effect1_dropShadow_202_1805" result="shape"/>
</filter>
<filter id="filter2_d_202_1805" x="19.4593" y="0.825195" width="136.681" height="109.105" filterUnits="userSpaceOnUse" color-interpolation-filters="sRGB">
<feFlood flood-opacity="0" result="BackgroundImageFix"/>
<feColorMatrix in="SourceAlpha" type="matrix" values="0 0 0 0 0 0 0 0 0 0 0 0 0 0 0 0 0 0 127 0" result="hardAlpha"/>
<feOffset dy="11"/>
<feGaussianBlur stdDeviation="11"/>
<feColorMatrix type="matrix" values="0 0 0 0 0.397708 0 0 0 0 0.47749 0 0 0 0 0.575 0 0 0 0.27 0"/>
<feBlend mode="normal" in2="BackgroundImageFix" result="effect1_dropShadow_202_1805"/>
<feBlend mode="normal" in="SourceGraphic" in2="effect1_dropShadow_202_1805" result="shape"/>
</filter>
<linearGradient id="paint0_linear_202_1805" x1="68.3836" y1="27.9433" x2="68.3836" y2="95.2561" gradientUnits="userSpaceOnUse">
<stop stop-color="#FDFEFF"/>
<stop offset="0.9964" stop-color="#ECF0F5"/>
</linearGradient>
<linearGradient id="paint1_linear_202_1805" x1="77.9212" y1="18.4745" x2="77.9212" y2="85.7874" gradientUnits="userSpaceOnUse">
<stop stop-color="#FDFEFF"/>
<stop offset="0.9964" stop-color="#ECF0F5"/>
</linearGradient>
<linearGradient id="paint2_linear_202_1805" x1="87.7698" y1="10.3193" x2="87.7698" y2="77.6321" gradientUnits="userSpaceOnUse">
<stop stop-color="#FDFEFF"/>
<stop offset="0.9964" stop-color="#ECF0F5"/>
</linearGradient>
<linearGradient id="paint3_linear_202_1805" x1="108.964" y1="76.347" x2="151.15" y2="76.347" gradientUnits="userSpaceOnUse">
<stop stop-color="#B0BACC"/>
<stop offset="1" stop-color="#969EAE"/>
</linearGradient>
</defs>
</svg>
