<svg width="175" height="137" viewBox="0 0 175 137" fill="none" xmlns="http://www.w3.org/2000/svg">
<path d="M89.2 117.6C117.2 117.6 139.9 94.9 139.9 66.8C139.9 38.7 117.1 16 89.2 16C61.2 16 38.5 38.7 38.5 66.8C38.5 94.9 61.2 117.6 89.2 117.6Z" fill="#EAEEF9"/>
<path d="M136.2 33.6004C138.464 33.6004 140.3 31.7648 140.3 29.5004C140.3 27.236 138.464 25.4004 136.2 25.4004C133.936 25.4004 132.1 27.236 132.1 29.5004C132.1 31.7648 133.936 33.6004 136.2 33.6004Z" fill="#F1F3F9"/>
<path d="M142.2 17.6C143.746 17.6 145 16.3464 145 14.8C145 13.2536 143.746 12 142.2 12C140.654 12 139.4 13.2536 139.4 14.8C139.4 16.3464 140.654 17.6 142.2 17.6Z" fill="#EAEEF9"/>
<path d="M34.3 40.6C35.8464 40.6 37.1 39.3464 37.1 37.8C37.1 36.2536 35.8464 35 34.3 35C32.7536 35 31.5 36.2536 31.5 37.8C31.5 39.3464 32.7536 40.6 34.3 40.6Z" fill="#EAEEF9"/>
<path d="M49.7 118.4C52.5719 118.4 54.9 116.072 54.9 113.2C54.9 110.328 52.5719 108 49.7 108C46.8281 108 44.5 110.328 44.5 113.2C44.5 116.072 46.8281 118.4 49.7 118.4Z" fill="#EAEEF9"/>
<g filter="url(#filter0_d_202_1414)">
<path d="M152.5 80.4041C152.5 93.3255 142.05 103.775 129.017 103.775C128.792 103.775 126.882 103.775 112.837 103.775C103.062 103.775 87.4438 103.775 62.5 103.775H50.5899C34.9719 104.112 22.5 91.6401 22.5 76.5839C22.5 61.4154 35.0843 48.8311 50.9269 49.6176C64.5224 7.14577 126.77 13.1008 132.05 57.0334C143.736 58.494 152.5 68.3817 152.5 80.4041Z" fill="url(#paint0_linear_202_1414)"/>
</g>
<path d="M129.017 103.775C141.938 103.775 152.5 93.3253 152.5 80.404C152.5 67.4826 141.938 57.0332 129.017 57.0332C116.096 57.0332 105.534 67.4826 105.534 80.404C105.534 93.3253 116.096 103.775 129.017 103.775Z" fill="url(#paint1_linear_202_1414)"/>
<path d="M90.7022 104C113.736 104 132.5 85.3479 132.5 62.3143C132.5 39.2806 113.736 20.6289 90.7022 20.6289C67.6685 20.6289 48.9045 39.2806 48.9045 62.3143C48.9045 85.3479 67.5561 104 90.7022 104Z" fill="url(#paint2_linear_202_1414)"/>
<path d="M79.1176 63.5102L81.0724 61.551C81.6425 60.9796 81.6425 60 81.0724 59.4286C80.5023 58.8571 79.5249 58.8571 78.9548 59.4286L77 61.3878L75.0452 59.4286C74.4751 58.8571 73.4977 58.8571 72.9276 59.4286C72.3575 60 72.3575 60.9796 72.9276 61.551L74.8824 63.5102L72.9276 65.4694C72.3575 66.0408 72.3575 67.0204 72.9276 67.5918C73.2534 67.9184 73.5792 68 73.9864 68C74.3937 68 74.7195 67.8367 75.0452 67.5918L77 65.6327L78.9548 67.5918C79.2805 67.9184 79.6063 68 80.0136 68C80.4208 68 80.7466 67.8367 81.0724 67.5918C81.6425 67.0204 81.6425 66.0408 81.0724 65.4694L79.1176 63.5102Z" fill="#989FB0"/>
<path d="M99.8529 63.5102L102.025 61.551C102.658 60.9796 102.658 60 102.025 59.4286C101.391 58.8571 100.305 58.8571 99.6719 59.4286L97.5 61.3878L95.3281 59.4286C94.6946 58.8571 93.6086 58.8571 92.9751 59.4286C92.3416 60 92.3416 60.9796 92.9751 61.551L95.1471 63.5102L92.9751 65.4694C92.3416 66.0408 92.3416 67.0204 92.9751 67.5918C93.3371 67.9184 93.6991 68 94.1516 68C94.6041 68 94.9661 67.8367 95.3281 67.5918L97.5 65.6327L99.6719 67.5918C100.034 67.9184 100.396 68 100.848 68C101.301 68 101.663 67.8367 102.025 67.5918C102.658 67.0204 102.658 66.0408 102.025 65.4694L99.8529 63.5102Z" fill="#989FB0"/>
<path fill-rule="evenodd" clip-rule="evenodd" d="M43.2363 24.0523C43.4707 23.1302 44.4082 22.5727 45.3303 22.8071L51.8505 24.4644C52.7726 24.6988 53.3301 25.6364 53.0957 26.5585C52.8614 27.4806 51.9238 28.0381 51.0017 27.8037L44.4815 26.1464C43.5594 25.912 43.0019 24.9745 43.2363 24.0523Z" fill="#989FB0"/>
<path fill-rule="evenodd" clip-rule="evenodd" d="M48.7765 5.71527C49.5637 5.18093 50.635 5.38592 51.1694 6.17314L58.9638 17.6561C59.4982 18.4434 59.2932 19.5147 58.5059 20.0491C57.7187 20.5834 56.6474 20.3784 56.113 19.5912L48.3186 8.10818C47.7843 7.32096 47.9892 6.24962 48.7765 5.71527Z" fill="#989FB0"/>
<path fill-rule="evenodd" clip-rule="evenodd" d="M63.2351 0.536284C64.1684 0.351547 65.0748 0.958405 65.2595 1.89174L67.9543 15.5061C68.139 16.4394 67.5322 17.3458 66.5988 17.5306C65.6655 17.7153 64.7591 17.1084 64.5744 16.1751L61.8796 2.56073C61.6949 1.6274 62.3018 0.721022 63.2351 0.536284Z" fill="#989FB0"/>
<rect x="76.5" y="77" width="23" height="3" fill="#989FB0"/>
<path d="M90.5 78H94.5V83C94.5 84.1046 93.6046 85 92.5 85C91.3954 85 90.5 84.1046 90.5 83V78Z" fill="#989FB0"/>
<path d="M143.094 34.0647C142.668 35.8614 142.028 37.5889 141.246 39.1783C139.186 42.9098 136.13 45.9503 132.293 47.8161C128.313 49.82 123.623 50.511 118.862 49.6127C107.776 47.3323 100.599 36.8288 102.944 25.9798C105.289 15.1308 116.02 8.15147 127.176 10.4318C131.156 11.2611 134.638 13.1268 137.551 15.8218C142.383 20.6589 144.444 27.5 143.094 34.0647Z" fill="url(#paint3_linear_202_1414)"/>
<path d="M120.008 20.1442L120.008 20.1442L120.009 20.1522L120.821 30.2291C120.89 31.4288 121.815 32.5 123 32.5C124.185 32.5 125.11 31.4288 125.179 30.2291L125.991 20.1522L125.991 20.1522L125.992 20.1431C126.114 18.1862 124.82 16.5 123 16.5C121.174 16.5 119.886 18.2551 120.008 20.1442Z" fill="white" stroke="white"/>
<path d="M123 36.5C121.335 36.5 120 37.835 120 39.5C120 41.165 121.335 42.5 123 42.5C124.665 42.5 126 41.165 126 39.5C126 37.835 124.665 36.5 123 36.5Z" fill="white" stroke="white"/>
<defs>
<filter id="filter0_d_202_1414" x="0.5" y="9.73047" width="174" height="127.051" filterUnits="userSpaceOnUse" color-interpolation-filters="sRGB">
<feFlood flood-opacity="0" result="BackgroundImageFix"/>
<feColorMatrix in="SourceAlpha" type="matrix" values="0 0 0 0 0 0 0 0 0 0 0 0 0 0 0 0 0 0 127 0" result="hardAlpha"/>
<feOffset dy="11"/>
<feGaussianBlur stdDeviation="11"/>
<feColorMatrix type="matrix" values="0 0 0 0 0.397708 0 0 0 0 0.47749 0 0 0 0 0.575 0 0 0 0.27 0"/>
<feBlend mode="normal" in2="BackgroundImageFix" result="effect1_dropShadow_202_1414"/>
<feBlend mode="normal" in="SourceGraphic" in2="effect1_dropShadow_202_1414" result="shape"/>
</filter>
<linearGradient id="paint0_linear_202_1414" x1="87.4999" y1="55.0504" x2="87.4576" y2="104.677" gradientUnits="userSpaceOnUse">
<stop stop-color="white"/>
<stop offset="0.9964" stop-color="#ECF0F5"/>
</linearGradient>
<linearGradient id="paint1_linear_202_1414" x1="103.035" y1="52.0015" x2="123.852" y2="74.7697" gradientUnits="userSpaceOnUse">
<stop stop-color="#BCCBE1"/>
<stop offset="0.9942" stop-color="white" stop-opacity="0"/>
</linearGradient>
<linearGradient id="paint2_linear_202_1414" x1="44.9905" y1="43.186" x2="77.8009" y2="56.0257" gradientUnits="userSpaceOnUse">
<stop stop-color="#E2E8F0"/>
<stop offset="0.9942" stop-color="white" stop-opacity="0"/>
</linearGradient>
<linearGradient id="paint3_linear_202_1414" x1="102.481" y1="30.0043" x2="143.507" y2="30.0043" gradientUnits="userSpaceOnUse">
<stop stop-color="#B0BACC"/>
<stop offset="1" stop-color="#969EAE"/>
</linearGradient>
</defs>
</svg>
