<svg width="21" height="20" viewBox="0 0 21 20" fill="none" xmlns="http://www.w3.org/2000/svg">
<path d="M10.5 19.0002H19.5M1.50003 19.0002H3.17457C3.66376 19.0002 3.90835 19.0002 4.13852 18.945C4.34259 18.896 4.53768 18.8152 4.71663 18.7055C4.91846 18.5818 5.09141 18.4089 5.43732 18.063L18.0001 5.50023C18.8285 4.6718 18.8285 3.32865 18.0001 2.50023C17.1716 1.6718 15.8285 1.6718 15.0001 2.50023L2.43729 15.063C2.09139 15.4089 1.91843 15.5818 1.79475 15.7837C1.68509 15.9626 1.60428 16.1577 1.55529 16.3618C1.50003 16.5919 1.50003 16.8365 1.50003 17.3257V19.0002Z" stroke="#75247B" stroke-width="2" stroke-linecap="round" stroke-linejoin="round"/>
</svg>
