<svg width="21" height="20" viewBox="0 0 21 20" fill="none" xmlns="http://www.w3.org/2000/svg">
<path d="M19.2914 10.6072C19.5355 10.398 19.6575 10.2933 19.7023 10.1688C19.7415 10.0596 19.7415 9.94004 19.7023 9.83077C19.6575 9.70627 19.5355 9.60164 19.2914 9.3924L10.8206 2.13178C10.4004 1.77158 10.1903 1.59148 10.0124 1.58707C9.8578 1.58323 9.71012 1.65115 9.61242 1.77103C9.5 1.90897 9.5 2.18571 9.5 2.73918V7.03444C7.36532 7.40789 5.41159 8.48956 3.95971 10.1137C2.37682 11.8843 1.50123 14.1757 1.5 16.5508V17.1628C2.54934 15.8987 3.85951 14.8763 5.34076 14.1657C6.6467 13.5392 8.05842 13.1681 9.5 13.0703V17.2604C9.5 17.8139 9.5 18.0906 9.61242 18.2286C9.71012 18.3485 9.8578 18.4164 10.0124 18.4125C10.1903 18.4081 10.4004 18.228 10.8206 17.8678L19.2914 10.6072Z" stroke="#75247B" stroke-width="2" stroke-linecap="round" stroke-linejoin="round"/>
</svg>
