<svg width="219" height="186" viewBox="0 0 219 186" fill="none" xmlns="http://www.w3.org/2000/svg">
<g clip-path="url(#clip0_52_4183)">
<path d="M-79.4928 185.677C-79.4928 185.98 -79.2138 186.224 -78.8663 186.224H305.063C305.41 186.224 305.689 185.98 305.689 185.677C305.689 185.373 305.41 185.129 305.063 185.129H-78.8663C-79.2138 185.129 -79.4928 185.373 -79.4928 185.677Z" fill="#3F3D56"/>
<path d="M54.3733 62.8731L57.6608 52.7963L62.4542 54.9538L85.6285 47.4538L89.5187 46.0107C90.6718 44.6654 92.1766 43.5815 93.9068 42.8492C98.2063 40.966 102.803 41.3794 104.173 43.7726C105.543 46.1655 103.168 49.6316 98.867 51.5152C97.1603 52.2881 95.2672 52.6924 93.3454 52.6943L80.0949 58.3171L62.12 66.0882L54.3733 62.8731Z" fill="#FFB6B6"/>
<path d="M45.5485 49.3675L46.2145 57.2585L56.3115 65.923L57.1501 64.0242L58.9707 59.9102L61.3716 54.4655L61.9229 53.2201L54.0083 45.2487L47.4381 38.6282C45.8872 42.024 45.2439 45.6955 45.5485 49.3675Z" fill="#E6E6E6"/>
<path d="M100.98 30.8722C100.98 30.8722 99.9678 27.9839 101.312 25.7522C102.655 23.5205 104.198 20.9438 104.198 20.9438C104.198 20.9438 106.578 21.509 105.447 25.8953C105.447 25.8953 108.721 20.0109 110.008 20.5528C111.296 21.0948 110.919 22.5569 110.919 22.5569C112.024 22.4237 113.115 22.8672 113.711 23.6913L111.929 27.2822C111.929 27.2822 116.714 23.7663 117.27 24.164C117.826 24.5617 118.663 27.4444 118.663 27.4444C118.663 27.4444 120.78 26.9014 121.707 27.5643C122.634 28.2272 119.319 32.5671 119.319 32.5671C120.27 31.2455 121.552 31.0058 123.144 31.7847C123.144 31.7847 121.256 38.4704 116.11 38.4161C114.346 38.3975 110.46 40.812 108.193 39.7362C103.846 37.6732 100.98 30.8722 100.98 30.8722Z" fill="#75247B"/>
<path d="M107.071 31.7369C105.63 28.38 104.902 27.3722 104.902 27.3722C104.902 27.3722 101.198 26.834 100.697 30.4803L99.911 29.2691C99.911 29.2691 98.6612 31.8993 102.836 36.6636C107.354 41.8188 112.319 40.5214 112.794 39.7789C112.794 39.7789 119.993 40.8142 122.617 34.8975L120.271 34.6271L112.951 37.8895L113.079 35.5511C113.163 34.0108 111.154 33.0838 109.748 34.0136C109.748 34.0136 108.511 35.0937 107.071 31.7369Z" fill="#3F3D56"/>
<path d="M95.4177 57.1073C95.2041 57.0007 95.0852 56.7816 95.1425 56.5606C97.4459 47.6236 104.833 37.3375 104.908 37.2345C105.077 37.0001 105.435 36.9283 105.7 37.0783C105.968 37.2265 106.048 37.5365 105.879 37.7711C105.805 37.8728 98.5226 48.0157 96.2626 56.7818C96.1931 57.0521 95.8858 57.2223 95.5763 57.1611C95.519 57.15 95.4662 57.1315 95.4177 57.1073Z" fill="#3F3D56"/>
<path d="M123.614 43.9057C125.034 44.6187 126.239 45.6185 127.127 46.8221L132.698 49.7902L149.461 58.0415L155.871 64.3941L150.036 68.738L129.386 55.8583L123.415 52.3035C121.781 52.2014 120.199 51.7584 118.801 51.0112C115.274 49.1857 113.493 46.1143 114.822 44.152C116.151 42.1894 120.086 42.079 123.614 43.9057Z" fill="#FFB6B6"/>
<path d="M149.459 58.0419L151.458 67.6757L151.704 68.8814L174.506 56.0078L176.223 49.8846L176.212 49.8297L174.397 42.4155L149.459 58.0419Z" fill="#E6E6E6"/>
<path d="M34.7511 177.991L40.5653 179.548L50.2006 160.676L41.6195 158.378L34.7511 177.991Z" fill="#FFB6B6"/>
<path d="M54.711 183.212C54.7986 183.527 54.5927 184.413 54.4841 184.723C54.1503 185.676 52.9962 186.212 51.9063 185.92L33.9011 181.097C33.1576 180.897 32.7395 180.209 32.9673 179.559L33.1969 178.903C33.1969 178.903 32.9963 176.694 35.6808 174.757C35.6808 174.757 37.2939 177.269 41.7428 175.203L43.3044 173.881L48.9455 180.478L52.8231 181.991C53.6714 182.322 54.4915 182.422 54.711 183.212Z" fill="#2F2E41"/>
<path d="M94.4162 182.695L100.323 181.432L97.5644 160.906L88.8467 162.77L94.4162 182.695Z" fill="#FFB6B6"/>
<path d="M114.621 178.252C114.88 178.483 115.222 179.337 115.31 179.652C115.58 180.62 114.902 181.597 113.795 181.834L95.5024 185.744C94.7471 185.905 93.9851 185.5 93.8004 184.84L93.6143 184.174C93.6143 184.174 92.15 182.365 93.3236 179.5C93.3236 179.5 96.179 180.937 98.7934 177.172L99.362 175.337L108.068 178.482L112.285 178.048C113.207 177.953 113.971 177.672 114.621 178.252Z" fill="#2F2E41"/>
<path d="M159.404 182.206L152.588 182.206L149.345 159.212L159.405 159.213L159.404 182.206Z" fill="#FFB6B6"/>
<path d="M136.051 182.071C135.838 182.383 135.726 183.392 135.726 183.756C135.726 184.873 136.762 185.779 138.04 185.779H159.149C160.021 185.779 160.727 185.161 160.727 184.399V183.63C160.727 183.63 161.771 181.32 159.622 178.473C159.622 178.473 156.949 180.702 152.957 177.211L151.779 175.345L143.256 180.796L138.532 181.305C137.499 181.416 136.582 181.288 136.051 182.071Z" fill="#2F2E41"/>
<path d="M181.944 177.69L175.337 179.155L165.729 157.565L175.48 155.403L181.944 177.69Z" fill="#FFB6B6"/>
<path d="M159.27 182.581C159.152 182.93 159.327 183.932 159.429 184.284C159.743 185.367 161.002 186.022 162.24 185.748L182.702 181.208C183.546 181.021 184.058 180.27 183.843 179.531L183.627 178.786C183.627 178.786 183.99 176.322 181.105 174.025C181.105 174.025 179.142 176.76 174.29 174.234L172.624 172.679L165.896 179.796L161.46 181.305C160.489 181.635 159.565 181.708 159.27 182.581Z" fill="#2F2E41"/>
<path d="M148.936 74.4917L168.464 76.5009L171.91 84.0352C171.91 84.0352 179.377 91.5695 169.613 106.136L166.167 129.241L178.974 164.787L164.73 165.248L151.163 131.297L144.916 102.118L144.341 90.565L148.936 74.4917Z" fill="#2F2E41"/>
<path d="M150.085 100.611L144.916 102.118L146.861 165.248H162.654L150.085 100.611Z" fill="#2F2E41"/>
<path d="M86.0454 88.807L99.2554 166.662L89.4915 167.164L70.8253 119.196L65.8287 142.851L47.5643 166.16L38.3748 164.15L52.9245 131.041L49.2873 106.387C49.2873 106.387 45.2669 95.3368 49.2873 90.3139C53.3077 85.291 86.0454 88.807 86.0454 88.807Z" fill="#2F2E41"/>
<path d="M172.197 26.0208L172.484 35.8154L164.156 38.0757L160.998 35.8154L160.136 27.5276L172.197 26.0208Z" fill="#FFB6B6"/>
<path d="M56.7538 27.0255L60.1999 18.4866L73.4098 26.5232L70.5381 33.5553L56.7538 27.0255Z" fill="#FFB6B6"/>
<path d="M144.79 59.4281L146.627 66.6107L148.701 74.7229L168.682 76.7772L174.506 56.0077L176.223 49.8846L176.212 49.8297L174.397 42.4155L172.714 35.5645H160.865L148.098 48.1972C146.001 50.2765 144.749 52.8836 144.491 55.5957C144.37 56.8666 144.468 58.1577 144.79 59.4281Z" fill="#75247B"/>
<path d="M163.008 30.5414C169.986 30.5414 175.643 25.594 175.643 19.491C175.643 13.3881 169.986 8.44067 163.008 8.44067C156.029 8.44067 150.372 13.3881 150.372 19.491C150.372 25.594 156.029 30.5414 163.008 30.5414Z" fill="#FFB6B6"/>
<path d="M72.2611 27.0255C79.2396 27.0255 84.8967 22.0781 84.8967 15.9752C84.8967 9.87222 79.2396 4.9248 72.2611 4.9248C65.2827 4.9248 59.6255 9.87222 59.6255 15.9752C59.6255 22.0781 65.2827 27.0255 72.2611 27.0255Z" fill="#FFB6B6"/>
<path d="M45.5485 49.3674L46.2145 57.2584L49.0116 90.4242L49.0862 90.4894C49.1381 90.54 54.5024 95.0954 63.2096 91.0373C71.6122 87.1191 88.073 92.504 88.2393 92.5589L88.7449 92.7247L84.7357 77.4L81.8469 66.3746L79.7792 58.4538L77.5794 50.0605L73.0825 32.8772L54.8986 25.6941L48.5578 36.4634C48.1442 37.1717 47.7653 37.8898 47.438 38.628C45.8872 42.0239 45.2439 45.6954 45.5485 49.3674Z" fill="#75247B"/>
<path d="M77.1431 14.7194L78.8661 13.7148V10.1987C78.8661 10.1987 86.9069 11.7056 85.1839 6.18043C83.4609 0.655246 75.4843 -0.467199 69.1022 0.152959C68.8438 0.178073 68.5853 0.200674 68.3275 0.220955C62.1677 0.705498 57.1572 4.79868 56.397 10.1664C55.5713 15.9969 55.9026 22.2159 61.0614 22.2537L66.2305 23.7606C66.2305 23.7606 63.9331 14.2171 68.5279 16.2262C73.1226 18.2354 77.1431 14.7194 77.1431 14.7194Z" fill="#2F2E41"/>
<path d="M92.0667 29.6151C92.0667 29.6151 89.5507 27.5451 89.4533 25.0243C89.3559 22.5034 89.2357 19.5969 89.2357 19.5969C89.2357 19.5969 91.6229 19.0564 93.1265 23.3562C93.1265 23.3562 92.6354 16.8265 94.0609 16.7391C95.4865 16.6517 95.9877 18.085 95.9877 18.085C96.8713 17.4908 98.0706 17.403 99.0548 17.8606L99.5426 21.7515C99.5426 21.7515 101.706 16.6242 102.414 16.7286C103.123 16.833 105.483 18.974 105.483 18.974C105.483 18.974 107.014 17.5852 108.195 17.7591C109.376 17.9331 108.956 23.1393 108.956 23.1393C109.033 21.5791 110.011 20.8154 111.835 20.8017C111.835 20.8017 113.984 27.4271 109.483 29.6104C107.94 30.3587 105.933 34.1399 103.355 34.188C98.4094 34.2802 92.0667 29.6151 92.0667 29.6151Z" fill="#75247B"/>
<path d="M97.8468 27.7265C94.6934 25.4351 93.4896 24.8755 93.4896 24.8755C93.4896 24.8755 89.9672 26.0134 91.5985 29.3975L90.2297 28.686C90.2297 28.686 90.6345 31.5123 96.9606 33.8409C103.806 36.3606 107.383 33.0819 107.375 32.2313C107.375 32.2313 114.215 30.0102 113.14 23.7344L110.95 24.5162L106.441 30.5219L105.227 28.4356C104.427 27.0614 102.157 27.1266 101.462 28.5438C101.462 28.5438 101 30.0178 97.8468 27.7265Z" fill="#3F3D56"/>
<path d="M102.102 54.8128C101.856 54.8128 101.628 54.6739 101.553 54.4571C98.4892 45.6965 99.077 33.5606 99.0832 33.439C99.0978 33.1618 99.3675 32.9445 99.683 32.9597C99.9997 32.9725 100.245 33.207 100.231 33.4841C100.225 33.6043 99.6466 45.5704 102.651 54.1638C102.744 54.4287 102.573 54.7098 102.27 54.7907C102.214 54.8059 102.157 54.8128 102.102 54.8128Z" fill="#3F3D56"/>
<path d="M53.7796 66.851L64.2295 64.458L64.5146 68.701L81.8036 80.9862L84.8692 82.964C86.5921 83.1292 88.2443 83.653 89.688 84.4912C93.332 86.5447 95.0743 89.8536 93.5796 91.8817C92.085 93.9094 87.9199 93.8885 84.2748 91.8339C82.8059 91.0304 81.5784 89.9312 80.6949 88.6279L69.6253 82.2158L54.4817 73.5835L53.7796 66.851Z" fill="#FFB6B6"/>
<path d="M60.5656 35.8154L69.8139 40.4079L68.0845 69.3397L50.3864 71.924L60.5656 35.8154Z" fill="#75247B"/>
<path d="M160.701 87.5514C161.706 86.4203 163.006 85.5163 164.492 84.9147L168.628 80.5029L180.304 67.1341L188.389 62.467L192.496 68.1247L175.038 84.2162L170.182 88.892C169.839 90.2931 169.117 91.6019 168.077 92.7085C165.519 95.5088 161.793 96.6238 159.756 95.2C157.719 93.7758 158.142 90.3522 160.701 87.5514Z" fill="#FFB6B6"/>
<path d="M165.484 42.3624L176.395 35.5469L192.891 66.7014L180.304 67.134L165.484 42.3624Z" fill="#75247B"/>
<path d="M152.382 13.7148C152.382 13.7148 154.311 10.2231 155.345 12.8014C156.379 15.3796 161.893 21.8252 161.893 21.8252C161.893 21.8252 164.823 25.4061 161.549 28.414C158.275 31.422 151.21 46.032 161.032 43.597C170.854 41.162 175.851 46.8914 175.851 46.8914C175.851 46.8914 184.295 47.4643 183.088 40.0161C181.882 32.5679 175.679 27.6978 175.679 18.674C175.679 9.65019 169.82 5.78284 166.374 6.21254C162.927 6.64225 150.315 6.69623 152.382 13.7148Z" fill="#2F2E41"/>
</g>
<defs>
<clipPath id="clip0_52_4183">
<rect width="219" height="186" fill="white"/>
</clipPath>
</defs>
</svg>
