<svg width="28" height="22" viewBox="0 0 28 22" fill="none" xmlns="http://www.w3.org/2000/svg">
<path d="M27.5 2.6096C26.5071 3.05059 25.4405 3.34856 24.3191 3.48324C25.4761 2.78933 26.3417 1.69719 26.7544 0.410618C25.6674 1.05779 24.4777 1.51332 23.237 1.75742C22.4027 0.864556 21.2977 0.272751 20.0934 0.0738863C18.8891 -0.124978 17.6531 0.080224 16.5771 0.657635C15.5011 1.23505 14.6454 2.15236 14.1429 3.26716C13.6403 4.38195 13.519 5.63186 13.7979 6.82283C11.5952 6.71198 9.4405 6.13817 7.47346 5.13862C5.50643 4.13907 3.77106 2.73613 2.37999 1.02085C1.90434 1.84324 1.63085 2.79672 1.63085 3.81219C1.63032 4.72634 1.85491 5.62649 2.28471 6.43277C2.71451 7.23906 3.33623 7.92654 4.09469 8.43423C3.21507 8.40617 2.35487 8.16795 1.58566 7.73937V7.81088C1.58557 9.09302 2.02805 10.3357 2.83801 11.3281C3.64798 12.3204 4.77554 13.0014 6.02938 13.2553C5.21339 13.4767 4.35788 13.5093 3.52748 13.3507C3.88124 14.4539 4.57033 15.4186 5.49828 16.1097C6.42623 16.8009 7.54659 17.1839 8.7025 17.2051C6.74027 18.7491 4.31692 19.5866 1.82229 19.5829C1.3804 19.583 0.938873 19.5571 0.5 19.5054C3.03219 21.1373 5.97984 22.0034 8.99027 22C19.181 22 24.752 13.5402 24.752 6.20306C24.752 5.96469 24.746 5.72393 24.7353 5.48556C25.8189 4.7001 26.7543 3.72744 27.4976 2.61318L27.5 2.6096Z" fill="#03A9F4"/>
</svg>
