<svg width="219" height="186" viewBox="0 0 219 186" fill="none" xmlns="http://www.w3.org/2000/svg">
<g clip-path="url(#clip0_52_4114)">
<path d="M27.2848 165.456L30.6723 165.553L29.3928 178.121L27.0973 178.054L27.2848 165.456Z" fill="#FFB6B6"/>
<path d="M34.9728 183.891C34.9728 183.549 34.8271 183.241 34.6021 183.105L32.0739 181.583L30.3503 176.712L30.3241 171.804L26.7724 171.295L26.2587 174.421C26.2587 174.421 27.3163 174.229 26.0105 175.61C24.7047 176.992 25.3335 179.695 25.3335 179.695L25.0487 184.746H27.3992L27.5253 181.605C29.3534 182.55 29.8018 184.746 29.8018 184.746H34.3581C34.6976 184.746 34.9728 184.363 34.9728 183.891Z" fill="#2F2E41"/>
<path d="M32.2468 165.594L35.6344 165.692L34.3548 178.259L32.0594 178.193L32.2468 165.594Z" fill="#FFB6B6"/>
<path d="M39.9348 184.029C39.9348 183.688 39.7891 183.379 39.5641 183.244L37.0359 181.722L35.3123 176.85L35.2862 171.942L31.7344 171.433L31.2207 174.56C31.2207 174.56 32.2784 174.367 30.9726 175.749C29.6668 177.13 30.2955 179.833 30.2955 179.833L30.0108 184.885H32.3612L32.4874 181.743C34.3155 182.688 34.7639 184.885 34.7639 184.885H39.3202C39.6596 184.885 39.9348 184.501 39.9348 184.029Z" fill="#2F2E41"/>
<path d="M28.362 91.8799L24.5217 103.054C23.2416 106.779 22.8359 110.864 23.35 114.854L25.2164 169.749H32.5959L35.817 120.865L36.4526 140.175L29.0652 167.687H36.331L45.6571 140.175L46.3485 118.99L43.0352 102.551L28.362 91.8799Z" fill="#2F2E41"/>
<path d="M132.401 44.0658V16.1543C132.401 7.23253 126.466 2.25267e-09 119.145 2.25267e-09H70.618C63.2968 -0.000147386 57.3617 7.23227 57.3616 16.154V169.279C57.3616 178.2 63.2966 185.433 70.6178 185.433H119.144C126.465 185.433 132.4 178.2 132.4 169.279V63.9337C132.861 63.9337 133.235 63.4781 133.235 62.9162L133.236 45.0834C133.236 44.5214 132.862 44.0658 132.401 44.0658Z" fill="#3F3D56"/>
<path d="M129.911 14.8111V170.099C122.164 169.519 126.105 181.958 119.861 182.349H70.3388C64.7858 182.35 60.2834 176.866 60.2817 170.099V14.8111C60.2834 8.04436 64.7856 2.56017 70.3384 2.56104H73.9906C72.996 5.54158 81.0229 6.5113 81.6383 6.51225H107.001C109.641 6.50817 116.011 3.25567 115.779 2.56104H119.859C125.41 2.56219 129.909 8.04461 129.911 14.8087V14.8111Z" fill="white"/>
<path d="M56.9713 47.4846C56.6181 47.4846 56.3309 47.8346 56.3309 48.265V54.5078C56.3309 54.9382 56.6181 55.2882 56.9713 55.2882C57.3245 55.2882 57.6116 54.9382 57.6116 54.5078V48.265C57.6116 47.8346 57.3245 47.4846 56.9713 47.4846Z" fill="#3F3D56"/>
<path d="M56.9713 66.2131C56.6181 66.2131 56.3309 66.5631 56.3309 66.9935V79.089C56.3309 79.5194 56.6181 79.8694 56.9713 79.8694C57.3245 79.8694 57.6116 79.5194 57.6116 79.089V66.9935C57.6116 66.5631 57.3245 66.2131 56.9713 66.2131Z" fill="#3F3D56"/>
<path d="M56.9713 83.3809C56.6181 83.3809 56.3309 83.7308 56.3309 84.1612V96.2567C56.3309 96.6871 56.6181 97.0371 56.9713 97.0371C57.3245 97.0371 57.6116 96.6871 57.6116 96.2567V84.1612C57.6116 83.7308 57.3245 83.3809 56.9713 83.3809Z" fill="#3F3D56"/>
<path d="M208.011 175.563L204.972 178.099L195.497 165.023L199.982 161.279L208.011 175.563Z" fill="#FFB6B6"/>
<path d="M197.553 184.17C197.568 184.443 197.87 185.112 197.997 185.337C198.387 186.031 199.165 186.209 199.735 185.733L209.145 177.877C209.534 177.552 209.633 176.906 209.367 176.432L209.098 175.955C209.098 175.955 208.757 174.131 206.804 173.163C206.804 173.163 206.392 175.542 203.392 174.859L202.216 174.138L200.32 180.697L198.392 182.771C197.97 183.224 197.517 183.486 197.553 184.17Z" fill="#2F2E41"/>
<path d="M185.607 182.296L181.924 182.296L180.172 164.983L184.68 165.667L185.607 182.296Z" fill="#FFB6B6"/>
<path d="M172.988 182.195C172.873 182.43 172.812 183.19 172.812 183.463C172.812 184.305 173.372 184.987 174.062 184.987H185.469C185.94 184.987 186.322 184.521 186.322 183.947V183.369C186.322 183.369 186.886 181.629 185.725 179.486C185.725 179.486 184.281 181.164 182.123 178.535L181.487 177.13L176.881 181.235L174.329 181.618C173.77 181.702 173.275 181.605 172.988 182.195Z" fill="#2F2E41"/>
<path d="M172.693 116.501L172.97 120.584L172.419 123.831L173.423 127.253L174.652 145.351L181.055 176.553L185.944 177.807L183.597 146.64L185.418 120.932L172.693 116.501Z" fill="#2F2E41"/>
<path d="M193.47 98.7769L174.771 99.0933L172.693 116.5L185.418 123.78L185.012 148.64L199.184 173.64L206.732 168.384L194.084 147.154L197.626 111.753L193.47 98.7769Z" fill="#2F2E41"/>
<path d="M179.628 57.8538L176.329 63.0133L177.887 102.575L190.094 102.258L192.171 67.7608L189.574 58.899L188.635 56.913L187.511 54.3416L180.305 54.9687L179.628 57.8538Z" fill="#75247B"/>
<path d="M174.756 82.3194L175.416 90.4048L174.606 99.7089L173.592 102.231L171.276 112.266C171.276 112.266 168.913 116.655 174.107 116.97C179.301 117.286 196.327 115.233 196.327 115.233C196.327 115.233 198.45 115.169 197.524 109.758C196.03 106.628 196.994 102.218 196.994 102.218L195.028 93.3946L195.548 85.1659L199.184 63.6443C195.954 60.5518 192.338 58.3384 188.406 56.8394L184.962 67.8747L179.834 57.7889L177.886 59.5297C175.259 60.3692 172.947 61.6602 171.119 63.644L174.756 82.3194Z" fill="#2F2E41"/>
<path d="M113.11 63.1235H76.4568C73.9444 63.12 71.9084 60.6389 71.9056 57.5773V38.3775C71.9084 35.3159 73.9444 32.8348 76.4568 32.8313C88.1526 28.8826 100.419 29.2526 113.11 32.8313C115.622 32.835 117.658 35.316 117.661 38.3775V57.5773C117.658 60.6388 115.622 63.1199 113.11 63.1235Z" fill="#F2F2F2"/>
<path d="M116.844 83.2454H72.7228C72.2718 83.2449 71.9062 82.7994 71.9058 82.2497V68.9127C71.9064 68.3631 72.2719 67.9177 72.7228 67.917H116.844C117.295 67.9177 117.661 68.363 117.661 68.9127V82.2501C117.661 82.7997 117.295 83.245 116.844 83.2457V83.2454ZM72.7228 68.3152C72.4522 68.3156 72.2329 68.5828 72.2326 68.9126V82.2501C72.2329 82.5799 72.4522 82.8471 72.7228 82.8475H116.844C117.115 82.8471 117.334 82.5799 117.335 82.2501V68.9126C117.334 68.5828 117.115 68.3156 116.844 68.3152H72.7228Z" fill="#E6E6E6"/>
<path d="M86.3677 72.792C86.0518 72.8001 85.8012 73.1188 85.8079 73.5037C85.8144 73.8772 86.0613 74.178 86.3677 74.1859H113.331C113.646 74.2006 113.912 73.9007 113.924 73.5159C113.936 73.1312 113.69 72.8073 113.374 72.7926H86.3677V72.792Z" fill="#E6E6E6"/>
<path d="M86.3677 76.9751C86.0518 76.9832 85.8012 77.3019 85.8079 77.6868C85.8144 78.0603 86.0613 78.3611 86.3677 78.369H113.331C113.646 78.3837 113.912 78.0838 113.924 77.699C113.936 77.3143 113.69 76.9904 113.374 76.9757H86.3677V76.9751Z" fill="#E6E6E6"/>
<path d="M78.7936 78.3698C80.0572 78.3698 81.0816 77.1215 81.0816 75.5816C81.0816 74.0418 80.0572 72.7935 78.7936 72.7935C77.53 72.7935 76.5057 74.0418 76.5057 75.5816C76.5057 77.1215 77.53 78.3698 78.7936 78.3698Z" fill="#E6E6E6"/>
<path d="M116.844 148.71H72.7228C72.2718 148.709 71.9062 148.264 71.9058 147.714V134.377C71.9064 133.827 72.2719 133.382 72.7228 133.381H116.844C117.295 133.382 117.661 133.827 117.661 134.377V147.714C117.661 148.264 117.295 148.709 116.844 148.71V148.71ZM72.7228 133.78C72.4522 133.78 72.2329 134.047 72.2326 134.377V147.714C72.2329 148.044 72.4522 148.311 72.7228 148.312L111.832 147.842C112.103 147.842 116.207 145.977 116.207 145.647L117.335 134.377C117.334 134.047 117.115 133.78 116.844 133.78H72.7228Z" fill="#E6E6E6"/>
<path d="M86.3677 140.245C86.0518 140.236 85.7904 140.542 85.7837 140.927C85.777 141.312 86.0277 141.63 86.3435 141.638C86.3516 141.639 86.3597 141.639 86.3677 141.638H113.331C113.646 141.653 113.912 141.353 113.924 140.968C113.936 140.584 113.69 140.26 113.374 140.245H86.3677V140.245Z" fill="#E6E6E6"/>
<path d="M78.7936 143.834C80.0572 143.834 81.0816 142.586 81.0816 141.046C81.0816 139.506 80.0572 138.258 78.7936 138.258C77.53 138.258 76.5057 139.506 76.5057 141.046C76.5057 142.586 77.53 143.834 78.7936 143.834Z" fill="#E6E6E6"/>
<path d="M116.844 121.114H72.7228C72.2718 121.113 71.9062 120.668 71.9058 120.118V106.781C71.9064 106.231 72.2719 105.786 72.7228 105.785H116.844C117.295 105.786 117.661 106.231 117.661 106.781V120.118C117.661 120.668 117.295 121.113 116.844 121.114V121.114ZM72.7228 106.183C72.4522 106.184 72.2329 106.451 72.2326 106.781V120.118C72.2329 120.448 72.4522 120.715 72.7228 120.716L111.832 120.246C112.103 120.246 116.207 118.381 116.207 118.051L117.335 106.781C117.334 106.451 117.115 106.184 116.844 106.183H72.7228Z" fill="#E6E6E6"/>
<path d="M86.3677 112.648C86.0518 112.64 85.7904 112.946 85.7837 113.331C85.777 113.716 86.0277 114.034 86.3435 114.042C86.3516 114.042 86.3597 114.042 86.3677 114.042H113.331C113.646 114.057 113.912 113.757 113.924 113.372C113.936 112.988 113.69 112.664 113.374 112.649H86.3677V112.648Z" fill="#E6E6E6"/>
<path d="M78.7936 116.238C80.0572 116.238 81.0816 114.99 81.0816 113.45C81.0816 111.91 80.0572 110.662 78.7936 110.662C77.53 110.662 76.5057 111.91 76.5057 113.45C76.5057 114.99 77.53 116.238 78.7936 116.238Z" fill="#E6E6E6"/>
<path d="M183.265 53.9755C186.826 53.9755 189.712 50.4585 189.712 46.1202C189.712 41.7818 186.826 38.2649 183.265 38.2649C179.705 38.2649 176.819 41.7818 176.819 46.1202C176.819 50.4585 179.705 53.9755 183.265 53.9755Z" fill="#FFB6B6"/>
<path d="M188 52.5745C188.355 52.6483 188.772 51.5995 189.17 50.578C190.004 48.4398 190.534 47.0805 190.574 45.1591C190.609 43.5215 190.235 43.9513 189.872 40.3105C189.752 39.1097 188.069 39.112 187.726 38.5418C187.147 37.5787 188.035 37.1814 186.596 36.6028C183.898 35.5191 182.679 37.2027 180.966 37.3477C180.923 37.3514 180.073 38.3633 179.599 38.4157C178.768 38.5073 177.57 38.3496 177.032 36.8069C176.53 35.3645 176.197 39.5796 176.646 40.1012C177.027 40.5441 177.685 41.6557 177.702 41.7366C177.721 41.8281 176.138 39.6912 175.874 40.5718C175.684 41.2056 176.282 44.4661 176.766 44.5887C177.17 44.6911 178.159 43.0669 177.936 43.733C177.419 45.278 180.53 46.2637 184.255 43.1626C184.387 43.0526 184.262 43.228 184.723 44.5887C185.304 46.3047 185.435 46.3977 185.425 46.8703C185.403 47.8935 184.773 48.1947 184.957 48.8668C185.106 49.4111 185.69 49.8325 186.127 49.7224C186.621 49.5982 186.706 48.8536 187.064 48.8668C187.37 48.8781 187.733 49.4403 187.766 50.0076C187.834 51.2029 186.382 51.5316 186.127 53.1449C185.984 54.0554 187.673 52.5067 188 52.5745Z" fill="#2F2E41"/>
<path d="M202.587 115.364C202.615 114.485 202.47 113.61 202.164 112.813L202.827 103.645L199.238 103.388L198.951 112.717C198.612 113.494 198.431 114.359 198.423 115.24C198.378 117.442 199.274 119.255 200.423 119.29C201.573 119.325 202.542 117.568 202.587 115.367L202.587 115.364Z" fill="#FFB6B6"/>
<path d="M194.951 78.3982L197.782 89.0604L198.594 110.836L203.333 110.719L203.7 86.8652C203.7 86.8652 201.339 69.2396 200.548 65.278C199.757 61.3164 192.466 62.7846 192.466 62.7846L194.951 78.3982Z" fill="#2F2E41"/>
<path d="M77.54 50.6003C78.8786 51.1419 80.2821 51.6902 81.711 51.5977C82.3612 51.5555 82.9868 51.3666 83.5766 51.0305C84.1816 50.6857 84.7344 50.2175 85.3468 49.8909C87.5973 48.6906 89.8292 50.7412 91.9281 51.5108C92.9752 51.8948 94.0765 51.9867 95.1007 51.4519C96.2324 50.8609 97.0861 49.7333 98.0178 48.7918C100.107 46.6809 102.833 45.5428 105.544 45.6288C108.519 45.7232 111.398 47.3242 113.446 49.943C113.618 50.1626 113.891 49.8296 113.719 49.6104C111.929 47.3218 109.517 45.7788 106.948 45.3112C104.374 44.8426 101.702 45.4687 99.4386 47.0309C98.2932 47.8214 97.3746 48.9034 96.3657 49.9133C95.3831 50.8966 94.2907 51.5304 92.9954 51.3214C90.7638 50.9613 88.8442 48.8658 86.5298 49.0558C85.0516 49.1771 83.9959 50.5324 82.6049 50.9645C80.9455 51.4799 79.2111 50.7813 77.6426 50.1467C77.4063 50.0511 77.305 50.5052 77.54 50.6003Z" fill="#3F3D56"/>
<path d="M81.7298 53.1065C82.5194 53.1065 83.1596 52.3264 83.1596 51.3641C83.1596 50.4019 82.5194 49.6218 81.7298 49.6218C80.9402 49.6218 80.3001 50.4019 80.3001 51.3641C80.3001 52.3264 80.9402 53.1065 81.7298 53.1065Z" fill="#75247B"/>
<path d="M94.0726 53.1836C94.8622 53.1836 95.5023 52.4036 95.5023 51.4413C95.5023 50.479 94.8622 49.699 94.0726 49.699C93.2829 49.699 92.6428 50.479 92.6428 51.4413C92.6428 52.4036 93.2829 53.1836 94.0726 53.1836Z" fill="#75247B"/>
<path d="M106.607 47.2735C107.397 47.2735 108.037 46.4934 108.037 45.5311C108.037 44.5689 107.397 43.7888 106.607 43.7888C105.818 43.7888 105.178 44.5689 105.178 45.5311C105.178 46.4934 105.818 47.2735 106.607 47.2735Z" fill="#75247B"/>
<path d="M23.6453 105.978C19.4181 120.646 24.804 132.201 23.6863 124.747C22.7523 118.517 38.669 99.5609 43.4601 103.47C43.3597 102.837 40.3144 91.4318 40.0159 91.3791C40.4336 90.0974 39.8515 90.0852 39.8278 89.4285C39.7372 86.8922 40.221 84.2593 41.1634 81.5495C41.781 79.456 41.7918 77.6572 41.1932 76.2068C40.6782 75.0147 39.8129 74.1035 38.7704 73.6551L35.6309 69.0347C34.8131 67.832 33.607 65.2371 32.3255 65.2468L25.4462 64.9473C25.2496 64.8034 22.834 67.3347 20.482 68.5768C17.931 69.9253 18.4573 73.6056 18.4637 73.6526L18.4696 73.6965L18.4977 73.7279L22.2473 87.1772L25.6351 91.0464C25.4634 91.6529 25.5064 92.1082 25.8278 92.3694C25.3664 92.7852 23.3139 105.229 23.6453 105.665L23.6453 105.978Z" fill="#75247B"/>
<path d="M58.9938 79.3609C58.4823 79.6097 58.0271 80.0041 57.6663 80.5112L52.2185 82.7869L53.183 85.9141L58.6053 83.2689C59.1547 83.3157 59.7054 83.2015 60.2113 82.9359C61.4843 82.2921 62.2442 80.9699 61.9076 79.9828C61.571 78.9956 60.2669 78.7171 58.9938 79.3609Z" fill="#FFB6B6"/>
<path d="M29.9333 69.325L42.3613 89.7681L56.9292 84.8792L56.2959 80.2481L45.2027 82.8086L39.0141 71.2144C36.9933 66.4541 33.0102 65.4954 29.9333 69.3247V69.325Z" fill="#75247B"/>
<path d="M119.194 172.409H113.522C112.532 172.409 111.726 171.427 111.726 170.22C110.651 166.66 110.515 163.468 111.726 160.8C111.726 159.593 112.532 158.611 113.522 158.611C115.199 157.129 117.154 157.579 119.194 158.611C120.184 158.611 120.99 159.593 120.99 160.8C120.302 163.818 120.352 166.967 120.99 170.22C120.99 171.427 120.184 172.409 119.194 172.409Z" fill="#75247B"/>
<path d="M118.645 162.803H114.065C113.906 162.803 113.778 162.647 113.778 162.455C113.778 162.262 113.906 162.106 114.065 162.106H118.645C118.803 162.106 118.931 162.262 118.931 162.455C118.931 162.647 118.803 162.803 118.645 162.803Z" fill="white"/>
<path d="M118.645 165.594H114.065C113.906 165.594 113.778 165.438 113.778 165.245C113.778 165.052 113.906 164.896 114.065 164.896H118.645C118.803 164.896 118.931 165.052 118.931 165.245C118.931 165.438 118.803 165.594 118.645 165.594Z" fill="white"/>
<path d="M118.645 168.385H114.065C113.906 168.385 113.778 168.228 113.778 168.036C113.778 167.843 113.906 167.687 114.065 167.687H118.645C118.803 167.687 118.931 167.843 118.931 168.036C118.931 168.228 118.803 168.385 118.645 168.385Z" fill="white"/>
<path d="M219 185.092H0V185.62H219V185.092Z" fill="#E6E6E6"/>
<path d="M170.922 114.633C171.108 116.824 172.187 118.483 173.331 118.338C174.474 118.194 175.251 116.301 175.065 114.11C175.001 113.233 174.765 112.388 174.377 111.645L173.493 102.372L169.931 102.97L171.18 112.047C170.926 112.87 170.837 113.757 170.921 114.631L170.922 114.633Z" fill="#FFB6B6"/>
<path d="M176.164 77.0506L177.64 61.2481C177.64 61.2481 170.277 60.4787 169.743 64.5035C169.209 68.5282 167.984 86.3248 167.984 86.3248L169.88 110.07L174.612 109.737L174.026 87.9497L176.164 77.0506Z" fill="#2F2E41"/>
<path d="M33.9282 63.2068L23.9799 64.3107L23.6863 51.7105L34.5244 51.3354L33.9282 63.2068Z" fill="#2F2E41"/>
<path d="M28.8976 61.5156C31.781 61.5156 34.1185 58.6671 34.1185 55.1533C34.1185 51.6395 31.781 48.791 28.8976 48.791C26.0142 48.791 23.6768 51.6395 23.6768 55.1533C23.6768 58.6671 26.0142 61.5156 28.8976 61.5156Z" fill="#FFB6B6"/>
<path d="M33.0974 48.9539C33.0607 47.3752 31.4487 47.2043 30.1928 46.8147L29.0539 46.0944C27.9361 45.7477 26.75 45.9915 25.7875 46.7662L22.7507 49.008C21.3871 50.1053 21.1705 51.8789 20.616 53.752L19.6124 56.4939C19.0665 58.3379 19.7878 60.7811 20.3396 62.6224L20.5708 63.394L20.2093 65.9192L26.5378 65.559L27.1004 61.6607L26.0201 60.181C25.6368 59.6559 25.6057 58.8763 25.9454 58.3084C27.1674 56.2657 26.9409 53.403 26.9409 53.403L28.4874 54.431C29.5035 54.6 30.409 54.5814 31.2058 54.3786C32.082 54.1554 32.8267 53.7092 33.4421 53.0441L33.9935 55.304C34.1355 58.1167 33.7042 58.8632 31.647 61.6144L35.2546 64.3745L35.1211 62.8809C34.8038 59.3278 35.7714 56.526 35.6357 53.6342C35.542 51.6346 34.5661 49.853 33.0974 48.9539Z" fill="#2F2E41"/>
<path d="M33.9616 102.601C33.4519 102.347 32.8996 102.245 32.351 102.304L27.1357 99.3276L26.0461 102.393L31.4538 105.083C31.8222 105.581 32.2833 105.966 32.7986 106.203C34.0812 106.818 35.3815 106.511 35.7024 105.516C36.0233 104.521 35.2442 103.216 33.9616 102.601Z" fill="#FFB6B6"/>
<path d="M18.786 70.7759L16.0663 96.001L29.3303 104.821L31.5156 100.955L22.0782 93.4023L24.2389 79.8242C25.5001 74.6896 23.1825 70.6275 18.7862 70.7757L18.786 70.7759Z" fill="#75247B"/>
</g>
<defs>
<clipPath id="clip0_52_4114">
<rect width="219" height="186" fill="white"/>
</clipPath>
</defs>
</svg>
