<svg width="25" height="24" viewBox="0 0 25 24" fill="none" xmlns="http://www.w3.org/2000/svg">
<g clip-path="url(#clip0_682_1203)">
<path d="M9.79967 10.542C9.39077 10.8389 8.64173 10.2748 8.13575 10.2741C7.62977 10.2741 6.8793 10.8354 6.47041 10.5377C6.06222 10.2401 6.36695 9.35286 6.21104 8.87239C6.05514 8.39051 5.28979 7.85051 5.4457 7.37004C5.60302 6.88887 6.54057 6.90517 6.95017 6.60824C7.35977 6.31131 7.63685 5.41628 8.14213 5.41699C8.6474 5.4177 8.92306 6.31344 9.33125 6.61178C9.74014 6.90942 10.6777 6.89595 10.8336 7.37713C10.9888 7.85902 10.2213 8.39689 10.064 8.87735C9.90738 9.35782 10.2093 10.2443 9.79967 10.542ZM18.5168 10.542C18.1079 10.8389 17.3589 10.2748 16.8529 10.2741C16.3469 10.2741 15.5965 10.8354 15.1876 10.5377C14.7794 10.2401 15.0841 9.35286 14.9282 8.87239C14.7723 8.39051 14.007 7.85051 14.1629 7.37004C14.3202 6.88887 15.2577 6.90517 15.6673 6.60824C16.0769 6.31131 16.354 5.41628 16.8593 5.41699C17.3646 5.4177 17.6402 6.31344 18.0484 6.61178C18.4573 6.90942 19.3948 6.89595 19.5508 7.37713C19.7059 7.85902 18.9385 8.39689 18.7812 8.87735C18.6245 9.35782 18.9264 10.2443 18.5168 10.542Z" fill="#757575"/>
<path d="M20.0043 11.9995H4.99854C4.7522 11.999 4.5082 12.0472 4.28053 12.1413C4.05286 12.2354 3.84601 12.3735 3.67185 12.5477C3.4977 12.7219 3.35966 12.9288 3.26567 13.1565C3.17168 13.3843 3.12359 13.6283 3.12415 13.8746V21.375C3.12368 21.6213 3.17185 21.8652 3.26588 22.0929C3.35991 22.3205 3.49796 22.5273 3.67211 22.7015C3.84625 22.8756 4.05307 23.0136 4.28069 23.1077C4.50831 23.2017 4.75226 23.2499 4.99854 23.2494H20.0043C20.2506 23.25 20.4947 23.2019 20.7224 23.1079C20.9501 23.0139 21.157 22.8759 21.3312 22.7017C21.5054 22.5275 21.6435 22.3207 21.7376 22.093C21.8317 21.8654 21.8799 21.6214 21.8794 21.375V13.8746C21.88 13.6282 21.8318 13.3841 21.7378 13.1564C21.6438 12.9286 21.5057 12.7217 21.3314 12.5475C21.1572 12.3732 20.9503 12.2351 20.7225 12.1411C20.4948 12.0471 20.2507 11.999 20.0043 11.9995Z" fill="#757575"/>
<path d="M14.6695 11.9995V15.3125C14.6695 15.9666 14.0991 16.0523 13.6923 15.6455C13.4181 15.3713 12.8795 15.0233 12.4996 15.0233C12.1205 15.0233 11.5819 15.3713 11.307 15.6462C10.9009 16.0523 10.3304 15.9666 10.3304 15.3125V11.9995H14.6695Z" fill="#BABABA"/>
<path d="M5.62356 5.88476C5.21396 6.18168 4.46491 5.61759 3.95893 5.61688C3.45295 5.61688 2.70248 6.17814 2.29359 5.8805C1.88541 5.58287 2.19013 4.69563 2.03422 4.21517C1.87832 3.73328 1.11297 3.19329 1.26888 2.71282C1.4262 2.23164 2.36375 2.24794 2.77335 1.95101C3.18295 1.65409 3.46004 0.759057 3.96531 0.759766C4.47129 0.759766 4.74624 1.65621 5.15443 1.95456C5.56332 2.25219 6.50087 2.23873 6.65678 2.7199C6.81197 3.20179 6.0445 3.73966 5.88718 4.22013C5.73056 4.70059 6.03245 5.58783 5.62285 5.88546L5.62356 5.88476ZM13.8765 5.88476C13.4677 6.18168 12.7186 5.61759 12.2126 5.61688C11.7066 5.61688 10.9562 6.17814 10.5473 5.8805C10.1391 5.58287 10.4438 4.69563 10.2879 4.21517C10.132 3.73328 9.36667 3.19329 9.52258 2.71282C9.6799 2.23164 10.6174 2.24794 11.027 1.95101C11.4367 1.65409 11.7137 0.759057 12.219 0.759766C12.7243 0.760475 12.9999 1.65621 13.4081 1.95456C13.817 2.25219 14.7546 2.23873 14.9105 2.7199C15.0657 3.20179 14.2982 3.73966 14.1409 4.22013C13.9843 4.70059 14.2861 5.58783 13.8765 5.88546V5.88476ZM22.695 5.88476C22.2854 6.18168 21.5364 5.61759 21.0304 5.61688C20.5244 5.61688 19.774 6.17814 19.3651 5.8805C18.9569 5.58287 19.2616 4.69563 19.1057 4.21517C18.9498 3.73328 18.1845 3.19329 18.3404 2.71282C18.4977 2.23164 19.4352 2.24794 19.8448 1.95101C20.2544 1.65409 20.5315 0.759057 21.0368 0.759766C21.5421 0.760475 21.8177 1.65621 22.2259 1.95456C22.6348 2.25219 23.5724 2.23873 23.7283 2.7199C23.8835 3.20179 23.116 3.73966 22.9587 4.22013C22.802 4.70059 23.1039 5.58783 22.6943 5.88546L22.695 5.88476Z" fill="#757575"/>
</g>
<defs>
<clipPath id="clip0_682_1203">
<rect width="22.5008" height="22.4899" fill="white" transform="translate(1.24805 0.759766)"/>
</clipPath>
</defs>
</svg>
