<svg width="24" height="24" viewBox="0 0 24 24" fill="none" xmlns="http://www.w3.org/2000/svg">
<g clip-path="url(#clip0_682_832)">
<g clip-path="url(#clip1_682_832)">
<path d="M9.29961 10.542C8.89071 10.8389 8.14167 10.2748 7.63569 10.2741C7.12971 10.2741 6.37924 10.8354 5.97035 10.5377C5.56216 10.2401 5.86688 9.35286 5.71098 8.87239C5.55508 8.39051 4.78973 7.85051 4.94563 7.37004C5.10296 6.88887 6.04051 6.90517 6.45011 6.60824C6.85971 6.31131 7.13679 5.41628 7.64206 5.41699C8.14734 5.4177 8.423 6.31344 8.83119 6.61178C9.24008 6.90942 10.1776 6.89595 10.3335 7.37713C10.4887 7.85902 9.72126 8.39689 9.56394 8.87735C9.40732 9.35782 9.70921 10.2443 9.29961 10.542ZM18.0168 10.542C17.6079 10.8389 16.8588 10.2748 16.3528 10.2741C15.8469 10.2741 15.0964 10.8354 14.6875 10.5377C14.2793 10.2401 14.584 9.35286 14.4281 8.87239C14.2722 8.39051 13.5069 7.85051 13.6628 7.37004C13.8201 6.88887 14.7577 6.90517 15.1673 6.60824C15.5769 6.31131 15.854 5.41628 16.3592 5.41699C16.8645 5.4177 17.1402 6.31344 17.5483 6.61178C17.9572 6.90942 18.8948 6.89595 19.0507 7.37713C19.2059 7.85902 18.4384 8.39689 18.2811 8.87735C18.1245 9.35782 18.4264 10.2443 18.0168 10.542Z" fill="#75247B"/>
<path d="M19.5042 11.9997H4.49842C4.25208 11.9992 4.00807 12.0474 3.7804 12.1415C3.55274 12.2356 3.34589 12.3737 3.17173 12.5479C2.99758 12.7221 2.85954 12.929 2.76555 13.1567C2.67156 13.3844 2.62347 13.6285 2.62403 13.8748V21.3752C2.62356 21.6215 2.67173 21.8654 2.76576 22.093C2.85979 22.3207 2.99784 22.5275 3.17198 22.7016C3.34613 22.8758 3.55295 23.0138 3.78057 23.1079C4.00819 23.2019 4.25214 23.2501 4.49842 23.2496H19.5042C19.7505 23.2501 19.9945 23.2021 20.2222 23.1081C20.45 23.0141 20.6569 22.876 20.8311 22.7019C21.0053 22.5277 21.1434 22.3209 21.2375 22.0932C21.3316 21.8655 21.3797 21.6215 21.3793 21.3752V13.8748C21.3798 13.6284 21.3317 13.3843 21.2377 13.1566C21.1437 12.9288 21.0056 12.7219 20.8313 12.5477C20.6571 12.3734 20.4502 12.2353 20.2224 12.1413C19.9947 12.0473 19.7506 11.9991 19.5042 11.9997Z" fill="#75247B"/>
<path d="M14.1694 11.9997V15.3127C14.1694 15.9667 13.5989 16.0525 13.1922 15.6457C12.9179 15.3715 12.3794 15.0235 11.9995 15.0235C11.6204 15.0235 11.0818 15.3715 10.8068 15.6464C10.4008 16.0525 9.83032 15.9667 9.83032 15.3127V11.9997H14.1694Z" fill="#75247B"/>
<path d="M5.12356 5.88469C4.71396 6.18162 3.96491 5.61753 3.45893 5.61682C2.95295 5.61682 2.20248 6.17808 1.79359 5.88044C1.38541 5.58281 1.69013 4.69557 1.53422 4.2151C1.37832 3.73322 0.612972 3.19322 0.768876 2.71276C0.926198 2.23158 1.86375 2.24788 2.27335 1.95095C2.68295 1.65403 2.96004 0.758996 3.46531 0.759705C3.97129 0.759705 4.24624 1.65615 4.65443 1.9545C5.06332 2.25213 6.00087 2.23867 6.15678 2.71984C6.31197 3.20173 5.5445 3.7396 5.38718 4.22006C5.23056 4.70053 5.53245 5.58777 5.12285 5.8854L5.12356 5.88469ZM13.3765 5.88469C12.9677 6.18162 12.2186 5.61753 11.7126 5.61682C11.2066 5.61682 10.4562 6.17808 10.0473 5.88044C9.6391 5.58281 9.94383 4.69557 9.78792 4.2151C9.63202 3.73322 8.86667 3.19322 9.02258 2.71276C9.1799 2.23158 10.1174 2.24788 10.527 1.95095C10.9367 1.65403 11.2137 0.758996 11.719 0.759705C12.2243 0.760414 12.4999 1.65615 12.9081 1.9545C13.317 2.25213 14.2546 2.23867 14.4105 2.71984C14.5657 3.20173 13.7982 3.7396 13.6409 4.22006C13.4843 4.70053 13.7861 5.58777 13.3765 5.8854V5.88469ZM22.195 5.88469C21.7854 6.18162 21.0364 5.61753 20.5304 5.61682C20.0244 5.61682 19.274 6.17808 18.8651 5.88044C18.4569 5.58281 18.7616 4.69557 18.6057 4.2151C18.4498 3.73322 17.6845 3.19322 17.8404 2.71276C17.9977 2.23158 18.9352 2.24788 19.3448 1.95095C19.7544 1.65403 20.0315 0.758996 20.5368 0.759705C21.0421 0.760414 21.3177 1.65615 21.7259 1.9545C22.1348 2.25213 23.0724 2.23867 23.2283 2.71984C23.3835 3.20173 22.616 3.7396 22.4587 4.22006C22.302 4.70053 22.6039 5.58777 22.1943 5.8854L22.195 5.88469Z" fill="#75247B"/>
</g>
</g>
<defs>
<clipPath id="clip0_682_832">
<rect width="24" height="24" fill="white"/>
</clipPath>
<clipPath id="clip1_682_832">
<rect width="22.5008" height="22.4899" fill="white" transform="translate(0.748047 0.759705)"/>
</clipPath>
</defs>
</svg>
