<svg width="24" height="24" viewBox="0 0 24 24" fill="none" xmlns="http://www.w3.org/2000/svg">
<path d="M21.1429 6.857H8.57143M6.28572 6.857H2.85715M21.1429 18.2856H8.57143M6.28572 18.2856H2.85715M15.4286 12.5713H2.85715M21.1429 12.5713H17.7143M7.42858 4.57129C7.73168 4.57129 8.02237 4.6917 8.2367 4.90602C8.45103 5.12035 8.57143 5.41104 8.57143 5.71415V7.99986C8.57143 8.30296 8.45103 8.59365 8.2367 8.80798C8.02237 9.02231 7.73168 9.14272 7.42858 9.14272C7.12547 9.14272 6.83478 9.02231 6.62045 8.80798C6.40613 8.59365 6.28572 8.30296 6.28572 7.99986V5.71415C6.28572 5.41104 6.40613 5.12035 6.62045 4.90602C6.83478 4.6917 7.12547 4.57129 7.42858 4.57129V4.57129ZM7.42858 15.9999C7.73168 15.9999 8.02237 16.1203 8.2367 16.3346C8.45103 16.5489 8.57143 16.8396 8.57143 17.1427V19.4284C8.57143 19.7315 8.45103 20.0222 8.2367 20.2366C8.02237 20.4509 7.73168 20.5713 7.42858 20.5713C7.12547 20.5713 6.83478 20.4509 6.62045 20.2366C6.40613 20.0222 6.28572 19.7315 6.28572 19.4284V17.1427C6.28572 16.8396 6.40613 16.5489 6.62045 16.3346C6.83478 16.1203 7.12547 15.9999 7.42858 15.9999ZM16.5714 10.2856C16.8745 10.2856 17.1652 10.406 17.3796 10.6203C17.5939 10.8346 17.7143 11.1253 17.7143 11.4284V13.7141C17.7143 14.0173 17.5939 14.3079 17.3796 14.5223C17.1652 14.7366 16.8745 14.857 16.5714 14.857C16.2683 14.857 15.9776 14.7366 15.7633 14.5223C15.549 14.3079 15.4286 14.0173 15.4286 13.7141V11.4284C15.4286 11.1253 15.549 10.8346 15.7633 10.6203C15.9776 10.406 16.2683 10.2856 16.5714 10.2856V10.2856Z" stroke="#75247B" stroke-linecap="round" stroke-linejoin="round"/>
</svg>
