<svg width="24" height="24" viewBox="0 0 24 24" fill="none" xmlns="http://www.w3.org/2000/svg">
<path d="M23.5972 10.9251L19.9598 7.28776V3.08604C19.9598 2.32631 19.3442 1.71062 18.5833 1.71062C17.8242 1.71062 17.2086 2.32631 17.2086 3.08604V4.53656L14.5003 1.82819C13.1613 0.489924 10.8333 0.492298 9.49731 1.83062L0.402658 10.9251C-0.134219 11.463 -0.134219 12.3334 0.402658 12.8706C0.939778 13.4084 1.8119 13.4084 2.34883 12.8706L11.4426 3.77586C11.7389 3.48117 12.261 3.48117 12.5557 3.77499L21.651 12.8706C21.7787 12.9984 21.9304 13.0998 22.0973 13.1689C22.2643 13.238 22.4432 13.2734 22.6239 13.2732C22.9761 13.2732 23.3283 13.1393 23.5972 12.8706C24.1343 12.3335 24.1343 11.4631 23.5972 10.9251Z" fill="#757575"/>
<path d="M12.4777 6.38654C12.2135 6.12246 11.7857 6.12246 11.5222 6.38654L3.52255 14.3838C3.39579 14.5108 3.32461 14.6829 3.32465 14.8623V20.6953C3.32465 22.064 4.43444 23.1738 5.80314 23.1738H9.76378V17.04H14.2353V23.1738H18.196C19.5646 23.1738 20.6744 22.064 20.6744 20.6953V14.8623C20.6744 14.6825 20.6035 14.5101 20.4765 14.3838L12.4777 6.38654Z" fill="#757575"/>
</svg>
