<svg width="18" height="17" viewBox="0 0 18 17" fill="none" xmlns="http://www.w3.org/2000/svg">
<path d="M5.54353 1.35147C5.67324 1.22176 5.7381 1.1569 5.81379 1.11052C5.88089 1.0694 5.95405 1.0391 6.03058 1.02072C6.11689 1 6.20861 1 6.39206 1H11.6079C11.7914 1 11.8831 1 11.9694 1.02072C12.046 1.0391 12.1191 1.0694 12.1862 1.11052C12.2619 1.1569 12.3268 1.22176 12.4565 1.35147L16.1485 5.04353C16.2782 5.17324 16.3431 5.2381 16.3895 5.31379C16.4306 5.38089 16.4609 5.45405 16.4793 5.53058C16.5 5.61689 16.5 5.70861 16.5 5.89206V11.1079C16.5 11.2914 16.5 11.3831 16.4793 11.4694C16.4609 11.546 16.4306 11.6191 16.3895 11.6862C16.3431 11.7619 16.2782 11.8268 16.1485 11.9565L12.4565 15.6485C12.3268 15.7782 12.2619 15.8431 12.1862 15.8895C12.1191 15.9306 12.046 15.9609 11.9694 15.9793C11.8831 16 11.7914 16 11.6079 16H6.39206C6.20861 16 6.11689 16 6.03058 15.9793C5.95405 15.9609 5.88089 15.9306 5.81379 15.8895C5.7381 15.8431 5.67324 15.7782 5.54353 15.6485L1.85147 11.9565C1.72176 11.8268 1.6569 11.7619 1.61052 11.6862C1.5694 11.6191 1.5391 11.546 1.52072 11.4694C1.5 11.3831 1.5 11.2914 1.5 11.1079V5.89206C1.5 5.70861 1.5 5.61689 1.52072 5.53058C1.5391 5.45405 1.5694 5.38089 1.61052 5.31379C1.6569 5.2381 1.72176 5.17324 1.85147 5.04353L5.54353 1.35147Z" stroke="#75247B" stroke-width="1.33333" stroke-linecap="round" stroke-linejoin="round"/>
<path fill-rule="evenodd" clip-rule="evenodd" d="M8.99743 6.30093C8.24768 5.4244 6.9974 5.18862 6.05801 5.99125C5.11862 6.79389 4.98636 8.13587 5.72407 9.08515C6.19658 9.69317 7.40669 10.8207 8.21568 11.5528C8.48451 11.7961 8.61893 11.9177 8.77994 11.9665C8.91835 12.0084 9.07652 12.0084 9.21492 11.9665C9.37593 11.9177 9.51035 11.7961 9.77919 11.5528C10.5882 10.8207 11.7983 9.69317 12.2708 9.08515C13.0085 8.13587 12.8924 6.78545 11.9369 5.99125C10.9813 5.19706 9.74719 5.4244 8.99743 6.30093Z" stroke="#75247B" stroke-width="1.33333" stroke-linecap="round" stroke-linejoin="round"/>
</svg>
