<svg width="16" height="15" viewBox="0 0 16 15" fill="none" xmlns="http://www.w3.org/2000/svg">
<path d="M14.5935 7.95565C14.7766 7.79872 14.8682 7.72025 14.9017 7.62687C14.9311 7.54492 14.9311 7.45527 14.9017 7.37332C14.8682 7.27995 14.7766 7.20148 14.5935 7.04454L8.24047 1.59908C7.9253 1.32893 7.76772 1.19385 7.6343 1.19055C7.51835 1.18767 7.40759 1.23861 7.33432 1.32852C7.25 1.43197 7.25 1.63952 7.25 2.05463V5.27607C5.64899 5.55616 4.1837 6.36742 3.09478 7.5855C1.90762 8.91348 1.25093 10.6321 1.25 12.4133V12.8723C2.03701 11.9242 3.01963 11.1575 4.13057 10.6245C5.11002 10.1547 6.16881 9.87634 7.25 9.80299V12.9456C7.25 13.3607 7.25 13.5682 7.33432 13.6717C7.40759 13.7616 7.51835 13.8125 7.6343 13.8097C7.76772 13.8063 7.9253 13.6713 8.24047 13.4011L14.5935 7.95565Z" stroke="#75247B" stroke-width="1.33333" stroke-linecap="round" stroke-linejoin="round"/>
</svg>
