<svg width="17" height="17" viewBox="0 0 17 17" fill="none" xmlns="http://www.w3.org/2000/svg">
<path d="M11.75 1V9.25M15.5 6.85V3.4C15.5 2.55992 15.5 2.13988 15.3365 1.81901C15.1927 1.53677 14.9632 1.3073 14.681 1.16349C14.3601 1 13.9401 1 13.1 1H5.08849C3.99238 1 3.44432 1 3.00166 1.20058C2.61153 1.37735 2.27995 1.66182 2.04591 2.02054C1.78036 2.42755 1.69702 2.96923 1.53035 4.05259L1.13804 6.60259C0.918212 8.03148 0.808297 8.74593 1.02033 9.30184C1.20644 9.78977 1.55647 10.1978 2.01042 10.4559C2.52763 10.75 3.25048 10.75 4.69618 10.75H5.29998C5.72002 10.75 5.93004 10.75 6.09047 10.8317C6.23159 10.9037 6.34633 11.0184 6.41823 11.1595C6.49998 11.3199 6.49998 11.53 6.49998 11.95V14.1506C6.49998 15.172 7.32797 16 8.34936 16C8.59298 16 8.81374 15.8565 8.91269 15.6339L11.4333 9.96263C11.5479 9.70469 11.6052 9.57571 11.6958 9.48114C11.7759 9.39755 11.8743 9.33363 11.9832 9.29439C12.1064 9.25 12.2475 9.25 12.5298 9.25H13.1C13.9401 9.25 14.3601 9.25 14.681 9.08651C14.9632 8.9427 15.1927 8.71323 15.3365 8.43099C15.5 8.11012 15.5 7.69008 15.5 6.85Z" stroke="#75247B" stroke-width="1.33333" stroke-linecap="round" stroke-linejoin="round"/>
</svg>
