<svg width="85" height="84" viewBox="0 0 85 84" fill="none" xmlns="http://www.w3.org/2000/svg">
<g clip-path="url(#clip0_4_1660)">
<path d="M72.0216 12.2282C64.192 4.39863 53.5727 0 42.5 0C31.4273 0 20.808 4.39863 12.9784 12.2282C5.14881 20.0578 0.750183 30.6771 0.750183 41.7498C0.750183 52.8226 5.14881 63.4418 12.9784 71.2714C20.808 79.101 31.4273 83.4996 42.5 83.4996C53.5727 83.4996 64.192 79.101 72.0216 71.2714C79.8512 63.4418 84.2498 52.8226 84.2498 41.7498C84.2498 30.6771 79.8512 20.0578 72.0216 12.2282ZM42.5 77.9038C22.565 77.9038 6.34602 61.6851 6.34602 41.7498C6.34602 21.8145 22.5647 5.59584 42.5 5.59584C62.4353 5.59584 78.654 21.8145 78.654 41.7498C78.654 61.6851 62.4353 77.9038 42.5 77.9038Z" fill="#33B469"/>
<path d="M36.2083 50.5026L23.3707 37.6652L19.4139 41.6219L36.2083 58.4163L65.4987 29.1261L61.5418 25.1693L36.2083 50.5026Z" fill="#33B469"/>
</g>
<defs>
<clipPath id="clip0_4_1660">
<rect width="83.4996" height="83.4996" fill="white" transform="translate(0.750183)"/>
</clipPath>
</defs>
</svg>
