<svg width="18" height="16" viewBox="0 0 18 16" fill="none" xmlns="http://www.w3.org/2000/svg">
<path d="M3.64398 3.5C5.00517 2.11148 6.90201 1.25 9.00006 1.25C11.0981 1.25 12.9949 2.11148 14.3561 3.5M12.3542 5.75C11.5302 4.82938 10.3328 4.25 9.00003 4.25C7.66728 4.25 6.46985 4.82938 5.64587 5.75M9 11.75C10.1329 11.75 11.2206 11.9432 12.232 12.2985C12.2657 12.3103 12.2825 12.3162 12.309 12.3279C12.5494 12.4338 12.7341 12.6944 12.7544 12.9563C12.7566 12.9852 12.7566 13.0108 12.7566 13.062C12.7566 13.2366 12.7566 13.3239 12.7639 13.3974C12.8341 14.1093 13.3973 14.6724 14.1092 14.7427C14.1827 14.75 14.27 14.75 14.4446 14.75H14.6283C14.9737 14.75 15.1464 14.75 15.2901 14.7217C15.8872 14.604 16.354 14.1372 16.4717 13.5401C16.5 13.3964 16.5 13.2237 16.5 12.8783V12.7297C16.5 12.3732 16.5 12.195 16.4619 11.9907C16.3768 11.5339 16.0449 10.9687 15.6875 10.6718C15.5276 10.5391 15.4192 10.4786 15.2023 10.3576C13.3665 9.33355 11.2514 8.75 9 8.75C6.74859 8.75 4.63348 9.33355 2.79765 10.3576C2.58082 10.4786 2.47241 10.5391 2.31255 10.6718C1.95506 10.9687 1.62316 11.5339 1.53806 11.9907C1.5 12.195 1.5 12.3732 1.5 12.7297V12.8783C1.5 13.2237 1.5 13.3964 1.52832 13.5401C1.64602 14.1372 2.11282 14.604 2.70991 14.7217C2.85357 14.75 3.02628 14.75 3.3717 14.75H3.55543C3.72999 14.75 3.81728 14.75 3.8908 14.7427C4.60267 14.6724 5.16585 14.1093 5.23614 13.3974C5.2434 13.3239 5.2434 13.2366 5.2434 13.062C5.2434 13.0108 5.2434 12.9852 5.24564 12.9563C5.26592 12.6944 5.45055 12.4338 5.69098 12.3279C5.71751 12.3162 5.73432 12.3103 5.76795 12.2985C6.77941 11.9432 7.86714 11.75 9 11.75Z" stroke="#75247B" stroke-width="1.2" stroke-linecap="round" stroke-linejoin="round"/>
</svg>
