<svg width="84" height="84" viewBox="0 0 84 84" fill="none" xmlns="http://www.w3.org/2000/svg">
<path d="M71.5216 12.2282C63.692 4.39863 53.0727 0 42 0C30.9273 0 20.308 4.39863 12.4784 12.2282C4.64881 20.0578 0.250183 30.6771 0.250183 41.7498C0.250183 52.8226 4.64881 63.4418 12.4784 71.2714C20.308 79.101 30.9273 83.4996 42 83.4996C53.0727 83.4996 63.692 79.101 71.5216 71.2714C79.3512 63.4418 83.7498 52.8226 83.7498 41.7498C83.7498 30.6771 79.3512 20.0578 71.5216 12.2282V12.2282ZM42 77.9038C22.065 77.9038 5.84602 61.6851 5.84602 41.7498C5.84602 21.8145 22.0647 5.59584 42 5.59584C61.9353 5.59584 78.154 21.8145 78.154 41.7498C78.154 61.6851 61.9353 77.9038 42 77.9038Z" fill="#33B469"/>
<path d="M35.7083 50.5028L22.8707 37.6653L18.9139 41.6221L35.7083 58.4164L64.9987 29.1262L61.0418 25.1694L35.7083 50.5028Z" fill="#33B469"/>
</svg>
