<svg width="18" height="19" viewBox="0 0 18 19" fill="none" xmlns="http://www.w3.org/2000/svg">
<g clip-path="url(#clip0_157_15730)">
<path d="M9 0.5C4.02952 0.5 0 4.52952 0 9.5C0 14.4705 4.02952 18.5 9 18.5C13.9705 18.5 18 14.4705 18 9.5C18 4.52952 13.9705 0.5 9 0.5ZM1.55172 9.5C1.55172 5.39321 4.89321 2.05172 9 2.05172C10.7451 2.05025 12.4348 2.66447 13.7716 3.78624L3.28624 14.2716C2.16454 12.9347 1.55033 11.2451 1.55172 9.5ZM9 16.9483C7.33084 16.9494 5.7102 16.3869 4.40069 15.3519L14.8519 4.90038C15.8868 6.21005 16.4493 7.83076 16.4483 9.5C16.4483 13.6068 13.1068 16.9483 9 16.9483Z" fill="#75247B"/>
</g>
<defs>
<clipPath id="clip0_157_15730">
<rect width="18" height="18" fill="white" transform="translate(0 0.5)"/>
</clipPath>
</defs>
</svg>
