<svg width="25" height="24" viewBox="0 0 25 24" fill="none" xmlns="http://www.w3.org/2000/svg">
<g clip-path="url(#clip0_682_1623)">
<path d="M12.5 14.1024C9.97991 14.1024 7.92969 16.3804 7.92969 19.1805V22.3055H17.0703V19.1805C17.0703 16.3804 15.0201 14.1024 12.5 14.1024ZM15.6641 10.5868C15.6641 8.64809 14.2448 7.07117 12.5 7.07117C10.7552 7.07117 9.33594 8.64809 9.33594 10.5868C9.33594 12.5255 10.7552 14.1024 12.5 14.1024C14.2448 14.1024 15.6641 12.5255 15.6641 10.5868ZM8.28125 7.07117C8.28125 5.13247 6.86202 3.55554 5.11719 3.55554C3.37236 3.55554 1.95312 5.13247 1.95312 7.07117C1.95312 9.00986 3.37236 10.5868 5.11719 10.5868C6.86202 10.5868 8.28125 9.00986 8.28125 7.07117ZM19.8828 10.5868C18.0254 10.5868 16.43 11.8291 15.7159 13.6011C17.3713 14.7831 18.4766 16.8366 18.4766 19.1805H24.5V15.6649C24.5 12.8648 22.4029 10.5868 19.8828 10.5868ZM23.0469 7.07117C23.0469 5.13247 21.6276 3.55554 19.8828 3.55554C18.138 3.55554 16.7188 5.13247 16.7188 7.07117C16.7188 9.00986 18.138 10.5868 19.8828 10.5868C21.6276 10.5868 23.0469 9.00986 23.0469 7.07117Z" fill="#75247B"/>
<path d="M9.28414 13.6011C8.57 11.8291 6.97461 10.5868 5.11719 10.5868C2.59709 10.5868 0.5 12.8648 0.5 15.6649V19.1805H6.52344C6.52344 16.8366 7.62866 14.7831 9.28414 13.6011Z" fill="#75247B"/>
</g>
<defs>
<clipPath id="clip0_682_1623">
<rect width="24" height="24" fill="white" transform="translate(0.5)"/>
</clipPath>
</defs>
</svg>
