<svg width="24" height="20" viewBox="0 0 24 20" fill="none" xmlns="http://www.w3.org/2000/svg">
<path d="M12 11.1025C9.47991 11.1025 7.42969 13.3806 7.42969 16.1807V19.3057H16.5703V16.1807C16.5703 13.3806 14.5201 11.1025 12 11.1025ZM15.1641 7.58691C15.1641 5.64822 13.7448 4.07129 12 4.07129C10.2552 4.07129 8.83594 5.64822 8.83594 7.58691C8.83594 9.52561 10.2552 11.1025 12 11.1025C13.7448 11.1025 15.1641 9.52561 15.1641 7.58691ZM7.78125 4.07129C7.78125 2.13259 6.36202 0.555664 4.61719 0.555664C2.87236 0.555664 1.45312 2.13259 1.45312 4.07129C1.45312 6.00999 2.87236 7.58691 4.61719 7.58691C6.36202 7.58691 7.78125 6.00999 7.78125 4.07129ZM19.3828 7.58691C17.5254 7.58691 15.93 8.82921 15.2159 10.6012C16.8713 11.7833 17.9766 13.8367 17.9766 16.1807H24V12.665C24 9.86493 21.9029 7.58691 19.3828 7.58691ZM22.5469 4.07129C22.5469 2.13259 21.1276 0.555664 19.3828 0.555664C17.638 0.555664 16.2188 2.13259 16.2188 4.07129C16.2188 6.00999 17.638 7.58691 19.3828 7.58691C21.1276 7.58691 22.5469 6.00999 22.5469 4.07129Z" fill="#757575"/>
<path d="M8.78414 10.6012C8.07 8.82921 6.47461 7.58691 4.61719 7.58691C2.09709 7.58691 0 9.86493 0 12.665V16.1807H6.02344C6.02344 13.8367 7.12866 11.7833 8.78414 10.6012Z" fill="#757575"/>
</svg>
